<svg width="153" height="39" viewBox="0 0 153 39" fill="none" xmlns="http://www.w3.org/2000/svg">
<g clip-path="url(#clip0_357_2255)">
<path d="M24.6091 19.5251C25.8577 18.4795 26.6517 16.909 26.6517 15.153C26.6517 13.3971 25.8577 11.8266 24.6091 10.781C24.7522 10.7117 24.8899 10.6365 25.0211 10.555C25.8493 10.0401 26.8268 9.74268 27.8738 9.74268C30.8619 9.74268 33.2842 12.165 33.2842 15.153C33.2842 18.1411 30.8619 20.5634 27.8738 20.5634C26.8268 20.5634 25.8493 20.266 25.0211 19.7511C24.8899 19.6696 24.7522 19.5944 24.6091 19.5251Z" fill="url(#paint0_linear_357_2255)"/>
<path d="M23.1065 16.0047C23.665 14.4749 23.5674 12.7178 22.6894 11.1971C21.8114 9.67644 20.3385 8.71335 18.7344 8.43214C18.8237 8.30061 18.9053 8.16662 18.9781 8.03044C19.4379 7.17039 20.1358 6.42406 21.0425 5.90056C23.6303 4.40652 26.9393 5.29315 28.4333 7.8809C29.9273 10.4687 29.0407 13.7776 26.4529 15.2716C25.5462 15.7951 24.5509 16.0263 23.5762 15.9945C23.4219 15.9894 23.265 15.9932 23.1065 16.0047Z" fill="url(#paint1_linear_357_2255)"/>
<path d="M20.0447 13.7073C19.7635 12.1032 18.8004 10.6303 17.2797 9.75236C15.759 8.87438 14.0019 8.77678 12.4721 9.33529C12.4837 9.17675 12.4874 9.01988 12.4823 8.86556C12.4505 7.89083 12.6817 6.89555 13.2052 5.98881C14.6993 3.40106 18.0082 2.51443 20.596 4.00847C23.1837 5.50251 24.0704 8.81146 22.5763 11.3992C22.0528 12.3059 21.3065 13.0038 20.4464 13.4636C20.3103 13.5364 20.1763 13.618 20.0447 13.7073Z" fill="url(#paint2_linear_357_2255)"/>
<path d="M16.2442 13.2489C15.1986 12.0003 13.6281 11.2063 11.8721 11.2063C10.1161 11.2063 8.54564 12.0003 7.50005 13.2489C7.43079 13.1058 7.35557 12.9681 7.27404 12.8369C6.7591 12.0087 6.4617 11.0312 6.4617 9.98414C6.4617 6.99605 8.88402 4.57373 11.8721 4.57373C14.8602 4.57373 17.2825 6.99605 17.2825 9.98414C17.2825 11.0312 16.9851 12.0087 16.4702 12.8369C16.3886 12.9681 16.3134 13.1058 16.2442 13.2489Z" fill="url(#paint3_linear_357_2255)"/>
<path d="M12.7231 14.7518C11.1933 14.1933 9.43617 14.2909 7.91546 15.1688C6.39475 16.0468 5.43166 17.5197 5.15046 19.1238C5.01893 19.0345 4.88493 18.9529 4.74875 18.8801C3.8887 18.4203 3.14237 17.7224 2.61887 16.8157C1.12482 14.2279 2.01145 10.919 4.59921 9.42498C7.18697 7.93093 10.4959 8.81756 11.99 11.4053C12.5135 12.312 12.7447 13.3073 12.7128 14.282C12.7078 14.4363 12.7115 14.5932 12.7231 14.7518Z" fill="url(#paint4_linear_357_2255)"/>
<path d="M10.4247 17.8135C8.82056 18.0947 7.34767 19.0578 6.46969 20.5785C5.59171 22.0992 5.49411 23.8563 6.05263 25.3861C5.89407 25.3745 5.73718 25.3708 5.58284 25.3758C4.60812 25.4077 3.61284 25.1765 2.70611 24.653C0.118349 23.1589 -0.768282 19.85 0.72576 17.2622C2.2198 14.6745 5.52875 13.7878 8.11651 15.2819C9.02324 15.8054 9.72111 16.5517 10.1809 17.4117C10.2537 17.5479 10.3354 17.6819 10.4247 17.8135Z" fill="url(#paint5_linear_357_2255)"/>
<path d="M9.96509 21.6146C8.71649 22.6602 7.92246 24.2307 7.92246 25.9866C7.92246 27.7426 8.71649 29.3131 9.96509 30.3587C9.822 30.4279 9.68428 30.5032 9.55314 30.5847C8.72493 31.0996 7.74739 31.397 6.70038 31.397C3.7123 31.397 1.28998 28.9747 1.28998 25.9866C1.28998 22.9985 3.7123 20.5762 6.70038 20.5762C7.74739 20.5762 8.72493 20.8736 9.55314 21.3886C9.68428 21.4701 9.822 21.5453 9.96509 21.6146Z" fill="url(#paint6_linear_357_2255)"/>
<path d="M11.4674 25.1357C10.9088 26.6655 11.0064 28.4226 11.8844 29.9433C12.7624 31.4641 14.2353 32.4271 15.8394 32.7083C15.7501 32.8399 15.6685 32.9739 15.5957 33.1101C15.1359 33.9701 14.438 34.7164 13.5313 35.2399C10.9435 36.734 7.63456 35.8473 6.14052 33.2596C4.64647 30.6718 5.53311 27.3629 8.12086 25.8688C9.0276 25.3453 10.0229 25.1141 10.9976 25.146C11.1519 25.151 11.3088 25.1473 11.4674 25.1357Z" fill="url(#paint7_linear_357_2255)"/>
<path d="M14.5293 27.4341C14.8105 29.0382 15.7736 30.5111 17.2943 31.389C18.815 32.267 20.5722 32.3646 22.102 31.8061C22.0904 31.9647 22.0867 32.1215 22.0917 32.2759C22.1236 33.2506 21.8924 34.2459 21.3689 35.1526C19.8748 37.7404 16.5659 38.627 13.9781 37.1329C11.3903 35.6389 10.5037 32.33 11.9978 29.7422C12.5213 28.8355 13.2676 28.1376 14.1276 27.6778C14.2638 27.605 14.3978 27.5233 14.5293 27.4341Z" fill="url(#paint8_linear_357_2255)"/>
<path d="M18.3301 27.8936C19.3757 29.1422 20.9462 29.9362 22.7022 29.9362C24.4582 29.9362 26.0287 29.1422 27.0743 27.8936C27.1435 28.0367 27.2187 28.1744 27.3003 28.3055C27.8152 29.1337 28.1126 30.1113 28.1126 31.1583C28.1126 34.1464 25.6903 36.5687 22.7022 36.5687C19.7141 36.5687 17.2918 34.1464 17.2918 31.1583C17.2918 30.1113 17.5892 29.1337 18.1041 28.3055C18.1857 28.1744 18.2609 28.0367 18.3301 27.8936Z" fill="url(#paint9_linear_357_2255)"/>
<path d="M21.8514 26.3915C23.3812 26.95 25.1383 26.8524 26.659 25.9745C28.1797 25.0965 29.1428 23.6236 29.424 22.0195C29.5555 22.1087 29.6895 22.1904 29.8257 22.2632C30.6858 22.723 31.4321 23.4209 31.9556 24.3276C33.4497 26.9154 32.563 30.2243 29.9753 31.7184C27.3875 33.2124 24.0786 32.3258 22.5845 29.738C22.061 28.8313 21.8298 27.836 21.8616 26.8613C21.8667 26.707 21.863 26.5501 21.8514 26.3915Z" fill="url(#paint10_linear_357_2255)"/>
<path d="M28.108 20.5587C28.1069 20.5606 28.1058 20.5625 28.1047 20.5644C27.2268 22.0851 25.7539 23.0482 24.1498 23.3294C24.239 23.461 24.3207 23.595 24.3935 23.7311C24.8533 24.5912 25.5512 25.3375 26.4579 25.861C29.0457 27.3551 32.3546 26.4684 33.8487 23.8807C35.1295 21.6621 34.6606 18.9135 32.8701 17.2329C32.0835 19.1206 30.2582 20.4671 28.108 20.5587Z" fill="url(#paint11_linear_357_2255)"/>
<path d="M47.2605 10.341V26.5H43.6793V10.341H47.2605ZM44.247 26.5L44.3125 23.3337H53.593V26.5H44.247ZM54.1535 21.019C54.1535 19.869 54.3937 18.8645 54.8741 18.0056C55.3545 17.1321 56.0314 16.4552 56.9049 15.9748C57.7783 15.4944 58.7973 15.2542 59.962 15.2542C61.1266 15.2542 62.1383 15.4944 62.9972 15.9748C63.8707 16.4552 64.5476 17.1321 65.028 18.0056C65.5084 18.8645 65.7486 19.869 65.7486 21.019C65.7486 22.1691 65.5084 23.1736 65.028 24.0325C64.5476 24.8914 63.8707 25.561 62.9972 26.0414C62.1383 26.5218 61.1266 26.762 59.962 26.762C58.7973 26.762 57.7783 26.5218 56.9049 26.0414C56.0314 25.561 55.3545 24.8914 54.8741 24.0325C54.3937 23.1736 54.1535 22.1691 54.1535 21.019ZM57.5381 20.9972C57.5381 21.5504 57.64 22.0381 57.8438 22.4603C58.0476 22.8679 58.3315 23.1881 58.6954 23.4211C59.0594 23.6394 59.4816 23.7486 59.962 23.7486C60.4424 23.7486 60.8645 23.6394 61.2285 23.4211C61.5924 23.1881 61.869 22.8679 62.0583 22.4603C62.2621 22.0381 62.364 21.5504 62.364 20.9972C62.364 20.444 62.2621 19.9636 62.0583 19.556C61.869 19.1484 61.5924 18.8354 61.2285 18.617C60.8645 18.3841 60.4424 18.2676 59.962 18.2676C59.4816 18.2676 59.0594 18.3841 58.6954 18.617C58.3315 18.8354 58.0476 19.1484 57.8438 19.556C57.64 19.9636 57.5381 20.444 57.5381 20.9972ZM66.508 20.8444C66.508 19.7234 66.7336 18.7408 67.1849 17.8964C67.6362 17.0521 68.2549 16.397 69.041 15.9311C69.8271 15.4507 70.7297 15.2105 71.7487 15.2105C72.6076 15.2105 73.3646 15.3852 74.0197 15.7346C74.6894 16.084 75.1406 16.5426 75.3736 17.1103L75.046 17.3287L75.3081 15.5818H78.3433V25.8012C78.3433 27.0823 78.0958 28.1887 77.6009 29.1204C77.1059 30.0666 76.3999 30.7945 75.4827 31.304C74.5802 31.8135 73.5029 32.0683 72.2509 32.0683C71.2028 32.0683 70.2566 31.8572 69.4122 31.435C68.5824 31.0274 67.9055 30.4451 67.3814 29.6881C66.8719 28.9311 66.5662 28.0577 66.4643 27.0677H69.8708C69.8999 27.6937 70.1474 28.1741 70.6132 28.509C71.0936 28.8438 71.705 29.0112 72.4475 29.0112C73.2773 29.0112 73.9178 28.7783 74.3691 28.3124C74.8204 27.8611 75.046 27.257 75.046 26.5V24.1853L75.3517 24.4692C75.1188 25.037 74.6675 25.4955 73.9979 25.8449C73.3282 26.1943 72.5567 26.369 71.6832 26.369C70.6787 26.369 69.7834 26.1361 68.9973 25.6702C68.2258 25.2044 67.6143 24.5566 67.163 23.7268C66.7263 22.897 66.508 21.9362 66.508 20.8444ZM69.9144 20.757C69.9144 21.2811 70.0236 21.7469 70.242 22.1545C70.4604 22.5622 70.7515 22.8824 71.1155 23.1153C71.4794 23.3337 71.8797 23.4429 72.3165 23.4429C72.8405 23.4429 73.2991 23.3337 73.6922 23.1153C74.0998 22.8824 74.4128 22.5622 74.6311 22.1545C74.864 21.7469 74.9805 21.2811 74.9805 20.757C74.9805 20.2184 74.864 19.7598 74.6311 19.3813C74.3982 18.9883 74.0779 18.6825 73.6703 18.4642C73.2773 18.2458 72.8187 18.1366 72.2946 18.1366C71.8579 18.1366 71.4576 18.2458 71.0936 18.4642C70.7297 18.6825 70.4385 18.9883 70.2202 19.3813C70.0163 19.7744 69.9144 20.2329 69.9144 20.757ZM79.5418 21.019C79.5418 19.869 79.782 18.8645 80.2624 18.0056C80.7428 17.1321 81.4197 16.4552 82.2932 15.9748C83.1666 15.4944 84.1857 15.2542 85.3503 15.2542C86.5149 15.2542 87.5266 15.4944 88.3856 15.9748C89.259 16.4552 89.9359 17.1321 90.4163 18.0056C90.8967 18.8645 91.1369 19.869 91.1369 21.019C91.1369 22.1691 90.8967 23.1736 90.4163 24.0325C89.9359 24.8914 89.259 25.561 88.3856 26.0414C87.5266 26.5218 86.5149 26.762 85.3503 26.762C84.1857 26.762 83.1666 26.5218 82.2932 26.0414C81.4197 25.561 80.7428 24.8914 80.2624 24.0325C79.782 23.1736 79.5418 22.1691 79.5418 21.019ZM82.9264 20.9972C82.9264 21.5504 83.0283 22.0381 83.2321 22.4603C83.4359 22.8679 83.7198 23.1881 84.0838 23.4211C84.4477 23.6394 84.8699 23.7486 85.3503 23.7486C85.8307 23.7486 86.2529 23.6394 86.6168 23.4211C86.9807 23.1881 87.2573 22.8679 87.4466 22.4603C87.6504 22.0381 87.7523 21.5504 87.7523 20.9972C87.7523 20.444 87.6504 19.9636 87.4466 19.556C87.2573 19.1484 86.9807 18.8354 86.6168 18.617C86.2529 18.3841 85.8307 18.2676 85.3503 18.2676C84.8699 18.2676 84.4477 18.3841 84.0838 18.617C83.7198 18.8354 83.4359 19.1484 83.2321 19.556C83.0283 19.9636 82.9264 20.444 82.9264 20.9972ZM92.5514 26.5V15.5818H95.936V26.5H92.5514ZM94.2546 13.8785C93.716 13.8785 93.2574 13.6965 92.8789 13.3326C92.515 12.9541 92.333 12.4955 92.333 11.9569C92.333 11.4183 92.515 10.967 92.8789 10.603C93.2574 10.2391 93.716 10.0571 94.2546 10.0571C94.7787 10.0571 95.2227 10.2391 95.5866 10.603C95.9651 10.967 96.1544 11.4183 96.1544 11.9569C96.1544 12.4955 95.9651 12.9541 95.5866 13.3326C95.2227 13.6965 94.7787 13.8785 94.2546 13.8785ZM98.1246 31.7408V15.5818H101.204L101.378 16.9138C101.684 16.4043 102.172 15.9967 102.841 15.6909C103.511 15.3852 104.232 15.2324 105.003 15.2324C106.022 15.2324 106.91 15.458 107.667 15.9093C108.424 16.3606 109.021 17.0084 109.458 17.8528C109.894 18.6825 110.127 19.687 110.157 20.8662C110.186 22.0162 109.996 23.0426 109.589 23.9451C109.181 24.8331 108.592 25.5319 107.82 26.0414C107.048 26.551 106.117 26.8057 105.025 26.8057C104.268 26.8057 103.562 26.6747 102.907 26.4127C102.252 26.1506 101.764 25.8158 101.444 25.4082V31.7408H98.1246ZM101.509 21.0409C101.509 21.5795 101.618 22.0599 101.837 22.4821C102.07 22.8897 102.383 23.21 102.776 23.4429C103.183 23.6613 103.649 23.7704 104.173 23.7704C104.712 23.7704 105.171 23.654 105.549 23.4211C105.942 23.1881 106.241 22.8679 106.444 22.4603C106.663 22.0526 106.772 21.5795 106.772 21.0409C106.772 20.5022 106.663 20.0291 106.444 19.6215C106.241 19.2139 105.942 18.8936 105.549 18.6607C105.171 18.4278 104.712 18.3113 104.173 18.3113C103.649 18.3113 103.183 18.4278 102.776 18.6607C102.383 18.8791 102.07 19.1921 101.837 19.5997C101.618 20.0073 101.509 20.4877 101.509 21.0409ZM110.733 23.0498H113.769C113.769 23.4283 113.892 23.7268 114.14 23.9451C114.402 24.1635 114.78 24.2727 115.275 24.2727C115.566 24.2727 115.807 24.2363 115.996 24.1635C116.2 24.0907 116.353 23.9888 116.454 23.8578C116.571 23.7122 116.629 23.5521 116.629 23.3774C116.629 23.1881 116.564 23.028 116.433 22.897C116.316 22.766 116.112 22.6641 115.821 22.5913L113.9 22.089C112.822 21.7979 112.058 21.3684 111.607 20.8007C111.155 20.2329 110.93 19.5851 110.93 18.8572C110.93 18.1293 111.112 17.4961 111.476 16.9575C111.854 16.4043 112.364 15.9821 113.004 15.6909C113.645 15.3852 114.365 15.2324 115.166 15.2324C116.374 15.2324 117.364 15.5672 118.136 16.2369C118.922 16.8919 119.337 17.7872 119.381 18.9227H116.345C116.36 18.5442 116.251 18.2458 116.018 18.0274C115.785 17.7945 115.479 17.6781 115.101 17.6781C114.766 17.6781 114.489 17.7654 114.271 17.9401C114.067 18.1002 113.965 18.3259 113.965 18.617C113.965 18.8936 114.067 19.0974 114.271 19.2285C114.475 19.3449 114.751 19.4468 115.101 19.5342L117.044 20.0146C117.947 20.2329 118.631 20.6042 119.097 21.1282C119.563 21.6523 119.795 22.322 119.795 23.1372C119.795 24.2581 119.381 25.1461 118.551 25.8012C117.721 26.4563 116.644 26.7839 115.319 26.7839C113.951 26.7839 112.851 26.4418 112.022 25.7576C111.206 25.0588 110.777 24.1562 110.733 23.0498ZM125.161 26.7839C123.88 26.7839 122.89 26.3835 122.191 25.5829C121.493 24.7822 121.143 23.734 121.143 22.4384V15.5818H124.506V21.2156C124.506 22.2346 124.688 22.9188 125.052 23.2682C125.416 23.6176 125.896 23.7923 126.493 23.7923C127.265 23.7923 127.796 23.5739 128.087 23.1372C128.378 22.7005 128.524 22.0745 128.524 21.2592V15.5818H131.887V26.5H128.721L128.502 25.2772C128.167 25.7284 127.694 26.0924 127.083 26.369C126.471 26.6456 125.831 26.7839 125.161 26.7839ZM137.438 26.5H134.053V15.5818H137.198L137.438 17.4597L137.067 17.0666C137.358 16.5134 137.795 16.0694 138.377 15.7346C138.974 15.3852 139.614 15.2105 140.299 15.2105C141.376 15.2105 142.22 15.4507 142.832 15.9311C143.458 16.4115 143.909 17.0448 144.185 17.8309H143.661C143.836 17.0448 144.258 16.4115 144.928 15.9311C145.598 15.4507 146.398 15.2105 147.33 15.2105C148.742 15.2105 149.783 15.589 150.453 16.346C151.122 17.103 151.457 18.1075 151.457 19.3595V26.5H148.182V20.1893C148.182 19.505 148.014 18.9955 147.679 18.6607C147.359 18.3259 146.93 18.1585 146.391 18.1585C146.071 18.1585 145.765 18.2313 145.474 18.3768C145.183 18.5078 144.942 18.748 144.753 19.0974C144.564 19.4323 144.469 19.9127 144.469 20.5386V26.5H141.15V20.1893C141.15 19.505 140.99 19.0028 140.67 18.6825C140.349 18.3477 139.92 18.1803 139.381 18.1803C139.061 18.1803 138.748 18.2531 138.442 18.3987C138.151 18.5297 137.911 18.7699 137.722 19.1193C137.533 19.4541 137.438 19.9272 137.438 20.5386V26.5Z" fill="#1B3D5B"/>
</g>
<defs>
<linearGradient id="paint0_linear_357_2255" x1="25.2865" y1="9.74268" x2="25.2865" y2="20.5634" gradientUnits="userSpaceOnUse">
<stop stop-color="#25136D"/>
<stop offset="1" stop-color="#3D9BA2"/>
</linearGradient>
<linearGradient id="paint1_linear_357_2255" x1="18.8019" y1="7.19419" x2="24.2123" y2="16.5653" gradientUnits="userSpaceOnUse">
<stop stop-color="#25136D"/>
<stop offset="1" stop-color="#3D9BA2"/>
</linearGradient>
<linearGradient id="paint2_linear_357_2255" x1="11.9116" y1="8.22946" x2="21.2827" y2="13.6398" gradientUnits="userSpaceOnUse">
<stop stop-color="#25136D"/>
<stop offset="1" stop-color="#3D9BA2"/>
</linearGradient>
<linearGradient id="paint3_linear_357_2255" x1="6.4617" y1="12.5714" x2="17.2825" y2="12.5714" gradientUnits="userSpaceOnUse">
<stop stop-color="#25136D"/>
<stop offset="1" stop-color="#3D9BA2"/>
</linearGradient>
<linearGradient id="paint4_linear_357_2255" x1="3.91251" y1="19.0563" x2="13.2836" y2="13.6459" gradientUnits="userSpaceOnUse">
<stop stop-color="#25136D"/>
<stop offset="1" stop-color="#3D9BA2"/>
</linearGradient>
<linearGradient id="paint5_linear_357_2255" x1="4.94677" y1="25.9466" x2="10.3572" y2="16.5755" gradientUnits="userSpaceOnUse">
<stop stop-color="#25136D"/>
<stop offset="1" stop-color="#3D9BA2"/>
</linearGradient>
<linearGradient id="paint6_linear_357_2255" x1="9.28766" y1="31.397" x2="9.28766" y2="20.5762" gradientUnits="userSpaceOnUse">
<stop stop-color="#25136D"/>
<stop offset="1" stop-color="#3D9BA2"/>
</linearGradient>
<linearGradient id="paint7_linear_357_2255" x1="15.7719" y1="33.9463" x2="10.3615" y2="24.5752" gradientUnits="userSpaceOnUse">
<stop stop-color="#25136D"/>
<stop offset="1" stop-color="#3D9BA2"/>
</linearGradient>
<linearGradient id="paint8_linear_357_2255" x1="22.6625" y1="32.912" x2="13.2914" y2="27.5015" gradientUnits="userSpaceOnUse">
<stop stop-color="#25136D"/>
<stop offset="1" stop-color="#3D9BA2"/>
</linearGradient>
<linearGradient id="paint9_linear_357_2255" x1="28.1126" y1="28.571" x2="17.2918" y2="28.571" gradientUnits="userSpaceOnUse">
<stop stop-color="#25136D"/>
<stop offset="1" stop-color="#3D9BA2"/>
</linearGradient>
<linearGradient id="paint10_linear_357_2255" x1="30.662" y1="22.087" x2="21.2909" y2="27.4974" gradientUnits="userSpaceOnUse">
<stop stop-color="#25136D"/>
<stop offset="1" stop-color="#3D9BA2"/>
</linearGradient>
<linearGradient id="paint11_linear_357_2255" x1="29.6277" y1="15.1963" x2="24.2173" y2="24.5674" gradientUnits="userSpaceOnUse">
<stop stop-color="#25136D"/>
<stop offset="1" stop-color="#3D9BA2"/>
</linearGradient>
<clipPath id="clip0_357_2255">
<rect width="153" height="38" fill="white" transform="translate(0 0.5)"/>
</clipPath>
</defs>
</svg>
