<svg width="148" height="62" viewBox="0 0 148 62" fill="none" xmlns="http://www.w3.org/2000/svg">
<path d="M74.2301 20.4545C74.8346 20.446 75.3486 20.333 75.3402 19.7116V19.6184C75.3486 18.9998 74.8346 18.8868 74.2301 18.8784C73.6229 18.8868 73.1088 18.9998 73.1173 19.6184V19.7116C73.1088 20.333 73.6229 20.446 74.2301 20.4545Z" fill="#394149"/>
<path d="M52.1307 19.2057C52.1307 19.0249 51.9867 18.8809 51.8059 18.8809H50.001V19.5277H51.8059C51.8963 19.5277 51.9725 19.4966 52.0347 19.4345C52.0996 19.3695 52.1307 19.2933 52.1307 19.2057Z" fill="#394149"/>
<path d="M62.2906 18.8726L62.8104 19.994H61.7681L62.2906 18.8726Z" fill="#394149"/>
<path d="M85.48 18.8726L85.9999 19.994H84.9575L85.48 18.8726Z" fill="#394149"/>
<path d="M48.5568 42.4857L47.7886 40.8281L47.0161 42.4857H48.5568Z" fill="#394149"/>
<path d="M66.6864 42.0095C66.6864 42.5732 66.3649 43.0367 65.7971 43.0367H63.4004V40.9824H65.7971C66.3649 40.9824 66.6864 41.4417 66.6864 42.0095Z" fill="#394149"/>
<path d="M72.7574 40.8281L73.5257 42.4857H71.9849L72.7574 40.8281Z" fill="#394149"/>
<path d="M82.0939 40.8403C82.3611 40.8403 82.574 41.0533 82.574 41.3205C82.574 41.4499 82.5281 41.5627 82.4321 41.6587C82.3402 41.7506 82.2275 41.7965 82.0939 41.7965H79.4258V40.8403H82.0939Z" fill="#394149"/>
<path d="M90.9208 42.0095C90.9208 42.5732 90.5988 43.0367 90.0308 43.0367H87.6338V40.9824H90.0308C90.5988 40.9824 90.9208 41.4417 90.9208 42.0095Z" fill="#394149"/>
<path d="M38.4122 31.5474L35.6276 25.1182H30.8501V35.8335H34.3308V30.0459L36.8424 35.8335H39.9547L42.4936 30.0459V35.8335H45.9607V25.1182H41.3333L38.4122 31.5474Z" fill="#394149"/>
<path d="M60.1665 35.8335V33.1717H52.4815V31.7794H59.8526V29.1723H52.4815V27.7936H60.071V25.1182H48.8779V35.8335H60.1665Z" fill="#394149"/>
<path d="M63.1029 33.9358C64.1676 35.3145 66.0649 35.997 68.3445 35.997C70.0564 35.997 71.3112 35.6493 72.1854 35.0979C72.3358 35.003 72.475 34.902 72.6033 34.7958L72.6989 35.8332H75.6336V29.4859H68.5083V31.7928H72.3167C72.2999 31.902 72.2417 32.0734 72.158 32.2367C72.1058 32.3387 72.0436 32.4375 71.9754 32.5162C71.5796 32.9803 70.5285 33.3898 69.1635 33.3898C67.7439 33.3898 66.8293 33.0213 66.3379 32.448C66.0103 32.0248 65.8192 31.4242 65.8192 30.5233C65.8192 29.5815 66.0103 28.9399 66.3789 28.5168C66.9112 27.9162 67.8121 27.6568 69.1362 27.6568C70.3238 27.6568 71.1428 27.9298 71.525 28.2711C71.7707 28.4758 71.9618 28.7625 72.0027 28.9536H75.5381C75.5331 28.8276 75.515 28.6736 75.4846 28.5097C75.4326 28.2296 75.3447 27.9201 75.2241 27.6705C74.3778 25.9505 72.4122 24.9268 69.068 24.9268C66.1605 24.9268 64.2085 25.814 63.1302 27.1518C62.4204 28.0663 62.0928 29.2129 62.0928 30.496C62.0928 31.9156 62.475 33.1305 63.1029 33.9358Z" fill="#394149"/>
<path d="M66.2632 30.5232C66.2632 29.6325 66.4453 29.1174 66.7125 28.8097C67.1144 28.3574 67.8477 28.1006 69.1363 28.1006C70.2821 28.1006 70.9677 28.3684 71.2294 28.6021L71.2351 28.6071L71.2409 28.612C71.3309 28.687 71.4132 28.7794 71.4754 28.8695C71.5369 28.9585 71.5615 29.0203 71.5676 29.0419H68.0645V32.2366H71.6304C71.5027 32.3809 71.2286 32.561 70.7931 32.7057C70.3596 32.8497 69.8033 32.9458 69.1636 32.9458C67.8148 32.9458 67.0562 32.5967 66.6823 32.1673C66.4379 31.8469 66.2632 31.3555 66.2632 30.5232Z" fill="#394149"/>
<path d="M84.9071 29.0664L83.8901 31.008H85.8679L84.9071 29.0664Z" fill="#394149"/>
<path fill-rule="evenodd" clip-rule="evenodd" d="M87.7428 33.8542L88.6848 35.8335H92.6298L87.2238 25.1182H82.8151L77.0957 35.8335H80.9587L81.9551 33.8542H87.7428ZM83.1563 31.4518L84.5077 28.872L84.9172 27.8892L85.2994 28.8583L86.5828 31.4518H83.1563Z" fill="#394149"/>
<path fill-rule="evenodd" clip-rule="evenodd" d="M116.226 54.387H116.22C116.144 54.387 116.068 54.3866 115.992 54.3858V54.387H32.4999C25.1323 54.387 18.5604 50.9801 14.2737 45.6559H26.5751V44.0967H13.1211C11.114 41.1327 9.76909 37.6838 9.29869 33.9623H26.5751V32.4032H9.15419C9.12669 31.9389 9.11279 31.471 9.11279 30.9999C9.11279 27.9133 9.71069 24.9665 10.7971 22.2687H26.5751V20.7096H11.4925C13.1453 17.3418 15.584 14.4296 18.5697 12.2123H102.295C103.339 11.4371 104.45 10.7468 105.617 10.1516C105.302 10.312 104.992 10.4792 104.686 10.6531H20.9604C24.3653 8.71789 28.3035 7.61279 32.4998 7.61279H115.992V7.61389C116.07 7.61312 116.148 7.61279 116.226 7.61279C129.142 7.61279 139.613 18.0835 139.613 30.9999C139.613 43.9162 129.142 54.387 116.226 54.387ZM124.922 41.9687C125.969 38.8141 126.594 35.0672 126.594 30.9999C126.594 27.2082 126.05 23.6949 125.129 20.6803C125.016 20.3122 124.898 19.9516 124.775 19.5988C124.569 19.0112 124.348 18.4454 124.114 17.9032C123.798 17.171 123.458 16.4818 123.097 15.8402C121.391 12.8129 119.445 11.1825 117.629 10.6336V17.9032H122.405C122.809 18.7653 123.178 19.704 123.504 20.7096H117.629V29.5966H125.009C125.026 30.0591 125.035 30.527 125.035 30.9999C125.035 31.4728 125.026 31.9407 125.009 32.4031H117.629V41.2902H123.503C123.178 42.2958 122.809 43.2345 122.405 44.0966H117.629V51.3663C119.445 50.8175 121.391 49.187 123.097 46.1596C123.458 45.518 123.799 44.8288 124.114 44.0966C124.405 43.4226 124.675 42.7121 124.922 41.9687ZM128.06 20.7096C128.809 23.4186 129.272 26.4224 129.377 29.5966H136.759C136.542 26.3746 135.583 23.3559 134.053 20.7096H128.06ZM132.102 17.9032H127.143C126.243 15.5448 125.107 13.4934 123.795 11.856C127.055 13.1459 129.906 15.244 132.102 17.9032ZM114.823 10.6333V17.9032H108.337C108.653 17.171 108.993 16.4818 109.355 15.8402C111.06 12.8124 113.007 11.1818 114.823 10.6333ZM108.656 11.8559C107.344 13.4933 106.209 15.5447 105.309 17.9032H100.349C102.545 15.2439 105.397 13.1457 108.656 11.8559ZM104.391 20.7096H95.4109V22.2687H97.5839C96.5278 24.5188 95.8674 26.9912 95.692 29.5966H103.074C103.18 26.4224 103.642 23.4186 104.391 20.7096ZM114.823 20.7096H107.314C106.512 23.3418 105.999 26.3528 105.883 29.5966H114.823V20.7096ZM129.377 32.4031C129.272 35.5773 128.809 38.5811 128.06 41.2902H134.053C135.583 38.6439 136.542 35.6251 136.759 32.4031H129.377ZM107.314 41.2902C106.512 38.658 105.999 35.6469 105.883 32.4031H114.823V41.2902H107.314ZM104.391 41.2902C103.642 38.5811 103.18 35.5773 103.074 32.4031H95.692C95.909 35.6251 96.8676 38.6439 98.3983 41.2902H104.391ZM127.143 44.0966C126.243 46.455 125.107 48.5063 123.796 50.1437C127.055 48.8538 129.906 46.7557 132.102 44.0966H127.143ZM108.337 44.0966H114.823V51.3666C113.007 50.8181 111.06 49.1875 109.355 46.1596C108.993 45.518 108.653 44.8288 108.337 44.0966ZM105.309 44.0966L95.4109 44.0967V45.6558H101.777C103.729 47.5804 106.063 49.1179 108.656 50.1439C107.344 48.5065 106.209 46.4551 105.309 44.0966ZM74.2298 17.6749C72.8006 17.6777 71.6312 18.0901 71.6369 19.5278V19.8046C71.6312 21.2395 72.8006 21.6547 74.2298 21.6575C75.6562 21.6547 76.8256 21.2395 76.8199 19.8046V19.5278C76.8199 18.0929 75.659 17.6749 74.2298 17.6749ZM29.8278 17.7681V21.5643H31.3079V17.7681H29.8278ZM35.7961 19.7792L34.1296 17.7681H32.0931V21.5643H33.5732V19.2454L35.6125 21.5643H37.279V17.7681H35.7961V19.7792ZM41.0328 18.977V21.57H39.5528V18.977H37.7931V17.7738H42.7925V18.977H41.0328ZM43.2897 21.57H47.7327V20.5955H44.7697V20.1097H47.7327V19.2312H44.7697V18.7454H47.7327V17.7738H43.2897V21.57ZM48.5207 21.5671V17.7709H52.1785C52.9609 17.7625 53.6247 18.4206 53.6134 19.2058C53.6134 19.4911 53.5371 19.7509 53.3846 19.9826C53.2349 20.2113 53.0344 20.3865 52.7858 20.5023L53.6134 21.5671H52.0373L51.3227 20.6407H50.0008V21.5671H48.5207ZM57.7768 19.7792L56.1103 17.7681H54.0738V21.5643H55.5539V19.2454L57.5932 21.5643H59.2597V17.7681H57.7768V19.7792ZM61.0392 21.57H59.3727L61.4092 17.7738H63.1689L65.2054 21.57H63.5389L63.2395 20.9203H61.3386L61.0392 21.57ZM67.465 21.57V18.977H69.2247V17.7738H64.2253V18.977H65.985V21.57H67.465ZM69.7218 21.5643V17.7681H71.2019V21.5643H69.7218ZM79.2999 17.7681L80.9664 19.7792V17.7681H82.4493V21.5643H80.7828L78.7435 19.2454V21.5643H77.2634V17.7681H79.2999ZM82.5623 21.57H84.2287L84.5282 20.9203H86.4289L86.7289 21.57H88.3949L86.3589 17.7738H84.5988L82.5623 21.57ZM88.5109 21.5643V17.7681H89.9909V20.361H92.9539V21.5643H88.5109ZM33.6628 40.4979C32.9822 40.4979 32.1471 40.5982 32.1471 41.0449C32.1471 41.2913 32.8277 41.3247 33.7087 41.3664L33.7184 41.3669C35.2836 41.4462 37.4749 41.5572 37.4708 42.9614C37.4708 44.5648 35.6336 44.9448 33.6628 44.9448C31.6962 44.9406 30.0636 44.7026 29.8548 42.9614H32.1471C32.3976 43.3957 32.978 43.5084 33.6628 43.5084C34.3434 43.5084 35.1785 43.3957 35.1785 42.9614C35.1785 42.7151 34.4979 42.6775 33.6169 42.6358L33.6071 42.6353C32.0419 42.556 29.8506 42.445 29.8548 41.0449C29.8548 39.4416 31.692 39.0574 33.6628 39.0574C35.6294 39.0699 37.262 39.2912 37.4708 41.0449H35.1785C34.9279 40.6023 34.3476 40.4979 33.6628 40.4979ZM42.3268 40.9823V44.8153H40.1389V40.9823H37.5376V39.2036H44.9281V40.9823H42.3268ZM43.475 44.8153H45.9385L46.3811 43.855H49.1912L49.6338 44.8153H52.0973L49.0868 39.2036H46.4855L43.475 44.8153ZM55.279 39.1952L57.7425 42.1681V39.1952H59.9346V44.807H57.4711L54.4564 41.379V44.807H52.2685V39.1952H55.279ZM61.2122 39.2036V44.8153H66.2061C67.7468 44.8362 68.8909 43.5335 68.8783 42.0094C68.8909 40.4771 67.7468 39.1827 66.2061 39.2036H61.2122ZM70.9076 44.8153H68.4441L71.4546 39.2036H74.0559L77.0663 44.8153H74.6028L74.1602 43.855H71.3502L70.9076 44.8153ZM77.2375 39.1994V44.8112H79.4255V43.4416H81.3796L82.4359 44.8112H84.7658L83.5424 43.237C83.9099 43.0658 84.2063 42.807 84.4276 42.4687C84.6531 42.1264 84.7658 41.7422 84.7658 41.3205C84.7825 40.1597 83.8013 39.1869 82.6447 39.1994H77.2375ZM85.4464 44.8153V39.2036H90.4399C91.9809 39.1827 93.1249 40.4771 93.1129 42.0094C93.1249 43.5335 91.9809 44.8362 90.4399 44.8153H85.4464ZM46.4043 36.2771H42.0494V32.1625L40.2444 36.2771H36.5509L34.7744 32.1836V36.2771H30.4059V24.674H35.9188L38.4216 30.4526L41.0471 24.674H46.4043V36.2771ZM60.6105 36.2771H48.4341V24.674H60.515V28.2372H52.9255V28.7281H60.2966V32.223H52.9255V32.7275H60.6105V36.2771ZM76.0775 36.2771H72.2939L72.2304 35.5882C71.2819 36.1269 69.9979 36.4409 68.3444 36.4409C65.9922 36.4409 63.9338 35.7374 62.7521 34.2081C62.0491 33.306 61.6488 31.9873 61.6488 30.496C61.6488 29.1373 61.9964 27.8884 62.7794 26.8796L62.7819 26.8763L62.7845 26.8732C63.9739 25.3976 66.0757 24.4829 69.0679 24.4829C72.4878 24.4829 74.6675 25.5339 75.6223 27.4745L75.6231 27.476L75.6238 27.4775C75.8458 27.9373 75.9659 28.5448 75.9815 28.9358L75.9858 29.042H76.0775V36.2771ZM82.2287 34.2978L81.2323 36.2771H76.3557L82.5489 24.674H87.4979L93.3509 36.2771H88.4039L87.4629 34.2978H82.2287ZM29.7714 50.5671H93.3059V49.0079H29.7714V50.5671Z" fill="#394149"/>
<path fill-rule="evenodd" clip-rule="evenodd" d="M32.5 2H116.226C132.242 2 145.226 14.9837 145.226 31C145.226 47.0163 132.242 60 116.226 60H32.5C16.4837 60 3.5 47.0163 3.5 31C3.5 14.9837 16.4837 2 32.5 2ZM32.5 4.8065C18.0337 4.8065 6.3065 16.5337 6.3065 31C6.3065 45.4663 18.0337 57.1936 32.5 57.1936H116.226C130.692 57.1936 142.419 45.4663 142.419 31C142.419 16.5337 130.692 4.8065 116.226 4.8065H32.5Z" fill="#394149"/>
</svg>
