<svg width="82" height="80" viewBox="0 0 82 80" fill="none" xmlns="http://www.w3.org/2000/svg">
<g opacity="0.56" filter="url(#filter0_d_0_2331)">
<rect x="18" y="16" width="42" height="40" rx="20" fill="white" shape-rendering="crispEdges"/>
<g clip-path="url(#clip0_0_2331)">
<path d="M46 35.9991C46 35.6731 45.841 35.3671 45.573 35.1801L35.573 28.1801C35.269 27.9661 34.869 27.9421 34.538 28.1121C34.207 28.2851 34 28.6261 34 28.9991V43.0001C34 43.3731 34.207 43.7151 34.538 43.8871C34.869 44.0571 35.268 44.0331 35.573 43.8191L45.573 36.8191C45.841 36.6331 46 36.3271 46 36.0011C46 36.0001 46 36.0001 46 35.9991C46 36.0001 46 36.0001 46 35.9991Z" fill="#212121"/>
</g>
</g>
<defs>
<filter id="filter0_d_0_2331" x="0" y="0" width="82" height="80" filterUnits="userSpaceOnUse" color-interpolation-filters="sRGB">
<feFlood flood-opacity="0" result="BackgroundImageFix"/>
<feColorMatrix in="SourceAlpha" type="matrix" values="0 0 0 0 0 0 0 0 0 0 0 0 0 0 0 0 0 0 127 0" result="hardAlpha"/>
<feOffset dx="2" dy="4"/>
<feGaussianBlur stdDeviation="10"/>
<feComposite in2="hardAlpha" operator="out"/>
<feColorMatrix type="matrix" values="0 0 0 0 0.0156863 0 0 0 0 0.0588235 0 0 0 0 0.0862745 0 0 0 0.1 0"/>
<feBlend mode="normal" in2="BackgroundImageFix" result="effect1_dropShadow_0_2331"/>
<feBlend mode="normal" in="SourceGraphic" in2="effect1_dropShadow_0_2331" result="shape"/>
</filter>
<clipPath id="clip0_0_2331">
<rect width="16" height="16" fill="white" transform="translate(32 28)"/>
</clipPath>
</defs>
</svg>
