<svg width="83" height="95" viewBox="0 0 83 95" fill="none" xmlns="http://www.w3.org/2000/svg">
<g filter="url(#filter0_d_1318_5843)">
<path d="M41.5003 7.45801C35.3466 7.46125 29.3319 9.28812 24.216 12.7079C19.1 16.1276 15.1123 20.9868 12.7564 26.6717C10.4006 32.3566 9.78243 38.6121 10.9799 44.6482C12.1774 50.6842 15.1369 56.2299 19.4845 60.5849C25.1216 66.222 38.3878 74.3768 39.1728 82.943C39.2904 84.2226 40.2207 85.2705 41.5003 85.2705C42.7799 85.2705 43.7136 84.2226 43.8277 82.943C44.6128 74.3768 57.8686 66.2358 63.5022 60.6022C67.8549 56.249 70.8193 50.703 72.0207 44.6653C73.222 38.6276 72.6064 32.3693 70.2516 26.6814C67.8968 20.9935 63.9085 16.1315 58.791 12.7098C53.6734 9.28819 47.6563 7.46057 41.5003 7.45801Z" fill="#EF5164"/>
<path d="M41.4998 49.232C40.1014 49.232 38.7168 48.9565 37.4249 48.4214C36.133 47.8863 34.9591 47.102 33.9704 46.1132C32.9816 45.1244 32.1972 43.9506 31.6621 42.6587C31.127 41.3667 30.8516 39.9821 30.8516 38.5838C30.8516 37.1854 31.127 35.8008 31.6621 34.5089C32.1972 33.217 32.9816 32.0431 33.9704 31.0543C34.9591 30.0656 36.133 29.2812 37.4249 28.7461C38.7168 28.211 40.1014 27.9355 41.4998 27.9355C44.3239 27.9355 47.0323 29.0574 49.0292 31.0543C51.0261 33.0513 52.148 35.7597 52.148 38.5838C52.148 41.4078 51.0261 44.1163 49.0292 46.1132C47.0323 48.1101 44.3239 49.232 41.4998 49.232Z" fill="white"/>
</g>
<defs>
<filter id="filter0_d_1318_5843" x="-8" y="-3" width="99" height="99" filterUnits="userSpaceOnUse" color-interpolation-filters="sRGB">
<feFlood flood-opacity="0" result="BackgroundImageFix"/>
<feColorMatrix in="SourceAlpha" type="matrix" values="0 0 0 0 0 0 0 0 0 0 0 0 0 0 0 0 0 0 127 0" result="hardAlpha"/>
<feOffset dy="1"/>
<feGaussianBlur stdDeviation="4"/>
<feComposite in2="hardAlpha" operator="out"/>
<feColorMatrix type="matrix" values="0 0 0 0 0.0941417 0 0 0 0 0.0847917 0 0 0 0 0.0985417 0 0 0 0.1 0"/>
<feBlend mode="normal" in2="BackgroundImageFix" result="effect1_dropShadow_1318_5843"/>
<feBlend mode="normal" in="SourceGraphic" in2="effect1_dropShadow_1318_5843" result="shape"/>
</filter>
</defs>
</svg>
