<svg width="552" height="278" viewBox="0 0 552 278" fill="none" xmlns="http://www.w3.org/2000/svg">
<rect x="4" y="4" width="183" height="249" rx="7" fill="white" stroke="#ACB2BE" stroke-width="2"/>
<path d="M235.163 131.119H224.636V125.464H235.163V114.85H240.731V125.464H251.345V131.119H240.731V141.646H235.163V131.119Z" fill="#A0A4AB"/>
<path fill-rule="evenodd" clip-rule="evenodd" d="M487.722 101.489H281.587V222.189C281.587 225.066 283.904 227.399 286.762 227.399H482.547C485.405 227.399 487.722 225.066 487.722 222.189V101.489ZM279 98.8838V222.189C279 226.505 282.475 230.004 286.762 230.004H482.547C486.834 230.004 490.309 226.505 490.309 222.189V98.8838H279Z" fill="#ACB2BE"/>
<path fill-rule="evenodd" clip-rule="evenodd" d="M487.844 98.9054L503.352 16.021C503.838 13.4244 501.414 11.0805 498.243 11.0805L270.757 11.0805C267.586 11.0805 265.162 13.4243 265.648 16.021L281.156 98.9054L487.844 98.9054ZM278.941 101.047L490.059 101.047L505.907 16.3492C506.636 12.4542 503 8.93845 498.243 8.93845L270.757 8.93843C266 8.93843 262.364 12.4542 263.093 16.3492L278.941 101.047Z" fill="#ACB2BE"/>
<path fill-rule="evenodd" clip-rule="evenodd" d="M338.177 192.952C338.198 192.984 338.228 193.006 338.263 193.016C344.036 194.442 357.458 199.01 357.458 210.415C357.458 211.012 357.237 211.584 356.844 212.006C356.451 212.428 355.918 212.666 355.361 212.666H298.871C298.315 212.666 297.782 212.428 297.388 212.006C296.995 211.584 296.774 211.012 296.774 210.415C296.774 199.01 310.196 194.442 315.963 192.957C315.998 192.948 316.029 192.926 316.051 192.894C316.072 192.863 316.083 192.824 316.08 192.785V190.37C314.745 188.493 313.751 186.364 313.147 184.093C311.653 182.508 310.988 180.002 310.623 178.628L310.614 178.595C310.03 176.371 309.44 173.156 311.057 170.859L311.131 170.76C311.02 170.1 310.946 169.44 310.897 168.78C310.172 163.573 310.731 159.685 312.576 157.249C313.566 155.919 314.998 155.051 316.572 154.827C317.513 151.355 322.099 147.956 326.268 148.887C330.019 149.721 337.495 148.908 338.691 148.778C338.791 148.768 338.847 148.761 338.853 148.761C338.962 148.752 339.07 148.787 339.155 148.86C339.196 148.898 339.23 148.944 339.254 148.997C339.279 149.049 339.293 149.106 339.296 149.164C339.312 149.764 339.216 150.362 339.012 150.921C338.808 151.48 338.501 151.989 338.109 152.418C344.854 157.249 343.883 166.78 343.102 170.813L343.176 170.919C344.793 173.222 344.233 176.437 343.618 178.654L343.615 178.665C343.252 180.033 342.582 182.559 341.079 184.159C340.472 186.414 339.478 188.527 338.146 190.39V192.845C338.145 192.883 338.156 192.921 338.177 192.952ZM323.504 194.825C325.841 195.712 328.387 195.713 330.724 194.827C331.685 194.45 332.604 193.952 333.46 193.342L334.897 192.319L335.428 193.998C335.682 194.802 336.198 195.452 336.849 195.84L338.02 196.538L337.249 197.66C336.09 199.345 334.568 200.718 332.801 201.658C331.04 202.594 329.091 203.07 327.115 203.041C325.138 203.067 323.188 202.588 321.427 201.648C319.66 200.705 318.139 199.327 316.983 197.638L316.215 196.517L317.383 195.82C318.026 195.436 318.538 194.796 318.795 194.003L319.332 192.343L320.758 193.354C321.617 193.963 322.539 194.457 323.504 194.825ZM313.026 172.594L313.018 172.606L313.01 172.617C312.401 173.477 312.24 175.016 312.996 177.878C313.486 179.734 313.958 180.865 314.399 181.563C314.67 181.993 314.986 182.343 315.354 182.559C316.09 186.559 318.923 191.547 323.857 193.407C325.967 194.21 328.274 194.21 330.384 193.406L330.39 193.403C335.106 191.576 338.129 186.668 338.895 182.576C339.287 182.348 339.603 181.975 339.853 181.58C340.293 180.881 340.765 179.747 341.255 177.891C342.011 175.029 341.85 173.491 341.241 172.63L341.217 172.596L341.191 172.563C340.956 172.273 340.65 172.041 340.295 171.897C340.389 171.324 340.459 170.54 340.373 169.67C340.228 168.216 339.633 166.46 337.936 165.113L337.447 164.725L336.84 164.87C334.738 165.371 331.123 165.571 326.137 163.264L326.133 163.262C323.352 161.988 320.691 161.799 318.507 163.229C316.435 164.58 315.371 167.022 314.815 168.89C314.472 170.041 314.286 171.103 314.192 171.799C314.073 171.831 313.957 171.873 313.844 171.925C313.515 172.078 313.236 172.311 313.026 172.594Z" fill="#ACB2BE"/>
<path fill-rule="evenodd" clip-rule="evenodd" d="M371.545 156.858C371.545 158.354 372.911 159.567 374.596 159.567L448.684 159.567C450.369 159.567 451.734 158.354 451.734 156.858C451.734 155.362 450.369 154.149 448.684 154.149L374.596 154.149C372.911 154.149 371.545 155.362 371.545 156.858Z" fill="#ACB2BE"/>
<path fill-rule="evenodd" clip-rule="evenodd" d="M373.713 201.829C373.713 203.026 374.483 203.997 375.433 203.997L455.432 203.997C456.383 203.997 457.153 203.026 457.153 201.829C457.153 200.632 456.383 199.662 455.432 199.662L375.433 199.662C374.483 199.662 373.713 200.632 373.713 201.829Z" fill="#ACB2BE"/>
<path fill-rule="evenodd" clip-rule="evenodd" d="M371.545 171.487C371.545 173.283 372.904 174.738 374.58 174.738L411.857 174.738C413.532 174.738 414.891 173.283 414.891 171.487C414.891 169.692 413.532 168.236 411.857 168.236L374.58 168.236C372.904 168.236 371.545 169.692 371.545 171.487Z" fill="#ACB2BE"/>
<path fill-rule="evenodd" clip-rule="evenodd" d="M373.713 212.124C373.713 213.022 374.479 213.749 375.424 213.749L437.02 213.749C437.965 213.749 438.731 213.022 438.731 212.124C438.731 211.226 437.965 210.498 437.02 210.498L375.424 210.498C374.479 210.498 373.713 211.226 373.713 212.124Z" fill="#ACB2BE"/>
<path fill-rule="evenodd" clip-rule="evenodd" d="M373.713 189.367C373.713 190.265 374.486 190.993 375.439 190.993L422.917 190.993C423.871 190.993 424.644 190.265 424.644 189.367C424.644 188.47 423.871 187.742 422.917 187.742L375.439 187.742C374.486 187.742 373.713 188.47 373.713 189.367Z" fill="#ACB2BE"/>
<path fill-rule="evenodd" clip-rule="evenodd" d="M472.324 123.808C472.324 125.603 470.969 127.058 469.297 127.058L304.136 127.058C302.464 127.058 301.109 125.603 301.109 123.808C301.109 122.012 302.464 120.557 304.136 120.557L469.297 120.557C470.969 120.557 472.324 122.012 472.324 123.808Z" fill="#ACB2BE"/>
<path fill-rule="evenodd" clip-rule="evenodd" d="M417.515 64.41C418.625 62.1287 419.226 59.6924 419.226 57.1618C419.226 44.2946 403.701 33.8636 384.549 33.8636C365.398 33.8636 349.873 44.2946 349.873 57.1618C349.873 59.6924 350.474 62.1287 351.584 64.41C351.836 64.9279 352.114 65.4379 352.418 65.9392C352.418 65.9392 352.418 65.9392 352.418 65.9392C357.577 74.456 370.02 80.46 384.549 80.46H384.557C399.083 80.458 411.522 74.4546 416.681 65.9392C416.681 65.9392 416.681 65.9392 416.681 65.9392C416.984 65.4379 417.263 64.928 417.515 64.41C417.515 64.41 417.515 64.41 417.515 64.41ZM384.549 78.2758C386.097 78.2758 387.619 78.2006 389.107 78.0553C391.396 77.0923 393.6 75.3951 395.503 72.9593C396.87 71.2101 398.02 69.1473 398.878 66.8522C394.255 66.9908 389.462 67.0637 384.55 67.0637C379.637 67.0637 374.844 66.9908 370.221 66.8521C371.079 69.1473 372.229 71.2101 373.595 72.9593C375.499 75.3951 377.703 77.0923 379.991 78.0553C381.48 78.2006 383.001 78.2758 384.549 78.2758ZM369.72 65.3792C374.492 65.5286 379.454 65.6076 384.55 65.6076C389.645 65.6076 394.607 65.5286 399.379 65.3792C400.155 62.8492 400.587 60.0778 400.587 57.1618C400.587 54.246 400.155 51.4748 399.379 48.9449C394.607 48.7954 389.645 48.7164 384.55 48.7164C379.454 48.7164 374.492 48.7954 369.72 48.9449C368.944 51.4748 368.512 54.246 368.512 57.1618C368.512 60.0778 368.944 62.8492 369.72 65.3792ZM367.487 49.0205C366.748 51.5548 366.344 54.298 366.344 57.1618C366.344 60.0258 366.748 62.7691 367.487 65.3036C363.202 65.1477 359.082 64.9345 355.169 64.6705C353.848 62.3375 353.124 59.8065 353.124 57.1618C353.124 54.5173 353.848 51.9864 355.169 49.6535C359.082 49.3895 363.202 49.1764 367.487 49.0205ZM370.221 47.4719C371.079 45.1766 372.229 43.1136 373.595 41.3644C375.499 38.9286 377.703 37.2313 379.991 36.2683C381.48 36.1231 383.001 36.0479 384.549 36.0479C386.097 36.0479 387.619 36.1231 389.107 36.2683C391.396 37.2313 393.6 38.9286 395.503 41.3644C396.87 43.1136 398.02 45.1766 398.878 47.4719C394.255 47.3332 389.462 47.2603 384.55 47.2603C379.637 47.2603 374.844 47.3332 370.221 47.4719ZM401.612 49.0204C402.351 51.5548 402.755 54.298 402.755 57.1618C402.755 60.0258 402.351 62.7691 401.612 65.3036C405.897 65.1477 410.017 64.9345 413.93 64.6705C415.251 62.3375 415.975 59.8065 415.975 57.1618C415.975 54.5173 415.251 51.9864 413.93 49.6535C410.017 49.3895 405.897 49.1763 401.612 49.0204ZM412.96 48.1266C409.186 47.8843 405.233 47.6888 401.136 47.5453C399.552 43.0759 396.896 39.3603 393.59 36.9345C402.155 38.6602 409.183 42.7747 412.96 48.1266ZM412.96 66.1975C409.186 66.4397 405.232 66.6352 401.136 66.7788C399.551 71.248 396.896 74.9634 393.59 77.3891C402.155 75.6635 409.183 71.5491 412.96 66.1975ZM356.139 66.1974C359.916 71.5491 366.944 75.6635 375.509 77.3891C372.203 74.9634 369.547 71.248 367.963 66.7788C363.866 66.6352 359.913 66.4397 356.139 66.1974ZM367.963 47.5453C363.866 47.6888 359.913 47.8843 356.139 48.1266C359.916 42.7747 366.944 38.6602 375.509 36.9345C372.202 39.3603 369.547 43.0759 367.963 47.5453Z" fill="#ACB2BE"/>
<rect x="394.045" y="157.474" width="158" height="98" rx="6" transform="rotate(8.37938 394.045 157.474)" fill="white"/>
<path fill-rule="evenodd" clip-rule="evenodd" d="M544.308 181.566L399.504 160.236C397.39 159.925 395.424 161.389 395.112 163.506L382.594 248.488C382.282 250.605 383.743 252.574 385.857 252.885L530.661 274.215C532.775 274.526 534.741 273.062 535.053 270.945L547.571 185.963C547.883 183.846 546.422 181.877 544.308 181.566ZM399.787 158.319C396.616 157.852 393.666 160.048 393.198 163.224L380.681 248.206C380.213 251.382 382.404 254.335 385.575 254.802L530.379 276.132C533.549 276.599 536.499 274.403 536.967 271.227L549.485 186.245C549.952 183.069 547.761 180.116 544.591 179.649L399.787 158.319Z" fill="#ACB2BE"/>
<path fill-rule="evenodd" clip-rule="evenodd" d="M513.767 248.342C513.777 248.362 513.793 248.379 513.813 248.388C517.174 249.774 524.876 253.76 523.849 260.73C523.795 261.095 523.61 261.425 523.335 261.648C523.059 261.871 522.715 261.968 522.379 261.919L488.234 256.889C487.898 256.84 487.597 256.647 487.397 256.354C487.198 256.061 487.116 255.692 487.17 255.327C488.196 248.357 496.72 246.761 500.339 246.367C500.362 246.364 500.382 246.353 500.398 246.336C500.414 246.319 500.424 246.296 500.426 246.272L500.643 244.796C500.005 243.53 499.596 242.14 499.435 240.699C498.675 239.598 498.498 238.006 498.402 237.134L498.399 237.113C498.246 235.702 498.179 233.685 499.363 232.425L499.417 232.371C499.409 231.958 499.424 231.548 499.454 231.141C499.484 227.894 500.172 225.568 501.506 224.243C502.225 223.518 503.169 223.115 504.14 223.119C505.021 221.081 508.099 219.412 510.535 220.352C512.727 221.196 517.319 221.365 518.054 221.392C518.115 221.394 518.149 221.395 518.153 221.396C518.22 221.4 518.282 221.431 518.327 221.483C518.348 221.51 518.365 221.541 518.375 221.575C518.385 221.609 518.388 221.645 518.385 221.681C518.341 222.05 518.228 222.406 518.055 222.73C517.881 223.053 517.65 223.337 517.375 223.564C521.016 227.117 519.571 232.855 518.736 235.25L518.771 235.321C519.541 236.873 518.914 238.788 518.343 240.088L518.34 240.094C517.997 240.898 517.365 242.382 516.312 243.226C515.743 244.55 514.951 245.753 513.979 246.773L513.758 248.273C513.754 248.297 513.757 248.321 513.767 248.342ZM504.729 248.18C506.062 248.93 507.601 249.157 509.093 248.824C509.708 248.679 510.308 248.456 510.881 248.16L511.841 247.662L512.011 248.736C512.092 249.25 512.346 249.693 512.704 249.988L513.349 250.519L512.782 251.136C511.93 252.062 510.886 252.766 509.734 253.183C508.585 253.598 507.364 253.716 506.173 253.522C504.975 253.362 503.839 252.895 502.86 252.164C501.877 251.43 501.081 250.453 500.534 249.318L500.171 248.565L500.94 248.243C501.363 248.065 501.73 247.72 501.957 247.258L502.431 246.291L503.202 247.036C503.666 247.485 504.179 247.868 504.729 248.18ZM500.397 233.661L500.391 233.667L500.385 233.674C499.94 234.145 499.704 235.071 499.903 236.887C500.032 238.065 500.216 238.798 500.42 239.264C500.545 239.551 500.704 239.793 500.907 239.958C500.992 242.468 502.256 245.769 505.07 247.344C506.273 248.023 507.668 248.228 509.015 247.925L509.02 247.924C512.035 247.227 514.303 244.496 515.135 242.064C515.392 241.96 515.617 241.76 515.803 241.541C516.133 241.153 516.52 240.502 516.983 239.411C517.697 237.73 517.739 236.775 517.448 236.195L517.437 236.172L517.424 236.15C517.308 235.952 517.144 235.783 516.942 235.663C517.051 235.321 517.164 234.848 517.19 234.309C517.233 233.408 517.032 232.281 516.127 231.307L515.867 231.026L515.486 231.061C514.171 231.18 511.968 230.98 509.162 229.126L509.159 229.125C507.593 228.098 506.002 227.746 504.553 228.426C503.179 229.067 502.316 230.465 501.812 231.556C501.501 232.229 501.293 232.862 501.173 233.279C501.099 233.287 501.025 233.303 500.952 233.325C500.739 233.389 500.55 233.507 500.397 233.661Z" fill="#ACB2BE"/>
<path fill-rule="evenodd" clip-rule="evenodd" d="M486.259 222.789C486.097 223.89 484.959 224.634 483.718 224.451L441.966 218.301C440.724 218.118 439.849 217.077 440.011 215.976C440.174 214.876 441.312 214.131 442.553 214.314L484.305 220.464C485.547 220.647 486.422 221.688 486.259 222.789Z" fill="#ACB2BE"/>
<path fill-rule="evenodd" clip-rule="evenodd" d="M481.704 248.187C481.606 248.848 480.956 249.299 480.252 249.196L434.96 242.524C434.256 242.42 433.763 241.801 433.861 241.14C433.958 240.48 434.608 240.028 435.313 240.132L480.604 246.803C481.309 246.907 481.801 247.527 481.704 248.187Z" fill="#ACB2BE"/>
<path fill-rule="evenodd" clip-rule="evenodd" d="M485.026 231.161C484.832 232.482 483.674 233.406 482.441 233.225L461.39 230.124C460.157 229.942 459.315 228.724 459.51 227.403C459.705 226.082 460.862 225.158 462.095 225.34L483.146 228.44C484.379 228.622 485.221 229.84 485.026 231.161Z" fill="#ACB2BE"/>
<path fill-rule="evenodd" clip-rule="evenodd" d="M480.881 253.769C480.784 254.43 480.136 254.882 479.435 254.778L444.499 249.632C443.797 249.529 443.307 248.91 443.404 248.249C443.502 247.588 444.149 247.137 444.851 247.24L479.787 252.386C480.489 252.489 480.979 253.109 480.881 253.769Z" fill="#ACB2BE"/>
<path fill-rule="evenodd" clip-rule="evenodd" d="M482.761 241.011C482.663 241.672 482.01 242.122 481.302 242.018L454.364 238.05C453.656 237.946 453.16 237.326 453.258 236.665C453.355 236.005 454.008 235.554 454.717 235.658L481.654 239.626C482.363 239.73 482.858 240.35 482.761 241.011Z" fill="#ACB2BE"/>
<path fill-rule="evenodd" clip-rule="evenodd" d="M536.433 191.889C536.271 192.99 535.14 193.736 533.907 193.554L429.929 178.238C428.696 178.056 427.828 177.017 427.99 175.916C428.152 174.815 429.283 174.069 430.516 174.251L534.494 189.567C535.727 189.749 536.595 190.788 536.433 191.889Z" fill="#ACB2BE"/>
<path fill-rule="evenodd" clip-rule="evenodd" d="M535.141 200.661C534.979 201.762 533.85 202.507 532.619 202.326L461.324 191.824C460.094 191.643 459.228 190.604 459.39 189.503C459.552 188.402 460.681 187.656 461.911 187.838L533.206 198.339C534.437 198.52 535.303 199.56 535.141 200.661Z" fill="#ACB2BE"/>
<path fill-rule="evenodd" clip-rule="evenodd" d="M424.929 199.468L405.833 196.655C405.13 196.551 404.476 197.037 404.372 197.741L402.31 211.744C402.206 212.447 402.692 213.101 403.395 213.205L422.491 216.017C423.194 216.121 423.848 215.635 423.951 214.932L426.014 200.928C426.118 200.225 425.632 199.571 424.929 199.468ZM406.114 194.745C404.357 194.486 402.722 195.702 402.463 197.459L400.4 211.463C400.141 213.22 401.356 214.855 403.114 215.114L422.21 217.927C423.967 218.186 425.602 216.971 425.861 215.213L427.924 201.21C428.183 199.452 426.968 197.817 425.21 197.558L406.114 194.745Z" fill="#ACB2BE"/>
<path fill-rule="evenodd" clip-rule="evenodd" d="M408.762 203.264L402.396 202.327L402.678 200.417L409.043 201.355C409.57 201.433 409.935 201.923 409.857 202.45C409.779 202.978 409.289 203.342 408.762 203.264Z" fill="#ACB2BE"/>
<path fill-rule="evenodd" clip-rule="evenodd" d="M419.563 209.407L426.564 210.439L426.283 212.348L419.281 211.317C418.754 211.239 418.39 210.749 418.467 210.222C418.545 209.694 419.035 209.33 419.563 209.407Z" fill="#ACB2BE"/>
<path fill-rule="evenodd" clip-rule="evenodd" d="M407.824 209.63L401.458 208.692L401.74 206.782L408.105 207.72C408.632 207.798 408.997 208.288 408.919 208.815C408.841 209.343 408.351 209.707 407.824 209.63Z" fill="#ACB2BE"/>
<path fill-rule="evenodd" clip-rule="evenodd" d="M420.5 203.042L427.502 204.074L427.221 205.983L420.219 204.952C419.692 204.874 419.327 204.384 419.405 203.856C419.482 203.329 419.973 202.965 420.5 203.042Z" fill="#ACB2BE"/>
<rect x="1" y="1" width="183" height="249" rx="7" fill="white" stroke="#ACB2BE" stroke-width="2"/>
<mask id="path-29-inside-1_170_2" fill="white">
<rect x="82" y="19" width="9" height="9" rx="1"/>
</mask>
<rect x="82" y="19" width="9" height="9" rx="1" stroke="#ACB2BE" stroke-width="4" mask="url(#path-29-inside-1_170_2)"/>
<mask id="path-30-inside-2_170_2" fill="white">
<rect x="82" y="31" width="9" height="9" rx="1"/>
</mask>
<rect x="82" y="31" width="9" height="9" rx="1" stroke="#ACB2BE" stroke-width="4" mask="url(#path-30-inside-2_170_2)"/>
<mask id="path-31-inside-3_170_2" fill="white">
<rect x="94" y="19" width="9" height="9" rx="1"/>
</mask>
<rect x="94" y="19" width="9" height="9" rx="1" stroke="#ACB2BE" stroke-width="4" mask="url(#path-31-inside-3_170_2)"/>
<rect x="94" y="31" width="3" height="3" rx="1" fill="#ACB2BE"/>
<rect x="100" y="37" width="3" height="3" rx="1" fill="#ACB2BE"/>
<rect x="100" y="31" width="3" height="3" rx="1" fill="#ACB2BE"/>
<rect x="17" y="50" width="151" height="21" rx="1" fill="#E8E8E8"/>
<rect x="17" y="130" width="151" height="11" rx="1" fill="#E8E8E8"/>
<path d="M120.5 25H166" stroke="#ACB2BE" stroke-width="3" stroke-linecap="round"/>
<path d="M120.5 25H166" stroke="#ACB2BE" stroke-width="3" stroke-linecap="round"/>
<path d="M120.5 80H166" stroke="#ACB2BE" stroke-width="3" stroke-linecap="round"/>
<path d="M137 87L166 87" stroke="#ACB2BE" stroke-width="3" stroke-linecap="round"/>
<path d="M19 80H64.5" stroke="#ACB2BE" stroke-width="3" stroke-linecap="round"/>
<path d="M19 94H76" stroke="#ACB2BE" stroke-width="3" stroke-linecap="round"/>
<path d="M19 153H76" stroke="#ACB2BE" stroke-width="3" stroke-linecap="round"/>
<path d="M19 87H47" stroke="#ACB2BE" stroke-width="3" stroke-linecap="round"/>
<path d="M19 101H36" stroke="#ACB2BE" stroke-width="3" stroke-linecap="round"/>
<path d="M19 160H36" stroke="#ACB2BE" stroke-width="3" stroke-linecap="round"/>
<path d="M64.5 25H19" stroke="#ACB2BE" stroke-width="3" stroke-linecap="round"/>
<path d="M141 32H166" stroke="#ACB2BE" stroke-width="3" stroke-linecap="round"/>
<path d="M44 32H19" stroke="#ACB2BE" stroke-width="3" stroke-linecap="round"/>
</svg>
