<svg width="185" height="38" viewBox="0 0 185 38" fill="none" xmlns="http://www.w3.org/2000/svg">
<g id="everlook">
<path id="Vector" d="M163.098 0.529175H169.448V36.779H163.098V0.529175ZM177.015 0.529175H183.842L176.857 18.2572L184.371 36.779H177.333L170.189 18.3631L177.015 0.529175Z" fill="#444E6B"/>
<path id="Vector_2" d="M151.585 9.36676C151.585 6.96774 150.262 5.76823 147.616 5.76823C145.005 5.76823 143.7 6.96774 143.7 9.36676V27.9415C143.7 30.3405 145.005 31.54 147.616 31.54C150.262 31.54 151.585 30.3405 151.585 27.9415V9.36676ZM137.349 9.04924C137.349 6.29742 138.214 4.11008 139.942 2.48722C141.671 0.829073 144.229 0 147.616 0C151.002 0 153.56 0.829073 155.289 2.48722C157.053 4.11008 157.935 6.29742 157.935 9.04924V28.259C157.935 31.0108 157.053 33.2158 155.289 34.874C153.56 36.4968 151.002 37.3083 147.616 37.3083C144.229 37.3083 141.671 36.4968 139.942 34.874C138.214 33.2158 137.349 31.0108 137.349 28.259V9.04924Z" fill="#444E6B"/>
<path id="Vector_3" d="M126.365 9.36676C126.365 6.96774 125.042 5.76823 122.396 5.76823C119.786 5.76823 118.48 6.96774 118.48 9.36676V27.9415C118.48 30.3405 119.786 31.54 122.396 31.54C125.042 31.54 126.365 30.3405 126.365 27.9415V9.36676ZM112.13 9.04924C112.13 6.29742 112.994 4.11008 114.723 2.48722C116.452 0.829073 119.01 0 122.396 0C125.783 0 128.341 0.829073 130.07 2.48722C131.834 4.11008 132.716 6.29742 132.716 9.04924V28.259C132.716 31.0108 131.834 33.2158 130.07 34.874C128.341 36.4968 125.783 37.3083 122.396 37.3083C119.01 37.3083 116.452 36.4968 114.723 34.874C112.994 33.2158 112.13 31.0108 112.13 28.259V9.04924Z" fill="#444E6B"/>
<path id="Vector_4" d="M92.9178 0.529175H99.3211V31.3813H109.535V36.779H92.9178V0.529175Z" fill="#444E6B"/>
<path id="Vector_5" d="M74.3076 23.1258V36.779H67.9572V0.529175H78.647C81.5046 0.529175 83.7096 1.23477 85.2619 2.64596C86.8495 4.02186 87.6433 5.99753 87.6433 8.57294V14.7645C87.6433 18.857 86.1616 21.4324 83.1981 22.4908L88.9134 36.779H81.928L76.9006 23.1258H74.3076ZM74.3076 5.97989V17.9926H78.012C79.1762 17.9926 80.0053 17.7457 80.4992 17.2517C81.0284 16.7225 81.293 15.8758 81.293 14.7116V9.04922C81.293 7.003 80.1993 5.97989 78.012 5.97989H74.3076Z" fill="#444E6B"/>
<path id="Vector_6" d="M46.149 0.529175H63.5595V6.08572H52.4993V15.6642H62.0777V21.2207H52.4993V31.2225H63.5595V36.779H46.149V0.529175Z" fill="#444E6B"/>
<path id="Vector_7" d="M36.2555 0.529175H42.8704L35.6205 36.779H26.73L19.3742 0.529175H25.8833L28.9526 16.8284C29.2701 18.6277 29.6935 21.3618 30.2227 25.0309C30.7872 28.7 31.1223 30.7286 31.2281 31.1167C31.3693 30.4463 31.7044 28.2414 32.2336 24.5017C32.7628 20.7621 33.1332 18.2219 33.3449 16.8813L36.2555 0.529175Z" fill="#444E6B"/>
<path id="Vector_8" d="M0 0.529175H17.4105V6.08572H6.35034V15.6642H15.9288V21.2207H6.35034V31.2225H17.4105V36.779H0V0.529175Z" fill="#444E6B"/>
</g>
</svg>
