<svg width="133" height="27" viewBox="0 0 133 27" fill="none" xmlns="http://www.w3.org/2000/svg">
<path d="M117.181 0.380371H121.743V26.4245H117.181V0.380371ZM127.18 0.380371H132.085L127.066 13.1173L132.465 26.4245H127.408L122.275 13.1933L127.18 0.380371Z" fill="#93969F"/>
<path d="M108.909 6.72964C108.909 5.00604 107.958 4.14424 106.057 4.14424C104.182 4.14424 103.244 5.00604 103.244 6.72964V20.0749C103.244 21.7985 104.182 22.6603 106.057 22.6603C107.958 22.6603 108.909 21.7985 108.909 20.0749V6.72964ZM98.6812 6.50152C98.6812 4.52445 99.3022 2.95293 100.544 1.78697C101.786 0.595656 103.624 0 106.057 0C108.491 0 110.328 0.595656 111.57 1.78697C112.838 2.95293 113.471 4.52445 113.471 6.50152V20.303C113.471 22.2801 112.838 23.8643 111.57 25.0556C110.328 26.2215 108.491 26.8045 106.057 26.8045C103.624 26.8045 101.786 26.2215 100.544 25.0556C99.3022 23.8643 98.6812 22.2801 98.6812 20.303V6.50152Z" fill="#93969F"/>
<path d="M90.7896 6.72964C90.7896 5.00604 89.8391 4.14424 87.9381 4.14424C86.0624 4.14424 85.1245 5.00604 85.1245 6.72964V20.0749C85.1245 21.7985 86.0624 22.6603 87.9381 22.6603C89.8391 22.6603 90.7896 21.7985 90.7896 20.0749V6.72964ZM80.5621 6.50152C80.5621 4.52445 81.1831 2.95293 82.4251 1.78697C83.6671 0.595656 85.5047 0 87.9381 0C90.3714 0 92.209 0.595656 93.451 1.78697C94.7184 2.95293 95.3521 4.52445 95.3521 6.50152V20.303C95.3521 22.2801 94.7184 23.8643 93.451 25.0556C92.209 26.2215 90.3714 26.8045 87.9381 26.8045C85.5047 26.8045 83.6671 26.2215 82.4251 25.0556C81.1831 23.8643 80.5621 22.2801 80.5621 20.303V6.50152Z" fill="#93969F"/>
<path d="M66.7587 0.380371H71.3592V22.5464H78.6972V26.4245H66.7587V0.380371Z" fill="#93969F"/>
<path d="M53.3877 16.6152V26.4245H48.8253V0.380371H56.5054C58.5585 0.380371 60.1427 0.887312 61.258 1.90119C62.3986 2.88973 62.9689 4.30917 62.9689 6.1595V10.6079C62.9689 13.5482 61.9043 15.3985 59.7752 16.1589L63.8814 26.4245H58.8627L55.2507 16.6152H53.3877ZM53.3877 4.29649V12.9272H56.0492C56.8856 12.9272 57.4813 12.7497 57.8361 12.3949C58.2163 12.0147 58.4064 11.4063 58.4064 10.5699V6.50168C58.4064 5.03156 57.6207 4.29649 56.0492 4.29649H53.3877Z" fill="#93969F"/>
<path d="M33.1566 0.380371H45.6654V4.37253H37.7191V11.2543H44.6008V15.2464H37.7191V22.4323H45.6654V26.4245H33.1566V0.380371Z" fill="#93969F"/>
<path d="M26.0482 0.380371H30.8008L25.592 26.4245H19.2045L13.9197 0.380371H18.5962L20.8014 12.0907C21.0295 13.3834 21.3337 15.3478 21.7139 17.9839C22.1195 20.62 22.3602 22.0774 22.4363 22.3563C22.5377 21.8747 22.7785 20.2905 23.1587 17.6037C23.5389 14.9169 23.805 13.0919 23.9571 12.1287L26.0482 0.380371Z" fill="#93969F"/>
<path d="M0 0.380371H12.5088V4.37253H4.56247V11.2543H11.4442V15.2464H4.56247V22.4323H12.5088V26.4245H0V0.380371Z" fill="#93969F"/>
</svg>
