<svg width="16" height="16" viewBox="0 0 16 16" fill="none" xmlns="http://www.w3.org/2000/svg">
<path fill-rule="evenodd" clip-rule="evenodd" d="M14.7785 1.76742C14.7156 1.32744 14.3699 0.981747 13.9299 0.918892L9.43201 0.276308C9.12041 0.231793 8.80604 0.336582 8.58348 0.55915L0.631374 8.51125C0.24085 8.90177 0.240849 9.53494 0.631374 9.92546L5.7719 15.066C6.16242 15.4565 6.79559 15.4565 7.18611 15.066L15.1382 7.11389C15.3608 6.89132 15.4656 6.57695 15.4211 6.26536L14.7785 1.76742ZM10.5757 5.12171C11.0282 5.57422 11.7619 5.57422 12.2144 5.12171C12.6669 4.6692 12.6669 3.93553 12.2144 3.48302C11.7619 3.03051 11.0282 3.03051 10.5757 3.48302C10.1232 3.93553 10.1232 4.6692 10.5757 5.12171Z" fill="#8F9AB1"/>
</svg>
