<svg width="20" height="22" viewBox="0 0 20 22" fill="none" xmlns="http://www.w3.org/2000/svg">
<path d="M7.15784 5.21341C7.40408 6.4265 6.86462 6.79221 6.86462 6.79221L5.29296 7.75006C4.66657 8.10983 5.00768 8.86281 5.00768 8.86281C7.46355 14.0312 10.1802 15.5864 11.169 16.2767C11.8846 16.7762 12.3203 16.4204 12.3203 16.4204L14.3448 14.7833C15.0638 14.1003 15.6116 14.5701 15.6116 14.5701L19.6055 17.4641C20.285 17.9257 19.98 18.8626 19.4902 19.6706C19.0057 20.4694 16.9858 22.3736 14.4759 21.9353C11.9654 21.4974 7.50372 19.7668 4.45392 15.3325C1.37394 10.8549 0.301583 6.93436 0.301583 6.93436C-1.00249 2.85939 2.34484 0.689549 2.34484 0.689549C4.97932 -0.920723 6.21213 0.794069 6.21213 0.794069C6.21213 0.794069 6.9125 3.99965 7.15784 5.21341Z" fill="#F1F3FD"/>
</svg>
