<svg width="28" height="28" viewBox="0 0 28 28" fill="none" xmlns="http://www.w3.org/2000/svg">
<path fill-rule="evenodd" clip-rule="evenodd" d="M21.8537 2.39022H24.2439C26.32 2.39022 28 4.07023 28 6.14632V24.2439C28 26.32 26.32 28 24.2439 28H3.7561C1.68001 28 0 26.32 0 24.2439V6.14632C0 4.07023 1.68001 2.39022 3.7561 2.39022H6.14632C6.55611 2.39022 6.95219 2.23999 7.26636 1.9668L8.45463 0.928792C9.13757 0.327799 10.0117 0 10.9268 0H17.0732C17.9883 0 18.8624 0.327799 19.5454 0.928792L20.7336 1.9668C21.0478 2.23999 21.4439 2.39022 21.8537 2.39022ZM14 21.3333C10.6947 21.3333 8 18.6386 8 15.3333C8 12.0281 10.6947 9.33333 14 9.33333C17.3053 9.33333 20 12.0281 20 15.3333C20 18.6386 17.3053 21.3333 14 21.3333Z" fill="#A1A9BB"/>
</svg>
