<svg width="28" height="27" viewBox="0 0 28 27" fill="none" xmlns="http://www.w3.org/2000/svg">
<path fill-rule="evenodd" clip-rule="evenodd" d="M21.8537 2.30485H24.2439C26.32 2.30485 28 3.92487 28 5.92681V23.378C28 25.38 26.32 27 24.2439 27H3.7561C1.68001 27 0 25.38 0 23.378V5.92681C0 3.92487 1.68001 2.30485 3.7561 2.30485H6.14632C6.55611 2.30485 6.95219 2.15999 7.26636 1.89655L8.45463 0.895621C9.13757 0.316092 10.0117 0 10.9268 0H17.0732C17.9883 0 18.8624 0.316092 19.5454 0.895621L20.7336 1.89655C21.0478 2.15999 21.4439 2.30485 21.8537 2.30485ZM14 20.5714C10.6947 20.5714 8 17.9729 8 14.7857C8 11.5985 10.6947 9 14 9C17.3053 9 20 11.5985 20 14.7857C20 17.9729 17.3053 20.5714 14 20.5714Z" fill="#E3E5E9"/>
</svg>
