<svg width="18" height="18" viewBox="0 0 18 18" fill="none" xmlns="http://www.w3.org/2000/svg">
<path fill-rule="evenodd" clip-rule="evenodd" d="M14.0488 1.53657H15.5854C16.92 1.53657 18 2.61658 18 3.95121V15.5854C18 16.92 16.92 18 15.5854 18H2.41464C1.08001 18 0 16.92 0 15.5854V3.95121C0 2.61658 1.08001 1.53657 2.41464 1.53657H3.95121C4.21464 1.53657 4.46926 1.43999 4.67123 1.26437L5.43512 0.597081C5.87415 0.210728 6.4361 0 7.0244 0H10.9756C11.5639 0 12.1258 0.210728 12.5649 0.597081L13.3288 1.26437C13.5307 1.43999 13.7854 1.53657 14.0488 1.53657ZM9 13.7143C6.87519 13.7143 5.14286 11.982 5.14286 9.85714C5.14286 7.73233 6.87519 6 9 6C11.1248 6 12.8571 7.73233 12.8571 9.85714C12.8571 11.982 11.1248 13.7143 9 13.7143Z" fill="#0F5EF9"/>
</svg>
