<svg width="16" height="16" viewBox="0 0 16 16" fill="none" xmlns="http://www.w3.org/2000/svg">
<path fill-rule="evenodd" clip-rule="evenodd" d="M0.0332966 0.393992C0.140527 0.0869629 0.474689 -0.0744284 0.77967 0.0335194L1.01491 0.116772C1.4961 0.287066 1.90478 0.43169 2.22641 0.590559C2.57031 0.760436 2.86522 0.969692 3.08701 1.29643C3.30709 1.62065 3.39796 1.97635 3.43989 2.36636C3.44289 2.39428 3.44567 2.42268 3.44823 2.45155H12.3865C13.0254 2.45154 13.6768 2.45154 14.213 2.51188C14.486 2.5426 14.7565 2.59155 14.9957 2.67616C15.2302 2.75912 15.488 2.89497 15.6714 3.13494C15.9694 3.52496 16.0215 3.9791 15.9933 4.43968C15.9664 4.87819 15.8583 5.42339 15.7297 6.0715L15.7216 6.11261L15.7208 6.11623L15.3236 8.05628C15.2068 8.62702 15.1085 9.10732 14.9817 9.48611C14.8472 9.88799 14.6606 10.2412 14.3277 10.5143C13.9949 10.7874 13.6135 10.9 13.1954 10.9514C12.8013 11 12.3143 11 11.7355 11H7.51634C6.466 11 5.61539 11 4.94556 10.9044C4.24606 10.8046 3.65852 10.5903 3.19502 10.0982C2.76869 9.64553 2.54069 9.16491 2.42649 8.49369C2.31952 7.86497 2.30888 7.04202 2.30888 5.90079V3.76239C2.30888 3.18101 2.30808 2.79192 2.27597 2.49319C2.24527 2.2077 2.19087 2.06516 2.12043 1.96138C2.0517 1.86013 1.94737 1.76551 1.71071 1.64861C1.45873 1.52415 1.11629 1.40193 0.595243 1.21751L0.391373 1.14536C0.0863848 1.03741 -0.0739336 0.701013 0.0332966 0.393992Z" fill="#6A7283"/>
<path fill-rule="evenodd" clip-rule="evenodd" d="M3 14C3 15.1045 3.89543 16 5 16C6.10458 16 7 15.1045 7 14C7 12.8955 6.10458 12 5 12C3.89543 12 3 12.8955 3 14Z" fill="#6A7283"/>
<path fill-rule="evenodd" clip-rule="evenodd" d="M10 14C10 15.1046 10.8955 16 12 16C13.1045 16 14 15.1046 14 14C14 12.8955 13.1045 12 12 12C10.8955 12 10 12.8955 10 14Z" fill="#6A7283"/>
</svg>
