<svg width="14" height="14" viewBox="0 0 14 14" fill="none" xmlns="http://www.w3.org/2000/svg">
<path d="M12.4526 1.93053H9.19579L8.65053 0.84C8.4 0.32421 7.86947 0 7.29474 0H5.74737C5.17263 0 4.65684 0.32421 4.39158 0.84L3.84632 1.93053H0.604211C0.28 1.93053 0 2.19579 0 2.53474C0 2.87368 0.265263 3.13895 0.604211 3.13895H1.35579L2.54947 12.7474C2.63789 13.4695 3.24211 14 3.97895 14H9.09263C9.81474 14 10.4189 13.4547 10.5221 12.7474L11.7305 3.13895H12.4821C12.8063 3.13895 13.0863 2.87368 13.0863 2.53474C13.0863 2.19579 12.7916 1.93053 12.4526 1.93053ZM5.46737 1.37053C5.52632 1.26737 5.62947 1.19368 5.74737 1.19368H7.29474C7.41263 1.19368 7.53053 1.26737 7.57474 1.37053L7.85474 1.93053H5.18737L5.46737 1.37053Z" fill="#8A91AD"/>
</svg>
