<svg width="15" height="18" viewBox="0 0 15 18" fill="none" xmlns="http://www.w3.org/2000/svg">
<path d="M1 3C0.447723 3 0 2.55231 0 2C0 1.44769 0.447723 1 1 1H6.08536C6.29126 0.417419 6.84689 0 7.5 0C8.15311 0 8.70874 0.417419 8.91464 1H14C14.5523 1 15 1.44769 15 2C15 2.55231 14.5523 3 14 3H1Z" fill="white"/>
<path d="M1.12946 5.1153C1.06052 4.5213 1.52481 4 2.12277 4H12.8772C13.4752 4 13.9395 4.5213 13.8705 5.1153L12.5804 16.2306C12.4633 17.2392 11.6091 18 10.5937 18H4.40628C3.39093 18 2.53668 17.2392 2.41962 16.2306L1.12946 5.1153Z" fill="white"/>
</svg>
