<svg width="16" height="12" viewBox="0 0 16 12" fill="none" xmlns="http://www.w3.org/2000/svg">
<path fill-rule="evenodd" clip-rule="evenodd" d="M7.80005 11.9988C7.84232 11.9996 7.88473 12 7.92727 12C8.56802 12 9.18397 11.8876 9.75844 11.6805C13.4892 10.537 16 6.67983 16 6C16 5.32017 13.4892 1.46297 9.75844 0.319477C9.18397 0.112364 8.56803 0 7.92727 0C7.88473 0 7.84232 0.000400099 7.80005 0.00119382C7.75771 0.000400099 7.71527 0 7.67273 0C6.97201 0 6.30097 0.134378 5.68138 0.380099C2.14706 1.59316 0 5.33173 0 6C0 6.66827 2.14706 10.4068 5.68138 11.6199C6.30097 11.8656 6.97201 12 7.67273 12C7.71527 12 7.75771 11.9996 7.80005 11.9988ZM8 8.4C9.32548 8.4 10.4 7.32548 10.4 6C10.4 4.67452 9.32548 3.6 8 3.6C6.67452 3.6 5.6 4.67452 5.6 6C5.6 7.32548 6.67452 8.4 8 8.4Z" fill="#8F9AB1"/>
</svg>
