<svg width="73" height="73" viewBox="0 0 73 73" fill="none" xmlns="http://www.w3.org/2000/svg">
<g clip-path="url(#clip0_2_948)">
<path d="M36.5 73C56.6584 73 73 56.6584 73 36.5C73 16.3416 56.6584 0 36.5 0C16.3416 0 0 16.3416 0 36.5C0 56.6584 16.3416 73 36.5 73Z" fill="#3C5A9A"/>
<path d="M48.3683 11.2036H40.2826C35.4843 11.2036 30.1473 13.2217 30.1473 20.177C30.1707 22.6005 30.1473 24.9215 30.1473 27.5336H24.5963V36.3669H30.3191V61.7963H40.8349V36.1991H47.7757L48.4037 27.5089H40.6537C40.6537 27.5089 40.6711 23.6431 40.6537 22.5204C40.6537 19.7718 43.5137 19.9293 43.6858 19.9293C45.0467 19.9293 47.6929 19.9332 48.3723 19.9293V11.2036H48.3683Z" fill="white"/>
</g>
<defs>
<clipPath id="clip0_2_948">
<rect width="73" height="73" fill="white"/>
</clipPath>
</defs>
</svg>
