<svg width="27" height="27" viewBox="0 0 27 27" fill="none" xmlns="http://www.w3.org/2000/svg">
<g clip-path="url(#clip0_15_24)">
<path d="M20.0391 13.5C20.0382 14.5403 19.7888 15.5654 19.3116 16.4899C18.8343 17.4143 18.1431 18.2113 17.2955 18.8145L20.9932 21.7726C22.1527 20.7287 23.0799 19.4529 23.715 18.0278C24.35 16.6027 24.6787 15.0602 24.6797 13.5" fill="#4285F4"/>
<path d="M6.96094 13.4999C6.96255 12.7441 7.0961 11.9943 7.35556 11.2843L3.61538 8.29224C2.76495 9.89636 2.32031 11.6843 2.32031 13.4999C2.32031 15.3156 2.76495 17.1035 3.61538 18.7077L7.35556 15.7155C7.0961 15.0056 6.96255 14.2558 6.96094 13.4999Z" fill="#FFBA00"/>
<path d="M25 13.5703C25 7.18019 19.8513 2 13.5 2C7.14872 2 2 7.18019 2 13.5703C2 19.3453 6.20538 24.132 11.7031 25V16.9148H8.78321V13.5703H11.7031V11.0212C11.7031 8.1214 13.42 6.51965 16.0468 6.51965C17.3051 6.51965 18.6211 6.74562 18.6211 6.74562V9.593H17.171C15.7424 9.593 15.2969 10.4849 15.2969 11.3999V13.5703H18.4863L17.9765 16.9148H15.2969V25C20.7946 24.132 25 19.3453 25 13.5703Z" fill="#1877F2"/>
</g>
<defs>
<clipPath id="clip0_15_24">
<rect width="27" height="27" fill="white"/>
</clipPath>
</defs>
</svg>
