<svg width="18" height="18" viewBox="0 0 18 18" fill="none" xmlns="http://www.w3.org/2000/svg">
<path fill-rule="evenodd" clip-rule="evenodd" d="M18 9C18 4.02942 13.9705 0 9 0C4.02945 0 0 4.02942 0 9C0 10.441 0.338135 11.801 0.938721 13.0068C1.17978 13.4908 1.27258 14.0695 1.12051 14.6379L0.540985 16.8037C0.43457 17.2015 0.798492 17.5655 1.19626 17.459L3.36215 16.8795C3.93054 16.7275 4.50925 16.8203 4.99319 17.0613C6.19901 17.6619 7.55893 18 9 18C13.9705 18 18 13.9705 18 9ZM9 14C11.7614 14 14 11.7614 14 9C14 6.23859 11.7614 4 9 4C6.23859 4 4 6.23859 4 9C4 11.7614 6.23859 14 9 14Z" fill="#5C6577"/>
</svg>
