<svg width="27" height="27" viewBox="0 0 27 27" fill="none" xmlns="http://www.w3.org/2000/svg">
<g clip-path="url(#clip0_15_14)">
<path d="M20.0391 13.5C20.0401 15.0388 19.498 16.5286 18.5083 17.707C17.5187 18.8853 16.1449 19.6766 14.629 19.9414C13.1131 20.2062 11.5525 19.9275 10.2219 19.1545C8.89134 18.3814 7.87629 17.1636 7.35556 15.7156L3.61539 18.7077C4.77837 20.9185 6.64856 22.6758 8.92733 23.6991C11.2061 24.7224 13.762 24.9527 16.187 24.3532C18.612 23.7537 20.7662 22.3589 22.3056 20.3916C23.845 18.4243 24.6808 15.998 24.6797 13.5" fill="#00AC47"/>
<path d="M20.0391 13.5C20.0382 14.5403 19.7888 15.5654 19.3116 16.4899C18.8343 17.4143 18.1431 18.2113 17.2955 18.8145L20.9932 21.7726C22.1526 20.7287 23.0799 19.4529 23.715 18.0278C24.35 16.6027 24.6787 15.0602 24.6797 13.5" fill="#4285F4"/>
<path d="M6.96094 13.4999C6.96255 12.7441 7.0961 11.9943 7.35556 11.2843L3.61538 8.29224C2.76495 9.89636 2.32031 11.6843 2.32031 13.4999C2.32031 15.3156 2.76495 17.1035 3.61538 18.7077L7.35556 15.7155C7.0961 15.0056 6.96255 14.2558 6.96094 13.4999Z" fill="#FFBA00"/>
<path d="M13.5 6.96095C14.8836 6.96133 16.231 7.4035 17.3458 8.22303L20.7714 5.0258C19.4998 3.9294 17.997 3.13434 16.3751 2.69994C14.7532 2.26555 13.0542 2.20304 11.4048 2.51709C9.75538 2.83113 8.19819 3.51362 6.84943 4.51362C5.50066 5.51362 4.39515 6.80531 3.61539 8.2923L7.35556 11.2844C7.81171 10.0199 8.64618 8.92661 9.74553 8.15307C10.8449 7.37952 12.1558 6.96328 13.5 6.96095Z" fill="#EA4435"/>
<path d="M24.6797 12.6562V13.5L22.7812 16.4531H13.9219V11.8125H23.8359C24.0597 11.8125 24.2743 11.9014 24.4326 12.0596C24.5908 12.2179 24.6797 12.4325 24.6797 12.6562Z" fill="#4285F4"/>
</g>
<defs>
<clipPath id="clip0_15_14">
<rect width="27" height="27" fill="white"/>
</clipPath>
</defs>
</svg>
