<svg width="23" height="16" viewBox="0 0 23 16" fill="none" xmlns="http://www.w3.org/2000/svg">
<path d="M0 14.8V13.4001C0 13.0151 0.287498 12.7001 0.638889 12.7001H22.3611C22.7125 12.7001 23 13.0151 23 13.4001V14.8C23 15.1868 22.7141 15.5 22.3611 15.5H0.638889C0.285903 15.5 0 15.1868 0 14.8ZM10.1586 6.09982L9.64753 0.5H13.3467L12.8356 6.09982H10.1586ZM5.75041 11.2997H1.46362C1.46362 5.5 4.90724 2.92181 8.47238 1.70374L8.94514 6.86946C8.98347 7.22645 9.25819 7.49942 9.58403 7.49942H13.4174C13.7432 7.49942 14.0179 7.22642 14.0563 6.86946L14.529 1.70374C18.094 2.92172 21 5.5 21.5378 11.2997H17.251V8.89973C17.251 8.51299 16.9651 8.19975 16.6121 8.19975C16.2591 8.19975 15.9732 8.51299 15.9732 8.89973V11.2997H7.02876V8.89973C7.02876 8.51299 6.74286 8.19975 6.38987 8.19975C6.03688 8.19975 5.75098 8.51299 5.75098 8.89973L5.75041 11.2997Z" fill="white"/>
</svg>
