<svg width="16" height="20" viewBox="0 0 16 20" fill="none" xmlns="http://www.w3.org/2000/svg">
<path d="M6.3095e-07 14.6189C6.3095e-07 15.1769 0.210714 15.712 0.585787 16.1066C0.96086 16.5012 1.46957 16.7228 2 16.7228H6.21714L4.78857 18.2256L6 19.5L8.89143 16.4583C9.05194 16.2893 9.1421 16.0601 9.1421 15.8212C9.1421 15.5822 9.05194 15.353 8.89143 15.184L6 12.1423L4.78857 13.4167L6.21714 14.9195H2C1.92422 14.9195 1.85155 14.8878 1.79797 14.8314C1.74439 14.7751 1.71429 14.6986 1.71429 14.6189V6.66913C1.71437 6.61884 1.72644 6.56937 1.7494 6.52526C1.77236 6.48115 1.80548 6.44381 1.84571 6.41666L7.96286 2.32003C7.97361 2.31313 7.98597 2.30948 7.99857 2.30948C8.01117 2.30948 8.02353 2.31313 8.03429 2.32003L14.1543 6.41666C14.1945 6.44381 14.2276 6.48115 14.2506 6.52526C14.2736 6.56937 14.2856 6.61884 14.2857 6.66913V14.6189C14.2857 14.6986 14.2556 14.7751 14.202 14.8314C14.1484 14.8878 14.0758 14.9195 14 14.9195H11.1429V16.7228H14C14.5304 16.7228 15.0391 16.5012 15.4142 16.1066C15.7893 15.712 16 15.1769 16 14.6189V6.66913C16.0003 6.31502 15.9156 5.96657 15.7537 5.65606C15.5919 5.34555 15.3582 5.08303 15.0743 4.89282L8.95714 0.793192C8.67109 0.601707 8.33906 0.5 8 0.5C7.66094 0.5 7.32891 0.601707 7.04286 0.793192L0.925715 4.89282C0.641779 5.08303 0.408074 5.34555 0.246254 5.65606C0.0844337 5.96657 -0.000266721 6.31502 6.3095e-07 6.66913V14.6189Z" fill="#444E6B"/>
</svg>
