<svg width="22" height="26" viewBox="0 0 22 26" fill="none" xmlns="http://www.w3.org/2000/svg">
<path d="M8.67557e-07 19.0775C8.67557e-07 19.8117 0.289732 20.5159 0.805457 21.035C1.32118 21.5542 2.02066 21.8458 2.75 21.8458H8.54857L6.58429 23.8232L8.25 25.5L12.2257 21.4978C12.4464 21.2754 12.5704 20.9738 12.5704 20.6594C12.5704 20.345 12.4464 20.0435 12.2257 19.821L8.25 15.8188L6.58429 17.4956L8.54857 19.473H2.75C2.64581 19.473 2.54588 19.4313 2.47221 19.3572C2.39853 19.283 2.35714 19.1824 2.35714 19.0775V8.61727C2.35725 8.5511 2.37385 8.48601 2.40543 8.42798C2.437 8.36994 2.48253 8.3208 2.53786 8.28507L10.9489 2.89478C10.9637 2.8857 10.9807 2.88089 10.998 2.88089C11.0154 2.88089 11.0324 2.8857 11.0471 2.89478L19.4621 8.28507C19.5175 8.3208 19.563 8.36994 19.5946 8.42798C19.6261 8.48601 19.6427 8.5511 19.6429 8.61727V19.0775C19.6429 19.1824 19.6015 19.283 19.5278 19.3572C19.4541 19.4313 19.3542 19.473 19.25 19.473H15.3214V21.8458H19.25C19.9793 21.8458 20.6788 21.5542 21.1945 21.035C21.7103 20.5159 22 19.8117 22 19.0775V8.61727C22.0004 8.15134 21.8839 7.69285 21.6614 7.28428C21.4389 6.87572 21.1176 6.5303 20.7271 6.28003L12.3161 0.885778C11.9227 0.633825 11.4662 0.5 11 0.5C10.5338 0.5 10.0773 0.633825 9.68393 0.885778L1.27286 6.28003C0.882446 6.5303 0.561102 6.87572 0.338599 7.28428C0.116096 7.69285 -0.000366741 8.15134 8.67557e-07 8.61727V19.0775Z" fill="white"/>
</svg>
