<svg width="23" height="26" viewBox="0 0 23 26" fill="none" xmlns="http://www.w3.org/2000/svg">
<path d="M0.500001 19.0775C0.500001 19.8117 0.789732 20.5159 1.30546 21.035C1.82118 21.5542 2.52066 21.8458 3.25 21.8458H9.04857L7.08429 23.8232L8.75 25.5L12.7257 21.4978C12.9464 21.2754 13.0704 20.9738 13.0704 20.6594C13.0704 20.345 12.9464 20.0435 12.7257 19.821L8.75 15.8188L7.08429 17.4956L9.04857 19.473H3.25C3.14581 19.473 3.04588 19.4313 2.97221 19.3572C2.89853 19.283 2.85714 19.1824 2.85714 19.0775V8.61727C2.85725 8.5511 2.87385 8.48601 2.90543 8.42798C2.937 8.36994 2.98253 8.3208 3.03786 8.28507L11.4489 2.89478C11.4637 2.8857 11.4807 2.88089 11.498 2.88089C11.5154 2.88089 11.5324 2.8857 11.5471 2.89478L19.9621 8.28507C20.0175 8.3208 20.063 8.36994 20.0946 8.42798C20.1261 8.48601 20.1427 8.5511 20.1429 8.61727V19.0775C20.1429 19.1824 20.1015 19.283 20.0278 19.3572C19.9541 19.4313 19.8542 19.473 19.75 19.473H15.8214V21.8458H19.75C20.4793 21.8458 21.1788 21.5542 21.6945 21.035C22.2103 20.5159 22.5 19.8117 22.5 19.0775V8.61727C22.5004 8.15134 22.3839 7.69285 22.1614 7.28428C21.9389 6.87572 21.6176 6.5303 21.2271 6.28003L12.8161 0.885778C12.4227 0.633825 11.9662 0.5 11.5 0.5C11.0338 0.5 10.5773 0.633825 10.1839 0.885778L1.77286 6.28003C1.38245 6.5303 1.0611 6.87572 0.838599 7.28428C0.616096 7.69285 0.499633 8.15134 0.500001 8.61727V19.0775Z" fill="white"/>
</svg>
