<svg width="20" height="21" viewBox="0 0 20 21" fill="none" xmlns="http://www.w3.org/2000/svg">
<circle cx="10" cy="10.5" r="10" fill="#0052FF"/>
<path d="M10.065 7.54005C9.765 7.54005 9.51 7.44005 9.3 7.24005C9.1 7.04005 9 6.79005 9 6.49005C9 6.19005 9.1 5.94005 9.3 5.74005C9.51 5.53005 9.765 5.42505 10.065 5.42505C10.365 5.42505 10.62 5.53005 10.83 5.74005C11.04 5.94005 11.145 6.19005 11.145 6.49005C11.145 6.79005 11.04 7.04005 10.83 7.24005C10.62 7.44005 10.365 7.54005 10.065 7.54005ZM9.105 8.80005H11.025V16H9.105V8.80005Z" fill="white"/>
</svg>
