<svg width="15" height="15" viewBox="0 0 15 15" fill="none" xmlns="http://www.w3.org/2000/svg">
<path d="M7.5 15C11.6421 15 15 11.6421 15 7.5C15 3.35786 11.6421 0 7.5 0C3.35786 0 0 3.35786 0 7.5C0 11.6421 3.35786 15 7.5 15Z" fill="#C13584"/>
<path d="M7.5 3.81082C8.70154 3.81082 8.84389 3.8154 9.31838 3.83704C9.75713 3.85706 9.9954 3.93037 10.154 3.99199C10.364 4.07362 10.5139 4.17113 10.6714 4.32859C10.8289 4.48609 10.9264 4.63598 11.008 4.84601C11.0696 5.0046 11.1429 5.24288 11.163 5.68159C11.1846 6.15611 11.1892 6.29843 11.1892 7.49996C11.1892 8.70154 11.1846 8.84385 11.163 9.31838C11.1429 9.75713 11.0696 9.99536 11.008 10.1539C10.9264 10.364 10.8289 10.5139 10.6714 10.6714C10.5139 10.8288 10.364 10.9263 10.154 11.008C9.9954 11.0696 9.75713 11.1429 9.31838 11.1629C8.84396 11.1846 8.70165 11.1892 7.5 11.1892C6.29835 11.1892 6.15607 11.1846 5.68162 11.1629C5.24287 11.1429 5.0046 11.0696 4.84601 11.008C4.63598 10.9263 4.48609 10.8288 4.32863 10.6714C4.17116 10.5139 4.07362 10.364 3.99199 10.1539C3.93037 9.99536 3.85706 9.75713 3.83704 9.31838C3.8154 8.84385 3.81082 8.70154 3.81082 7.49996C3.81082 6.29843 3.8154 6.15611 3.83704 5.68159C3.85706 5.24288 3.93037 5.0046 3.99199 4.84601C4.07362 4.63598 4.17113 4.48609 4.32863 4.32863C4.48609 4.17113 4.63598 4.07362 4.84601 3.99199C5.0046 3.93037 5.24287 3.85706 5.68162 3.83704C6.15611 3.8154 6.29846 3.81082 7.5 3.81082ZM7.5 3C6.27787 3 6.12461 3.00517 5.64465 3.02707C5.1657 3.04894 4.83855 3.12499 4.55231 3.23625C4.2564 3.35123 4.00545 3.50509 3.75529 3.75529C3.50509 4.00545 3.35123 4.2564 3.23625 4.55231C3.12499 4.83855 3.04894 5.16566 3.02707 5.64465C3.00517 6.12461 3 6.27788 3 7.49996C3 8.72213 3.00517 8.87535 3.02707 9.35531C3.04894 9.8343 3.12499 10.1614 3.23625 10.4476C3.35123 10.7436 3.50509 10.9945 3.75529 11.2447C4.00545 11.4949 4.2564 11.6487 4.55231 11.7637C4.83855 11.875 5.1657 11.951 5.64465 11.9729C6.12461 11.9948 6.27787 12 7.5 12C8.72213 12 8.87539 11.9948 9.35535 11.9729C9.8343 11.951 10.1614 11.875 10.4477 11.7637C10.7436 11.6487 10.9946 11.4949 11.2447 11.2447C11.4949 10.9945 11.6488 10.7436 11.7638 10.4476C11.875 10.1614 11.9511 9.8343 11.9729 9.35531C11.9948 8.87535 12 8.72213 12 7.49996C12 6.27788 11.9948 6.12461 11.9729 5.64465C11.9511 5.16566 11.875 4.83855 11.7638 4.55231C11.6488 4.2564 11.4949 4.00545 11.2447 3.75529C10.9946 3.50509 10.7436 3.35123 10.4477 3.23625C10.1614 3.12499 9.8343 3.04894 9.35535 3.02707C8.87539 3.00517 8.72213 3 7.5 3Z" fill="white"/>
<path d="M7.50219 5.19128C6.22596 5.19128 5.19141 6.22583 5.19141 7.50207C5.19141 8.77831 6.22596 9.81286 7.50219 9.81286C8.77843 9.81286 9.81302 8.77831 9.81302 7.50207C9.81302 6.22583 8.77843 5.19128 7.50219 5.19128ZM7.50219 9.00207C6.67378 9.00207 6.00219 8.33048 6.00219 7.50207C6.00219 6.67366 6.67378 6.00207 7.50219 6.00207C8.33064 6.00207 9.00219 6.67366 9.00219 7.50207C9.00219 8.33048 8.33064 9.00207 7.50219 9.00207Z" fill="white"/>
<path d="M10.444 5.09863C10.444 5.39683 10.2023 5.63863 9.90401 5.63863C9.60578 5.63863 9.36401 5.39683 9.36401 5.09863C9.36401 4.80039 9.60578 4.55859 9.90401 4.55859C10.2023 4.55859 10.444 4.80039 10.444 5.09863Z" fill="white"/>
</svg>
