<svg width="16" height="16" viewBox="0 0 16 16" fill="none" xmlns="http://www.w3.org/2000/svg">
<path fill-rule="evenodd" clip-rule="evenodd" d="M8 16C12.4183 16 16 12.4183 16 8C16 3.58172 12.4183 0 8 0C3.58172 0 0 3.58172 0 8C0 12.4183 3.58172 16 8 16ZM9.40216 12.3376C8.84246 13.457 8.28068 13.7143 8 13.7143C7.71932 13.7143 7.15754 13.457 6.59784 12.3376C6.13021 11.4024 5.7952 10.0863 5.72707 8.57143H10.2729C10.2048 10.0863 9.86979 11.4024 9.40216 12.3376ZM10.2729 7.42857H5.72707C5.7952 5.9137 6.13021 4.59763 6.59784 3.66237C7.15754 2.54296 7.71932 2.28571 8 2.28571C8.28068 2.28571 8.84246 2.54296 9.40216 3.66237C9.86979 4.59763 10.2048 5.9137 10.2729 7.42857ZM11.4168 8.57143C11.3388 10.463 10.8769 12.1369 10.1873 13.2807C12.0902 12.4916 13.4743 10.704 13.6861 8.57143H11.4168ZM13.6861 7.42857H11.4168C11.3388 5.537 10.8769 3.86313 10.1873 2.71929C12.0902 3.50836 13.4743 5.29602 13.6861 7.42857ZM4.58316 7.42857C4.66119 5.537 5.12309 3.86313 5.81271 2.71929C3.90982 3.50836 2.52566 5.29602 2.31393 7.42857H4.58316ZM2.31393 8.57143C2.52566 10.704 3.90982 12.4916 5.81271 13.2807C5.12309 12.1369 4.66119 10.463 4.58316 8.57143H2.31393Z" fill="#8F9AB1"/>
</svg>
