<svg width="32" height="8" viewBox="0 0 32 8" fill="none" xmlns="http://www.w3.org/2000/svg">
<path d="M0.5 3.5C0.223858 3.5 2.41411e-08 3.72386 0 4C-2.41411e-08 4.27614 0.223858 4.5 0.5 4.5L0.5 3.5ZM31.8536 4.35356C32.0488 4.15829 32.0488 3.84171 31.8536 3.64645L28.6716 0.464469C28.4763 0.269206 28.1597 0.269206 27.9645 0.464468C27.7692 0.659731 27.7692 0.976313 27.9645 1.17158L30.7929 4L27.9645 6.82843C27.7692 7.02369 27.7692 7.34027 27.9645 7.53554C28.1597 7.7308 28.4763 7.7308 28.6716 7.53554L31.8536 4.35356ZM0.5 4.5L31.5 4.5L31.5 3.5L0.5 3.5L0.5 4.5Z" fill="white"/>
</svg>
