<svg width="33" height="34" viewBox="0 0 33 34" fill="none" xmlns="http://www.w3.org/2000/svg">
<path fill-rule="evenodd" clip-rule="evenodd" d="M14 22.7491C18.8064 22.7491 22.7027 18.8528 22.7027 14.0464C22.7027 9.24002 18.8064 5.34368 14 5.34368C9.19363 5.34368 5.2973 9.24002 5.2973 14.0464C5.2973 18.8528 9.19363 22.7491 14 22.7491ZM14 28.0464C21.732 28.0464 28 21.7784 28 14.0464C28 6.3144 21.732 0.0463867 14 0.0463867C6.26801 0.0463867 0 6.3144 0 14.0464C0 21.7784 6.26801 28.0464 14 28.0464Z" fill="#0052FF"/>
<path fill-rule="evenodd" clip-rule="evenodd" d="M26.2895 31.895L20 25.6056L25.5592 20.0464L31.8487 26.3359C33.3838 27.871 33.3838 30.3599 31.8487 31.895C30.3135 33.4302 27.8246 33.4302 26.2895 31.895Z" fill="#0052FF"/>
</svg>
