<svg width="22" height="22" viewBox="0 0 22 22" fill="none" xmlns="http://www.w3.org/2000/svg">
<path fill-rule="evenodd" clip-rule="evenodd" d="M22 11C22 4.92487 17.0751 0 11 0C4.92487 0 0 4.92487 0 11C0 12.7613 0.413267 14.4234 1.14733 15.8972C1.44194 16.4887 1.55539 17.196 1.36951 17.8908L0.661213 20.5379C0.531128 21.024 0.97592 21.4689 1.4621 21.3388L4.10928 20.6305C4.804 20.4447 5.51131 20.5581 6.10281 20.8527C7.57657 21.5868 9.23869 22 11 22C17.0751 22 22 17.0751 22 11ZM15.5606 7.172C16.0179 7.48157 16.1377 8.1033 15.8281 8.56067L10.1418 16.0001L6.32496 11.9437C5.91749 11.5709 5.88941 10.9384 6.26227 10.5309C6.63508 10.1235 7.26764 10.0954 7.67505 10.4682L10.1418 12.9614L14.1719 7.43954C14.4815 6.98218 15.1032 6.8624 15.5606 7.172Z" fill="white"/>
</svg>
