<svg width="20" height="20" viewBox="0 0 20 20" fill="none" xmlns="http://www.w3.org/2000/svg">
<path fill-rule="evenodd" clip-rule="evenodd" d="M10 19.7727C15.5228 19.7727 20 15.5194 20 10.2727C20 5.02604 15.5228 0.772705 10 0.772705C4.47719 0.772705 0 5.02604 0 10.2727C0 15.5194 4.47719 19.7727 10 19.7727ZM10.0845 14.0716L15.4445 9.11983C15.622 8.94381 15.7187 8.71105 15.7141 8.4705C15.7096 8.22995 15.6041 8.0005 15.4199 7.83036C15.2358 7.66022 14.9874 7.56281 14.727 7.55858C14.4666 7.55436 14.2147 7.64357 14.0241 7.80758L9.3743 12.1032L7.40444 10.2835C7.21392 10.1195 6.96193 10.0302 6.70157 10.0345C6.44121 10.0387 6.1928 10.1361 6.00865 10.3063C5.8245 10.4763 5.71899 10.7058 5.71446 10.9464C5.70984 11.1869 5.80654 11.4197 5.98406 11.5957L8.66403 14.0716C8.75715 14.1579 8.86789 14.2265 8.98978 14.2733C9.11159 14.32 9.24229 14.3441 9.3743 14.3441C9.45653 14.3441 9.53823 14.3348 9.61766 14.3164C9.6657 14.3053 9.71287 14.2909 9.75882 14.2733C9.88063 14.2265 9.99137 14.1579 10.0845 14.0716Z" fill="#8995AE"/>
</svg>
