<svg width="18" height="18" viewBox="0 0 18 18" fill="none" xmlns="http://www.w3.org/2000/svg">
<path fill-rule="evenodd" clip-rule="evenodd" d="M12.9503 7.00421C13.2035 6.63 13.1056 6.1213 12.7313 5.86802C12.3571 5.61471 11.8485 5.71271 11.5951 6.08692L8.29779 10.6048L6.27956 8.56494C5.94622 8.25989 5.42867 8.28286 5.12364 8.61622C4.81857 8.94958 4.84155 9.46712 5.17493 9.77216L8.29779 13.091L12.9503 7.00421Z" fill="#80838A"/>
<path fill-rule="evenodd" clip-rule="evenodd" d="M18 9C18 4.02944 13.9705 0 9 0C4.02944 0 0 4.02944 0 9C0 10.4411 0.338127 11.801 0.938724 13.0068C1.17977 13.4908 1.27259 14.0695 1.1205 14.6379L0.540992 16.8037C0.434559 17.2015 0.79848 17.5655 1.19626 17.459L3.36214 16.8795C3.93055 16.7274 4.50925 16.8203 4.99321 17.0613C6.19901 17.6619 7.55893 18 9 18C13.9705 18 18 13.9705 18 9ZM9 16C12.866 16 16 12.866 16 9C16 5.13401 12.866 2 9 2C5.13401 2 2 5.13401 2 9C2 12.866 5.13401 16 9 16Z" fill="#80838A"/>
</svg>
