<svg width="50" height="50" viewBox="0 0 50 50" fill="none" xmlns="http://www.w3.org/2000/svg">
<path fill-rule="evenodd" clip-rule="evenodd" d="M49.856 25.072C49.856 11.3047 38.6953 0.144043 24.928 0.144043C11.1607 0.144043 0 11.3047 0 25.072C0 29.0635 0.936538 32.8302 2.60006 36.17C3.2677 37.5104 3.52479 39.1134 3.10355 40.6877L1.49843 46.6866C1.20363 47.7883 2.21161 48.7965 3.31337 48.5017L9.31237 46.8966C10.8867 46.4753 12.4896 46.7324 13.8301 47.4C17.1699 49.0635 20.9366 50 24.928 50C38.6953 50 49.856 38.8393 49.856 25.072ZM37.3918 16.1692C38.6587 17.0267 38.9903 18.7487 38.1329 20.0155L22.5515 38.9206L12.4641 28.6333C11.3355 27.6006 11.2578 25.8486 12.2905 24.7201C13.3231 23.5916 15.0752 23.5138 16.2036 24.5465L22.5515 30.5041L33.5455 16.9103C34.4031 15.6435 36.125 15.3117 37.3918 16.1692Z" fill="#0052FF"/>
</svg>
