<svg width="14" height="14" viewBox="0 0 14 14" fill="none" xmlns="http://www.w3.org/2000/svg">
<path fill-rule="evenodd" clip-rule="evenodd" d="M14 7C14 3.13401 10.866 0 7 0C3.13401 0 0 3.13401 0 7C0 8.12083 0.262988 9.17855 0.730119 10.1164C0.917598 10.4928 0.989792 10.9429 0.871504 11.385L0.420772 13.0696C0.33799 13.3789 0.62104 13.662 0.930425 13.5792L2.615 13.1285C3.05709 13.0102 3.5072 13.0824 3.88361 13.2699C4.82146 13.737 5.87917 14 7 14C10.866 14 14 10.866 14 7ZM9.90219 4.56401C10.1933 4.76101 10.2695 5.15666 10.0725 5.44772L6.45389 10.1819L4.02499 7.60057C3.76569 7.36331 3.74783 6.96079 3.9851 6.70151C4.22234 6.44223 4.62489 6.42436 4.88415 6.66162L6.45389 8.24818L9.01849 4.73427C9.21553 4.44322 9.61116 4.367 9.90219 4.56401Z" fill="#8F9AB1"/>
</svg>
