<svg width="18" height="18" viewBox="0 0 18 18" fill="none" xmlns="http://www.w3.org/2000/svg">
<path fill-rule="evenodd" clip-rule="evenodd" d="M18 9C18 4.02944 13.9705 0 9 0C4.02944 0 0 4.02944 0 9C0 10.4411 0.338127 11.801 0.938724 13.0068C1.17977 13.4908 1.27259 14.0695 1.1205 14.6379L0.540992 16.8037C0.434559 17.2015 0.79848 17.5655 1.19626 17.459L3.36214 16.8795C3.93055 16.7274 4.50925 16.8203 4.99321 17.0613C6.19901 17.6619 7.55893 18 9 18C13.9705 18 18 13.9705 18 9ZM12.7314 5.868C13.1056 6.12128 13.2036 6.62997 12.9503 7.00418L8.29783 13.091L5.17496 9.77214C4.84158 9.46709 4.81861 8.94956 5.12368 8.6162C5.4287 8.28284 5.94625 8.25987 6.27959 8.56492L8.29783 10.6048L11.5952 6.0869C11.8485 5.71269 12.3572 5.61469 12.7314 5.868Z" fill="#F0F3F6"/>
</svg>
