<svg width="17" height="18" viewBox="0 0 17 18" fill="none" xmlns="http://www.w3.org/2000/svg">
<path fill-rule="evenodd" clip-rule="evenodd" d="M0 1C0 0.447693 0.447723 0 1 0H16C16.5523 0 17 0.447693 17 1V17C17 17.5523 16.5523 18 16 18C15.4477 18 15.0236 17.5339 14.8099 17.0247C14.5533 16.4133 14.0628 16 13.5 16C12.9372 16 12.4467 16.4133 12.1901 17.0247C11.9764 17.5339 11.5523 18 11 18C10.4477 18 10.0236 17.5339 9.80988 17.0247C9.55325 16.4133 9.06284 16 8.5 16C7.93716 16 7.44675 16.4133 7.19012 17.0247C6.97638 17.5339 6.55228 18 6 18C5.44772 18 5.02362 17.5339 4.80988 17.0247C4.55325 16.4133 4.06284 16 3.5 16C2.93716 16 2.44675 16.4133 2.19012 17.0247C1.97638 17.5339 1.55228 18 1 18C0.447723 18 0 17.5523 0 17V1ZM4 3C3.44772 3 3 3.44769 3 4C3 4.55231 3.44772 5 4 5H11C11.5523 5 12 4.55231 12 4C12 3.44769 11.5523 3 11 3H4ZM4 7C3.44772 7 3 7.44769 3 8C3 8.55231 3.44772 9 4 9H13C13.5523 9 14 8.55231 14 8C14 7.44769 13.5523 7 13 7H4ZM3 12C3 11.4477 3.44772 11 4 11H8C8.55228 11 9 11.4477 9 12C9 12.5523 8.55228 13 8 13H4C3.44772 13 3 12.5523 3 12Z" fill="#5C6577"/>
</svg>
