<svg width="14" height="14" viewBox="0 0 14 14" fill="none" xmlns="http://www.w3.org/2000/svg">
<path d="M3.39068 9.85739L0.437304 6.94079C0.381833 6.88623 0.33841 6.82091 0.309777 6.74895C0.281144 6.67698 0.267921 6.59993 0.270944 6.52267C0.273966 6.4454 0.293167 6.36959 0.327336 6.30003C0.361506 6.23046 0.4099 6.16864 0.469467 6.11847C1.83093 4.96461 3.70096 4.5714 5.41812 5.06142L8.50696 2.67596C8.45611 2.21758 8.51039 1.75378 8.66577 1.31895C8.82115 0.884129 9.07364 0.489437 9.40451 0.164157C9.51095 0.0590472 9.65529 0 9.8058 0C9.95631 0 10.1006 0.0590472 10.2071 0.164157L13.8336 3.74646C13.8864 3.79853 13.9282 3.86036 13.9568 3.9284C13.9853 3.99645 14 4.06939 14 4.14305C14 4.2167 13.9853 4.28964 13.9568 4.35769C13.9282 4.42573 13.8864 4.48756 13.8336 4.53963C13.5045 4.86664 13.1049 5.11617 12.6647 5.26967C12.2245 5.42316 11.7549 5.47668 11.2908 5.42623L8.96292 8.36788C9.58236 10.1224 9.21153 12.1169 7.97872 13.5361C7.92781 13.5948 7.86517 13.6424 7.79474 13.6761C7.72431 13.7097 7.6476 13.7286 7.56943 13.7315C7.49126 13.7345 7.41332 13.7214 7.34049 13.6932C7.26767 13.665 7.20154 13.6222 7.14625 13.5675L4.19363 10.6502L0.968192 13.8363C0.857323 13.9454 0.712019 14 0.567094 14C0.454906 13.9999 0.345265 13.967 0.252017 13.9054C0.158769 13.8437 0.0860949 13.7562 0.0431757 13.6538C0.000257492 13.5514 -0.0109816 13.4388 0.0108776 13.3301C0.0327377 13.2214 0.0867147 13.1215 0.165993 13.0431L3.39106 9.85739H3.39068Z" fill="#C2C5D2"/>
</svg>
