<svg width="16" height="16" viewBox="0 0 16 16" fill="none" xmlns="http://www.w3.org/2000/svg">
<path d="M12.129 2.07803C9.35831 -0.692677 4.8492 -0.692677 2.07856 2.07803C0.738268 3.41835 0 5.20298 0 7.10332C0 9.00366 0.738268 10.7883 2.07856 12.1286C3.41886 13.4689 5.20346 14.207 7.10377 14.207C8.74692 14.207 10.3022 13.653 11.5599 12.6371L14.6994 15.7767C14.8434 15.9207 15.0347 16 15.2382 16C15.4418 16 15.633 15.9207 15.777 15.7767C16.0743 15.4796 16.0743 14.9962 15.777 14.6991L12.6375 11.5595C13.6533 10.3018 14.2075 8.7465 14.2075 7.10332C14.2075 5.20298 13.4693 3.41835 12.129 2.07803ZM11.0514 11.051C8.87459 13.2274 5.33294 13.2271 3.15617 11.051C0.979375 8.87417 0.979375 5.33246 3.15617 3.15565C4.20884 2.10315 5.6109 1.52342 7.10377 1.52342C8.597 1.52342 9.9987 2.10315 11.0514 3.15565C13.2282 5.33246 13.2282 8.87417 11.0514 11.051Z" fill="#424A59"/>
</svg>
