<svg width="12" height="12" viewBox="0 0 12 12" fill="none" xmlns="http://www.w3.org/2000/svg">
<path d="M6 -2.38419e-07C2.69146 -2.38419e-07 0 2.69146 0 6C0 9.30854 2.69146 12 6 12C9.30854 12 12 9.30854 12 6C12 2.69146 9.30854 -2.38419e-07 6 -2.38419e-07ZM8.59999 6.40001L5.99987 6.4C5.89387 6.4 5.79187 6.358 5.71688 6.283L3 3.5655C2.84399 3.4095 2.84399 3.15601 3 3C3.15601 2.84399 3.4095 2.84399 3.5655 3L6.16539 5.59999L8.6 5.6C8.821 5.6 9 5.779 9 6C9 6.22101 8.82099 6.40001 8.59999 6.40001Z" fill="#6A7283"/>
</svg>
