<svg width="72" height="73" viewBox="0 0 72 73" fill="none" xmlns="http://www.w3.org/2000/svg">
<g clip-path="url(#clip0_2_939)">
<path d="M36 73C55.8823 73 72 56.6584 72 36.5C72 16.3416 55.8823 0 36 0C16.1178 0 0 16.3416 0 36.5C0 56.6584 16.1178 73 36 73Z" fill="#2DAAE1"/>
<path d="M59.0827 21.9809C57.3846 22.7449 55.5608 23.2613 53.6432 23.4935C55.6003 22.3053 57.0996 20.4224 57.8075 18.1815C55.9484 19.301 53.9138 20.0891 51.7921 20.5116C50.0654 18.6456 47.6033 17.4806 44.8792 17.4806C39.6506 17.4806 35.4102 21.7782 35.4102 27.0825C35.4102 27.8341 35.4937 28.5673 35.6542 29.2713C27.7832 28.8702 20.8051 25.0476 16.1343 19.239C15.3187 20.6576 14.8518 22.307 14.8518 24.0668C14.8518 27.3977 16.524 30.3365 19.0647 32.058C17.5606 32.0108 16.0895 31.5992 14.7744 30.8576V30.9789C14.7744 35.6316 18.0384 39.5111 22.3711 40.3934C21.5752 40.6145 20.7399 40.73 19.8758 40.73C19.2648 40.73 18.6721 40.6714 18.093 40.561C19.2982 44.3745 22.7958 47.1503 26.9388 47.2288C23.6976 49.8048 19.6135 51.3404 15.1777 51.3404C14.4137 51.3404 13.6586 51.2942 12.9174 51.2036C17.1091 53.9288 22.0862 55.5197 27.4346 55.5197C44.8535 55.5197 54.3799 40.8884 54.3799 28.2001C54.3799 27.7835 54.3709 27.37 54.3511 26.9581C56.2072 25.5969 57.8094 23.9116 59.0827 21.9809Z" fill="white"/>
</g>
<defs>
<clipPath id="clip0_2_939">
<rect width="72" height="73" fill="white"/>
</clipPath>
</defs>
</svg>
