<svg width="27" height="22" viewBox="0 0 27 22" fill="none" xmlns="http://www.w3.org/2000/svg">
<path d="M8.4912 22C18.6804 22 24.2525 13.5368 24.2525 6.19786C24.2525 5.9575 24.2476 5.71824 24.2368 5.47997C25.3209 4.69348 26.2566 3.71962 27 2.60405C26.0074 3.04643 24.9393 3.34419 23.8189 3.47845C24.9625 2.79081 25.8406 1.70321 26.2548 0.40659C25.1673 1.05338 23.9777 1.5093 22.7372 1.75471C21.7264 0.675197 20.2873 0 18.6937 0C15.6346 0 13.1539 2.48723 13.1539 5.55309C13.1539 5.98893 13.2026 6.41287 13.2976 6.81946C8.69361 6.58719 4.61114 4.3772 1.87892 1.01675C1.38683 1.86425 1.12798 2.82754 1.12882 3.80819C1.12882 5.73504 2.10679 7.43607 3.59394 8.4312C2.71428 8.40429 1.85391 8.16607 1.08515 7.73656C1.08433 7.75991 1.08433 7.78262 1.08433 7.80751C1.08433 10.4972 2.99379 12.7429 5.52849 13.2518C5.05243 13.3818 4.5612 13.4475 4.06779 13.4473C3.71837 13.447 3.36976 13.4135 3.02668 13.3471C3.73193 15.5538 5.77693 17.1596 8.20146 17.2045C6.3055 18.6944 3.91712 19.5818 1.32135 19.5818C0.87477 19.5818 0.433625 19.5564 0 19.505C2.45162 21.0805 5.36269 21.9997 8.49148 21.9997" fill="#1DA1F2"/>
</svg>
