<svg width="12" height="14" viewBox="0 0 12 14" fill="none" xmlns="http://www.w3.org/2000/svg">
<path d="M6.00271 6.45598C6.64122 6.45598 7.26539 6.26662 7.79627 5.91185C8.32714 5.55708 8.74088 5.05283 8.98515 4.46289C9.22942 3.87295 9.29324 3.22383 9.16855 2.59761C9.04386 1.97139 8.73625 1.39622 8.28464 0.94485C7.83302 0.493476 7.25769 0.186175 6.6314 0.0618166C6.00512 -0.0625416 5.35603 0.0016291 4.76622 0.246212C4.17641 0.490795 3.67239 0.904803 3.3179 1.43587C2.96341 1.96694 2.77438 2.5912 2.77472 3.22971C2.77609 4.08525 3.11667 4.90533 3.72179 5.51013C4.32691 6.11493 5.14717 6.45507 6.00271 6.45598Z" fill="#8A91AD"/>
<path d="M2.12728 14H9.87445C10.2397 14 10.59 13.8549 10.8483 13.5966C11.1066 13.3383 11.2517 12.988 11.2517 12.6227V12.3077C11.2167 10.9384 10.6481 9.63689 9.66715 8.68078C8.68625 7.72467 7.37065 7.18958 6.00087 7.18958C4.63108 7.18958 3.31548 7.72467 2.33458 8.68078C1.35367 9.63689 0.785068 10.9384 0.75 12.3077V12.6227C0.75 12.988 0.895105 13.3383 1.15339 13.5966C1.28129 13.7245 1.43312 13.826 1.60022 13.8952C1.76731 13.9644 1.94641 14 2.12728 14Z" fill="#8A91AD"/>
</svg>
