<svg width="20" height="20" viewBox="0 0 20 20" fill="none" xmlns="http://www.w3.org/2000/svg">
<path d="M19.192 11.9682C19.7097 11.4434 20 10.7359 20 9.99875C20 9.26159 19.7097 8.55408 19.192 8.02929L18.1763 7.02404C17.9465 6.78788 17.8177 6.47144 17.8173 6.14188V4.96226C17.8149 4.22575 17.5212 3.52011 17.0003 2.99932C16.4795 2.47853 15.7737 2.18488 15.0371 2.18244H13.8573C13.5278 2.18207 13.2113 2.05329 12.9751 1.82343L11.9697 0.807921C11.4449 0.29024 10.7372 0 10 0C9.26275 0 8.55515 0.29024 8.03029 0.807921L7.02492 1.82343C6.78873 2.05329 6.47225 2.18207 6.14265 2.18244H4.96288C4.22628 2.18488 3.52055 2.47853 2.9997 2.99932C2.47884 3.52011 2.18515 4.22575 2.18272 4.96226V6.14188C2.18234 6.47144 2.05354 6.78788 1.82365 7.02404L0.808022 8.02929C0.290276 8.55408 0 9.26159 0 9.99875C0 10.7359 0.290276 11.4434 0.808022 11.9682L1.82365 12.9735C2.05354 13.2096 2.18234 13.5261 2.18272 13.8556V15.0352C2.18515 15.7717 2.47884 16.4774 2.9997 16.9982C3.52055 17.519 4.22628 17.8126 4.96288 17.8151H6.14265C6.47225 17.8154 6.78873 17.9442 7.02492 18.1741L8.03029 19.1896C8.55437 19.7087 9.26227 20 10 20C10.7377 20 11.4456 19.7087 11.9697 19.1896L12.9751 18.1741C13.2113 17.9442 13.5278 17.8154 13.8573 17.8151H15.0371C15.7737 17.8126 16.4795 17.519 17.0003 16.9982C17.5212 16.4774 17.8149 15.7717 17.8173 15.0352V13.8556C17.8177 13.5261 17.9465 13.2096 18.1763 12.9735L19.192 11.9682ZM13.6214 8.49088L9.51783 12.5939C9.44654 12.6655 9.3618 12.7223 9.2685 12.7611C9.17519 12.7998 9.07515 12.8198 8.97411 12.8198C8.87307 12.8198 8.77303 12.7998 8.67972 12.7611C8.58642 12.7223 8.50169 12.6655 8.43039 12.5939L6.37861 10.5424C6.2427 10.3966 6.16871 10.2037 6.17222 10.0044C6.17574 9.80506 6.25649 9.6149 6.39746 9.47395C6.53843 9.333 6.72862 9.25225 6.92795 9.24874C7.12728 9.24522 7.3202 9.3192 7.46605 9.4551L8.97411 10.963L12.534 7.40357C12.6798 7.26768 12.8727 7.1937 13.0721 7.19721C13.2714 7.20073 13.4616 7.28147 13.6025 7.42242C13.7435 7.56338 13.8243 7.75354 13.8278 7.95285C13.8313 8.15215 13.7573 8.34504 13.6214 8.49088Z" fill="#3378FF"/>
</svg>
