<svg width="23" height="17" viewBox="0 0 23 17" fill="none" xmlns="http://www.w3.org/2000/svg">
<path fill-rule="evenodd" clip-rule="evenodd" d="M10.9023 16.7711C10.9614 16.7722 11.0207 16.7727 11.0802 16.7727C11.9758 16.7727 12.8367 16.6157 13.6396 16.3262C18.8542 14.7279 22.3636 9.33657 22.3636 8.38636C22.3636 7.43615 18.8542 2.04484 13.6396 0.446541C12.8367 0.157053 11.9758 0 11.0802 0C11.0207 0 10.9614 0.000559225 10.9023 0.00166862C10.8432 0.000559225 10.7838 0 10.7244 0C9.74497 0 8.80704 0.187823 7.94102 0.531272C3.00101 2.2268 0 7.4523 0 8.38636C0 9.32043 3.00101 14.5459 7.94102 16.2415C8.80704 16.5849 9.74497 16.7727 10.7244 16.7727C10.7838 16.7727 10.8432 16.7722 10.9023 16.7711ZM11.1818 11.7409C13.0344 11.7409 14.5363 10.239 14.5363 8.38633C14.5363 6.53367 13.0344 5.03178 11.1818 5.03178C9.32912 5.03178 7.82724 6.53367 7.82724 8.38633C7.82724 10.239 9.32912 11.7409 11.1818 11.7409Z" fill="#8995AE"/>
</svg>
