<svg width="17" height="17" viewBox="0 0 17 17" fill="none" xmlns="http://www.w3.org/2000/svg">
<path d="M8.5 0C3.80588 0 0 3.80588 0 8.5C0 13.1941 3.80588 17 8.5 17C13.1941 17 17 13.1941 17 8.5C17 3.80588 13.1941 0 8.5 0ZM8.5 13.5278C8.03675 13.5278 7.65637 13.1516 7.65637 12.6884C7.65637 12.2209 8.03463 11.8447 8.5 11.8447C8.96537 11.8447 9.34363 12.2209 9.34363 12.6884C9.34363 13.1516 8.96325 13.5278 8.5 13.5278ZM9.18213 10.4444C9.18213 10.8162 8.87613 11.1265 8.5 11.1265C8.12387 11.1265 7.81788 10.8184 7.81788 10.4444L7.25263 4.3945C7.25263 3.8845 7.81363 3.47012 8.5 3.47012C8.84 3.47012 9.15238 3.57638 9.38188 3.74C9.60713 3.90788 9.74737 4.13737 9.74737 4.39237L9.18213 10.4444Z" fill="#FFB038"/>
</svg>
