<?xml version="1.0" standalone="no"?>
<!DOCTYPE svg PUBLIC "-//W3C//DTD SVG 20010904//EN"
 "http://www.w3.org/TR/2001/REC-SVG-20010904/DTD/svg10.dtd">
<svg version="1.0" xmlns="http://www.w3.org/2000/svg"
 width="960.000000pt" height="960.000000pt" viewBox="0 0 960.000000 960.000000"
 preserveAspectRatio="xMidYMid meet">
<metadata>
Created by potrace 1.14, written by Peter Selinger 2001-2017
</metadata>
<g transform="translate(0.000000,960.000000) scale(0.100000,-0.100000)"
fill="#000000" stroke="none">
<path d="M4487 9434 c-1 -1 -42 -5 -92 -8 -134 -8 -256 -20 -304 -30 -14 -3
-47 -8 -75 -11 -28 -3 -58 -8 -66 -10 -8 -2 -28 -7 -45 -10 -16 -3 -43 -8 -60
-11 -16 -4 -39 -8 -50 -9 -11 -2 -20 -4 -20 -5 0 -2 -9 -4 -20 -5 -11 -1 -40
-8 -65 -15 -25 -7 -54 -14 -65 -16 -86 -17 -465 -144 -465 -156 0 -2 82 -3
183 -3 100 0 192 -3 204 -7 12 -4 25 -3 28 3 4 5 11 7 16 3 5 -3 79 -7 164
-10 220 -5 458 -15 725 -29 91 -5 145 -8 330 -21 47 -3 112 -7 145 -9 33 -2
60 -4 60 -5 0 -1 19 -2 42 -3 45 -1 49 -11 5 -13 -24 -1 -122 -8 -262 -19 -42
-3 -145 -9 -350 -21 -133 -7 -281 -13 -455 -19 -88 -3 -209 -7 -270 -10 -142
-5 -647 -17 -840 -20 -163 -2 -161 -1 -303 -88 -20 -12 -54 -31 -74 -42 -21
-11 -38 -23 -38 -27 0 -5 -5 -8 -11 -8 -5 0 -48 -26 -95 -57 -47 -32 -93 -62
-102 -68 -9 -5 -25 -18 -36 -27 -11 -10 -23 -18 -28 -18 -4 0 -8 -3 -8 -8 0
-4 289 -9 643 -10 353 -1 804 -5 1002 -8 198 -3 366 -5 373 -5 6 1 18 1 25 1
16 0 313 -7 582 -15 193 -5 265 -7 595 -20 142 -5 320 -14 420 -20 41 -2 129
-7 195 -11 66 -4 136 -8 155 -9 19 -2 50 -3 69 -4 36 -1 34 -15 -2 -17 -12 -1
-67 -4 -122 -8 -249 -16 -393 -24 -565 -31 -74 -3 -179 -7 -234 -10 -120 -6
-404 -15 -621 -20 -911 -20 -1272 -24 -2141 -25 l-641 0 -64 -57 c-91 -83
-289 -282 -289 -291 0 -4 71 -6 158 -4 86 2 625 4 1197 5 1508 1 2550 -16
3515 -59 221 -10 499 -25 530 -28 14 -2 52 -4 84 -5 79 -1 65 -12 -21 -16 -37
-2 -106 -6 -153 -9 -47 -3 -134 -8 -195 -11 -60 -3 -155 -8 -210 -10 -269 -14
-835 -33 -1220 -41 -110 -3 -207 -5 -215 -5 -8 0 -24 0 -35 1 -11 0 -193 -2
-405 -6 -405 -8 -2502 -10 -2943 -3 -173 2 -260 0 -265 -7 -4 -6 -39 -53 -78
-105 -89 -117 -174 -240 -174 -251 0 -4 136 -6 303 -3 166 3 628 8 1027 10
399 2 727 5 730 6 3 1 9 1 15 -1 5 -1 385 -3 845 -6 459 -2 936 -6 1060 -8
357 -7 785 -18 915 -22 66 -3 134 -4 150 -3 17 0 35 1 40 0 6 0 71 -3 145 -6
193 -7 590 -23 695 -28 28 -2 55 -6 62 -10 6 -4 14 -4 17 1 3 5 20 7 38 5 31
-3 64 -5 277 -18 90 -6 120 -14 55 -16 -21 0 -64 -2 -94 -4 -162 -11 -370 -21
-610 -30 -74 -2 -196 -7 -270 -10 -410 -17 -1105 -34 -1698 -40 -227 -2 -422
-7 -432 -10 -11 -4 -20 -2 -20 4 0 6 -11 7 -27 2 -36 -9 -2195 -7 -2210 2 -6
4 -14 3 -17 -2 -3 -5 -21 -6 -39 -2 -18 5 -41 5 -52 1 -11 -4 -24 -5 -28 -3
-9 5 -921 18 -978 14 -16 -1 -32 -25 -101 -161 -23 -47 -46 -86 -50 -88 -5 -2
-8 -8 -8 -13 0 -5 -11 -32 -25 -61 -14 -28 -25 -53 -25 -55 0 -2 148 -3 330
-1 181 2 330 6 330 9 0 4 17 3 38 -1 21 -3 47 -3 58 0 10 4 29 4 41 -1 12 -5
24 -5 27 -1 2 4 496 9 1097 10 602 2 1097 6 1101 8 5 3 8 2 8 -3 0 -4 224 -9
498 -10 273 -1 506 -2 517 -2 11 -1 27 -1 35 -1 30 1 652 -9 860 -15 645 -16
1028 -29 1470 -50 69 -4 153 -7 187 -8 35 -1 63 -4 63 -7 0 -3 24 -5 52 -4 29
1 64 -2 78 -7 21 -6 19 -8 -15 -7 -22 0 -76 -3 -120 -6 -101 -8 -384 -22 -635
-31 -63 -2 -115 -4 -115 -5 0 0 -67 -3 -150 -5 -82 -2 -226 -7 -320 -10 -1311
-42 -3790 -51 -5228 -19 l-277 6 -21 -48 c-24 -53 -106 -290 -111 -320 -2 -15
4 -19 32 -20 19 -1 40 -3 45 -4 6 -1 15 -1 20 0 13 3 1198 21 1375 21 8 0 67
0 130 0 63 0 401 0 750 -1 349 0 644 0 655 0 67 1 120 -2 126 -6 4 -2 10 0 14
6 4 6 10 8 15 5 5 -3 249 -8 542 -11 872 -8 1514 -21 2008 -39 69 -3 192 -7
274 -10 82 -3 151 -7 154 -9 2 -3 14 -1 27 4 13 5 26 6 30 2 4 -4 37 -8 73 -9
89 -3 287 -12 287 -13 0 -1 146 -9 237 -13 41 -2 41 -11 0 -13 -15 -1 -76 -4
-137 -7 -220 -13 -332 -18 -421 -21 -50 -2 -96 -6 -102 -10 -6 -3 -13 -2 -17
4 -4 6 -11 8 -16 4 -5 -3 -65 -8 -132 -10 -494 -17 -953 -29 -1462 -39 -99 -2
-481 -6 -849 -9 -368 -4 -673 -9 -677 -12 -5 -3 -17 0 -27 5 -11 6 -22 8 -25
5 -7 -8 -674 -7 -686 1 -6 3 -11 2 -11 -3 0 -4 -24 -7 -52 -6 -29 1 -429 5
-888 9 -826 6 -1139 10 -1274 16 -54 2 -71 -1 -74 -12 -2 -8 -6 -21 -9 -29 -4
-8 -6 -18 -5 -22 1 -4 -5 -33 -13 -65 -14 -58 -22 -92 -31 -148 -3 -16 -9 -47
-14 -67 -5 -27 -4 -38 4 -39 14 -1 161 -1 161 1 0 5 1132 12 1955 12 959 0
1557 -5 2220 -17 146 -3 347 -6 447 -8 101 -1 183 -4 183 -7 0 -3 64 -5 143
-6 136 -1 448 -10 647 -19 292 -13 538 -25 605 -29 28 -2 77 -4 109 -5 122 -2
39 -14 -184 -26 -47 -2 -130 -7 -185 -10 -435 -23 -977 -39 -2100 -62 -434 -8
-3285 -9 -3717 -1 -239 5 -318 3 -319 -5 -1 -7 -2 -23 -4 -37 -9 -78 -19 -213
-19 -265 l-1 -60 250 4 c905 14 3168 1 4085 -24 118 -3 286 -7 372 -9 86 -3
161 -7 167 -10 5 -4 12 -2 16 4 4 6 11 7 17 4 6 -4 47 -8 92 -9 103 -4 365
-15 476 -21 47 -2 137 -7 200 -10 63 -3 138 -7 165 -9 28 -2 65 -5 83 -6 62
-4 21 -13 -76 -16 -53 -2 -124 -5 -157 -7 -33 -3 -118 -7 -190 -10 -71 -4
-177 -8 -235 -11 -121 -6 -313 -13 -520 -20 -80 -3 -157 -6 -172 -9 -16 -2
-28 1 -28 6 0 5 -5 6 -11 2 -7 -4 -66 -8 -133 -10 -267 -6 -697 -15 -986 -20
-406 -7 -2895 -10 -3179 -4 -122 3 -227 2 -233 -1 -10 -6 -11 -81 -3 -204 2
-33 5 -79 6 -102 1 -24 4 -43 8 -43 3 -1 584 -3 1291 -5 707 -2 1382 -6 1500
-9 959 -21 1445 -36 1945 -61 340 -17 416 -22 423 -30 3 -3 -15 -6 -39 -6 -24
-1 -64 -3 -89 -4 -210 -13 -275 -17 -345 -20 -44 -2 -80 -4 -80 -5 0 0 -58 -3
-130 -5 -71 -2 -191 -7 -265 -10 -253 -10 -405 -15 -615 -20 -115 -3 -225 -7
-242 -8 -18 -2 -33 1 -33 6 0 4 -5 5 -12 1 -13 -8 -265 -14 -740 -17 -159 -1
-288 -6 -288 -10 0 -4 -8 -3 -19 2 -10 6 -21 7 -25 4 -3 -4 -502 -7 -1109 -7
-1094 -1 -1102 -1 -1102 -21 -1 -11 3 -40 8 -65 4 -25 10 -61 12 -80 5 -43 31
-170 36 -174 2 -2 423 -6 934 -10 512 -3 1025 -8 1140 -11 116 -2 302 -7 415
-10 313 -7 675 -19 945 -31 77 -3 181 -7 230 -9 50 -2 90 -4 90 -5 0 -1 43 -3
95 -5 52 -2 140 -7 195 -11 55 -4 115 -8 133 -7 30 0 48 -13 20 -14 -71 -4
-239 -14 -303 -18 -75 -4 -190 -10 -428 -20 -54 -2 -102 -7 -107 -10 -6 -3
-10 -1 -10 5 0 6 -4 8 -10 5 -5 -3 -65 -8 -132 -10 -313 -11 -448 -15 -643
-20 -254 -7 -695 -16 -712 -16 -25 2 -71 1 -463 -3 -217 -3 -607 -5 -866 -6
l-472 -1 20 -67 c10 -37 35 -114 54 -172 l34 -106 106 1 c58 0 110 -3 116 -6
6 -4 25 -3 44 1 19 4 37 4 40 -1 3 -5 13 -5 24 1 13 7 21 7 25 0 5 -8 11 -8
19 -1 7 6 16 8 19 5 10 -10 50 -11 70 -2 9 5 17 5 17 1 0 -4 116 -9 258 -10
364 -2 897 -14 1242 -28 80 -4 192 -8 249 -10 58 -2 150 -7 205 -9 56 -3 153
-8 216 -11 115 -6 250 -14 325 -20 22 -2 62 -4 89 -4 105 -2 6 -17 -169 -26
-44 -2 -118 -6 -165 -9 -142 -9 -264 -16 -413 -22 -78 -3 -187 -7 -242 -10
-55 -3 -106 -4 -112 -4 -7 0 -19 0 -25 0 -7 1 -80 -1 -163 -4 -402 -14 -939
-26 -1412 -30 -150 -1 -275 -5 -277 -7 -2 -2 8 -29 21 -59 14 -30 36 -78 49
-107 13 -28 29 -55 34 -58 6 -4 8 -10 5 -15 -2 -4 4 -19 15 -33 11 -14 20 -32
20 -40 0 -25 31 -42 84 -44 28 -1 143 -4 256 -7 280 -7 511 -14 660 -21 69 -3
170 -8 225 -10 55 -2 143 -6 195 -10 52 -3 133 -7 180 -10 47 -3 128 -8 180
-11 52 -4 114 -7 138 -7 43 0 60 -16 20 -18 -13 -1 -32 -3 -43 -4 -18 -2 -159
-12 -285 -20 -85 -6 -285 -16 -375 -20 -176 -8 -461 -18 -512 -19 -29 0 -53
-4 -53 -9 0 -4 -5 -5 -12 -1 -7 5 -26 7 -43 6 -16 -1 -131 -4 -255 -7 -124 -4
-227 -8 -229 -10 -2 -3 5 -17 15 -32 25 -37 42 -65 50 -83 4 -8 10 -17 13 -20
11 -9 51 -69 51 -75 0 -4 6 -12 12 -20 7 -7 45 -56 83 -109 l70 -96 45 -1 c25
0 68 -2 95 -4 28 -2 88 -6 135 -9 89 -6 191 -13 273 -19 44 -3 82 -17 41 -15
-11 1 -62 -2 -114 -7 -52 -4 -122 -9 -155 -11 -195 -12 -230 -15 -237 -22 -4
-4 18 -37 50 -72 76 -87 353 -363 422 -422 132 -112 188 -158 194 -158 3 0 15
-8 25 -18 11 -9 41 -33 68 -52 26 -19 51 -39 55 -45 5 -7 8 -7 8 0 0 7 3 7 8
0 12 -17 80 -65 91 -65 6 0 11 -4 11 -10 0 -5 7 -10 15 -10 8 0 15 -4 15 -10
0 -5 4 -10 10 -10 5 0 36 -17 67 -37 131 -83 342 -194 518 -270 44 -19 98 -43
120 -52 22 -10 96 -37 165 -60 69 -24 132 -46 140 -49 8 -3 20 -7 25 -7 6 -1
17 -5 25 -8 16 -6 126 -37 150 -42 8 -2 35 -8 60 -14 52 -12 66 -13 58 -5 -3
3 -2 21 4 41 5 19 11 45 14 57 3 17 13 62 19 86 1 3 7 25 15 50 7 25 14 52 15
60 1 8 8 35 15 60 6 25 12 46 11 47 0 2 7 22 15 45 9 24 17 50 19 58 1 8 19
62 39 120 20 58 39 112 41 120 23 85 221 502 268 564 4 6 31 47 59 91 29 44
56 85 60 90 150 196 293 352 417 455 30 25 59 50 65 55 6 6 27 22 46 35 19 13
37 27 40 30 10 10 126 88 165 110 39 22 97 55 163 92 17 10 33 17 35 16 2 -1
52 21 122 52 68 31 339 114 414 126 14 3 60 12 101 20 41 9 82 17 90 19 17 3
96 15 150 21 19 3 51 7 70 9 117 15 441 42 610 50 52 3 129 7 170 10 41 3 113
7 159 10 122 7 291 22 341 30 14 2 50 7 80 10 66 8 247 39 310 55 25 6 55 13
68 16 70 15 245 80 338 125 96 47 242 139 284 179 9 8 39 36 66 61 96 89 191
205 199 243 11 56 15 74 30 164 9 51 13 97 10 102 -3 5 -2 11 3 14 4 3 9 25
11 50 1 24 4 55 6 68 19 94 25 528 11 738 -4 63 -8 130 -9 147 -1 18 -4 33 -7
33 -3 0 -5 17 -6 38 0 20 -4 57 -8 82 -10 66 -25 151 -31 185 -3 17 -7 39 -9
50 -21 128 -120 492 -163 595 -3 8 -7 20 -8 25 -4 18 -56 149 -66 169 -6 10
-12 26 -14 35 -4 20 -71 165 -135 292 -74 146 -84 164 -92 167 -5 2 -8 8 -8
14 0 6 -18 39 -40 74 -22 35 -40 66 -40 69 0 3 -5 11 -11 18 -6 7 -27 37 -47
69 -62 95 -125 183 -136 190 -6 4 -8 8 -4 8 3 0 -2 10 -13 23 -10 12 -49 60
-86 107 -134 169 -333 379 -487 514 -32 28 -64 56 -70 61 -6 6 -36 30 -66 55
-30 25 -57 47 -60 50 -3 3 -23 18 -45 35 -22 16 -42 31 -45 34 -3 4 -12 11
-21 16 -46 28 -144 100 -147 107 -2 4 -7 8 -12 8 -5 0 -41 22 -82 48 -40 27
-80 52 -88 55 -8 4 -28 16 -45 27 -16 11 -47 27 -67 37 -21 10 -38 21 -38 25
0 5 -9 8 -20 8 -11 0 -20 3 -20 8 0 4 -25 18 -55 32 -30 14 -55 27 -55 30 0 3
-10 6 -22 7 -11 1 -24 6 -27 10 -3 4 -35 21 -71 37 -36 16 -73 32 -82 37 -84
43 -414 159 -550 195 -5 1 -9 2 -10 4 -2 1 -12 3 -23 5 -11 2 -56 13 -99 24
-44 11 -83 18 -88 15 -4 -3 -8 0 -8 6 0 7 -6 10 -12 7 -7 -2 -26 0 -43 5 -32
9 -42 11 -150 29 -91 15 -100 16 -165 24 -30 4 -66 8 -80 10 -96 13 -623 28
-633 19z"/>
<path d="M9080 4178 c-30 -46 -57 -85 -60 -88 -3 -3 -27 -32 -55 -65 -57 -68
-131 -143 -196 -197 -24 -21 -51 -44 -59 -51 -8 -7 -31 -24 -50 -37 -19 -13
-37 -27 -40 -30 -3 -3 -14 -10 -25 -16 -48 -26 -70 -39 -75 -44 -3 -3 -23 -14
-45 -25 -22 -11 -43 -24 -46 -28 -3 -5 -9 -8 -13 -7 -3 0 -28 -9 -54 -20 -81
-37 -260 -100 -327 -116 -5 -1 -50 -12 -100 -24 -49 -12 -101 -23 -115 -25
-14 -2 -34 -6 -45 -8 -11 -3 -42 -8 -68 -11 -27 -4 -57 -9 -66 -11 -10 -2 -42
-6 -72 -9 -30 -3 -65 -8 -79 -10 -14 -3 -59 -7 -100 -11 -41 -3 -102 -8 -135
-11 -33 -2 -94 -7 -135 -9 -41 -2 -75 -4 -75 -5 0 0 -43 -3 -95 -5 -52 -2
-126 -7 -165 -10 -142 -11 -192 -14 -280 -20 -49 -3 -108 -8 -130 -11 -22 -3
-59 -8 -82 -10 -108 -10 -137 -14 -273 -39 -80 -14 -152 -27 -160 -29 -43 -9
-206 -53 -230 -63 -8 -4 -18 -7 -22 -8 -5 -2 -9 -3 -10 -5 -2 -1 -10 -3 -18
-5 -66 -13 -390 -169 -390 -187 0 -4 -5 -8 -11 -8 -14 0 -159 -102 -159 -112
0 -4 -5 -8 -11 -8 -40 0 -324 -288 -427 -433 -20 -29 -39 -54 -42 -57 -3 -3
-25 -36 -49 -75 -24 -38 -54 -86 -66 -105 -12 -20 -34 -60 -49 -90 -15 -30
-31 -62 -36 -70 -14 -22 -68 -144 -100 -225 -15 -38 -31 -79 -35 -90 -5 -11
-9 -22 -10 -25 -1 -3 -4 -12 -8 -20 -7 -18 -38 -110 -41 -125 -2 -5 -6 -17 -9
-25 -11 -25 -77 -259 -82 -292 -3 -17 -8 -34 -10 -38 -2 -4 -7 -20 -9 -36 -6
-29 -8 -40 -25 -106 -5 -20 -6 -39 -3 -42 3 -4 1 -6 -4 -6 -5 0 -10 -8 -10
-17 -1 -22 -11 -78 -23 -135 -6 -24 -13 -59 -16 -78 -3 -19 -10 -53 -15 -75
-5 -22 -8 -41 -6 -42 1 -2 13 23 26 55 13 31 28 60 34 64 6 4 7 8 3 8 -8 0
119 250 132 260 3 3 15 22 26 43 11 20 22 37 26 37 4 0 12 14 19 30 7 17 16
30 21 30 5 0 9 5 9 10 0 17 146 200 245 309 147 161 410 400 595 541 25 19 47
37 50 40 3 3 12 10 21 15 19 11 189 130 204 143 11 8 103 65 150 92 139 80
188 106 310 165 77 37 151 72 165 77 14 6 33 14 43 19 16 8 124 51 137 54 3 1
18 7 34 14 15 6 72 25 125 42 53 17 114 37 136 45 43 15 268 69 325 78 19 3
46 8 60 11 36 8 69 13 125 20 28 3 64 8 80 10 17 3 66 7 110 11 44 3 92 7 108
8 15 2 27 -2 27 -9 0 -6 -10 -11 -22 -11 -47 -1 -324 -62 -449 -98 -31 -9 -65
-18 -75 -20 -30 -7 -242 -81 -311 -109 -35 -14 -63 -23 -63 -19 0 4 -4 2 -8
-3 -4 -6 -34 -21 -67 -34 -33 -14 -63 -29 -67 -35 -4 -6 -8 -7 -8 -3 0 14
-356 -173 -489 -257 -169 -106 -476 -332 -557 -411 -6 -5 -42 -37 -80 -70 -88
-77 -399 -388 -484 -484 -36 -40 -78 -89 -95 -107 -93 -105 -154 -182 -210
-266 -31 -46 -59 -88 -63 -94 -21 -30 -91 -167 -125 -244 -23 -52 -90 -251
-85 -255 2 -2 22 13 45 33 62 55 81 71 147 121 34 25 66 51 71 57 12 14 235
104 257 104 8 0 18 3 22 7 3 4 12 8 19 9 7 1 41 10 77 19 36 9 74 19 85 21 11
2 31 6 45 9 14 2 39 7 55 9 17 2 48 7 70 11 84 12 124 16 260 20 77 2 142 5
145 6 20 5 359 -13 490 -26 30 -3 87 -8 125 -11 39 -2 86 -6 105 -9 63 -8 196
-18 405 -31 98 -6 345 -7 413 -2 24 2 42 -1 42 -7 0 -7 3 -7 8 0 4 6 16 10 27
11 28 2 135 13 165 18 14 3 44 7 68 10 86 11 326 76 422 113 8 4 17 7 20 8 46
16 143 56 160 66 8 5 22 12 30 15 76 31 310 168 318 186 2 5 8 8 14 8 17 0
208 159 294 245 68 68 140 148 215 242 79 98 220 334 291 488 71 154 98 222
90 229 -3 3 0 6 6 6 7 0 11 3 10 8 -1 4 12 50 29 102 32 96 80 264 89 310 5
30 11 56 19 90 7 32 16 79 21 105 6 35 14 79 19 102 3 12 8 41 11 65 3 24 7
54 9 68 31 222 36 546 11 676 -3 12 -7 39 -10 60 -6 34 -10 62 -22 126 -7 40
-54 206 -66 236 l-14 33 -54 -83z"/>
</g>
</svg>
