<svg width="78" height="85" viewBox="0 0 78 85" fill="none" xmlns="http://www.w3.org/2000/svg">
<path fill-rule="evenodd" clip-rule="evenodd" d="M70.5 8.72768C65.5 2.90922 58.6667 0 50 0H0V14.0312C4.63688 11.9039 9.9833 10.8402 16.0393 10.8402C24.4997 10.8402 30.6028 12.6374 34.3486 16.2318C38.159 19.7608 40.0643 24.2374 40.0643 29.6616C40.0643 32.8639 39.3861 35.478 38.0299 37.5039C36.6736 39.5298 34.2518 42.1439 30.7643 45.3462C29.4726 46.5225 28.407 47.5681 27.5674 48.4831C26.7924 49.3326 25.9528 50.6397 25.0486 52.4042C24.209 54.1687 23.7893 55.9986 23.7893 57.8938H8.28926C8.28926 51.4893 9.96843 46.5225 13.3268 42.9935C14.0372 42.2746 15.0059 41.327 16.233 40.1507C17.4601 38.9743 18.2997 38.1574 18.7518 37.6999C19.2038 37.1771 19.6236 36.5563 20.0111 35.8374C20.4632 35.0532 20.6893 34.3016 20.6893 33.5828C20.6893 29.5963 17.8153 27.603 12.0674 27.603C7.06551 27.603 3.04305 29.0314 0 31.888V85H32V60.7143H50C58.5833 60.7143 65.375 57.8051 70.375 51.9866C75.4583 46.1682 78 38.9583 78 30.3571C78 21.756 75.5 14.5461 70.5 8.72768ZM16.0393 61.0307C13.4559 61.0307 11.2601 61.9456 9.45176 63.7755C7.64343 65.6053 6.73926 67.8273 6.73926 70.4414C6.73926 73.0555 7.64343 75.2775 9.45176 77.1073C11.2601 78.9372 13.4559 79.8521 16.0393 79.8521C18.6226 79.8521 20.8184 78.9372 22.6268 77.1073C24.4351 75.2775 25.3393 73.0555 25.3393 70.4414C25.3393 67.8273 24.4351 65.6053 22.6268 63.7755C20.8184 61.9456 18.6226 61.0307 16.0393 61.0307Z" fill="url(#paint0_linear_13_174)" style="mix-blend-mode:overlay"/>
<defs>
<linearGradient id="paint0_linear_13_174" x1="39" y1="0" x2="39" y2="85" gradientUnits="userSpaceOnUse">
<stop stop-color="white"/>
<stop offset="0.0001" stop-color="white"/>
<stop offset="1" stop-color="white" stop-opacity="0"/>
<stop offset="1" stop-color="white" stop-opacity="0"/>
</linearGradient>
</defs>
</svg>
