<svg width="155" height="27" viewBox="0 0 155 27" fill="none" xmlns="http://www.w3.org/2000/svg">
<g clip-path="url(#clip0_357_2242)">
<path d="M23.6526 20.6943H31.6477L11.8422 0.888672H3.84702L23.6526 20.6943Z" fill="#7476ED"/>
<path d="M15.9497 0.888673L35.0419 19.9809V0.888672H29.8752V6.91644L23.8474 0.888672L15.9497 0.888673Z" fill="#E56F8C"/>
<path d="M0.5 1.55176V20.6942H5.66667V14.6664L11.6944 20.6942H19.6425L0.5 1.55176Z" fill="#64C2DB"/>
<path d="M47.5098 17.7165H52.1391V20.4445H43.9758V5.93652H47.5098V17.7165Z" fill="#3A3B7B"/>
<path d="M58.4541 20.6098C57.3243 20.6098 56.3047 20.3687 55.3954 19.8864C54.4998 19.4042 53.7903 18.7153 53.2667 17.8198C52.757 16.9242 52.5021 15.8771 52.5021 14.6784C52.5021 13.4936 52.7638 12.4533 53.2874 11.5578C53.811 10.6484 54.5274 9.95262 55.4367 9.4704C56.3461 8.98818 57.3656 8.74707 58.4954 8.74707C59.6252 8.74707 60.6447 8.98818 61.5541 9.4704C62.4634 9.95262 63.1798 10.6484 63.7034 11.5578C64.227 12.4533 64.4887 13.4936 64.4887 14.6784C64.4887 15.8633 64.2201 16.9104 63.6827 17.8198C63.1592 18.7153 62.4358 19.4042 61.5127 19.8864C60.6034 20.3687 59.5838 20.6098 58.4541 20.6098ZM58.4541 17.5511C59.1292 17.5511 59.701 17.3031 60.1694 16.8071C60.6516 16.3111 60.8927 15.6016 60.8927 14.6784C60.8927 13.7553 60.6585 13.0458 60.1901 12.5498C59.7354 12.0538 59.1705 11.8058 58.4954 11.8058C57.8065 11.8058 57.2347 12.0538 56.7801 12.5498C56.3254 13.032 56.0981 13.7416 56.0981 14.6784C56.0981 15.6016 56.3185 16.3111 56.7594 16.8071C57.2141 17.3031 57.779 17.5511 58.4541 17.5511Z" fill="#3A3B7B"/>
<path d="M70.1249 8.74707C70.9378 8.74707 71.6474 8.9124 72.2536 9.24307C72.8736 9.57374 73.3489 10.0078 73.6796 10.5451V8.9124H77.2136V20.4238C77.2136 21.4847 77 22.4422 76.5729 23.2964C76.1596 24.1644 75.5189 24.8533 74.6509 25.3631C73.7967 25.8729 72.7289 26.1278 71.4476 26.1278C69.7391 26.1278 68.3545 25.7213 67.2936 24.9084C66.2327 24.1093 65.6265 23.0209 65.4749 21.6431H68.9676C69.0778 22.084 69.3396 22.4284 69.7529 22.6764C70.1663 22.9382 70.676 23.0691 71.2823 23.0691C72.0125 23.0691 72.5911 22.8556 73.0183 22.4284C73.4591 22.0151 73.6796 21.3469 73.6796 20.4238V18.7911C73.3351 19.3284 72.8598 19.7693 72.2536 20.1138C71.6474 20.4444 70.9378 20.6098 70.1249 20.6098C69.1743 20.6098 68.3131 20.3687 67.5416 19.8864C66.77 19.3904 66.1569 18.6947 65.7023 17.7991C65.2614 16.8898 65.0409 15.8427 65.0409 14.6578C65.0409 13.4729 65.2614 12.4327 65.7023 11.5371C66.1569 10.6416 66.77 9.95262 67.5416 9.4704C68.3131 8.98818 69.1743 8.74707 70.1249 8.74707ZM73.6796 14.6784C73.6796 13.7967 73.4316 13.1009 72.9356 12.5911C72.4534 12.0813 71.8609 11.8264 71.1583 11.8264C70.4556 11.8264 69.8563 12.0813 69.3603 12.5911C68.878 13.0871 68.6369 13.776 68.6369 14.6578C68.6369 15.5396 68.878 16.2422 69.3603 16.7658C69.8563 17.2756 70.4556 17.5304 71.1583 17.5304C71.8609 17.5304 72.4534 17.2756 72.9356 16.7658C73.4316 16.256 73.6796 15.5602 73.6796 14.6784Z" fill="#3A3B7B"/>
<path d="M84.3996 20.6098C83.2698 20.6098 82.2503 20.3687 81.3409 19.8864C80.4454 19.4042 79.7358 18.7153 79.2123 17.8198C78.7025 16.9242 78.4476 15.8771 78.4476 14.6784C78.4476 13.4936 78.7094 12.4533 79.2329 11.5578C79.7565 10.6484 80.4729 9.95262 81.3823 9.4704C82.2916 8.98818 83.3112 8.74707 84.4409 8.74707C85.5707 8.74707 86.5903 8.98818 87.4996 9.4704C88.4089 9.95262 89.1254 10.6484 89.6489 11.5578C90.1725 12.4533 90.4343 13.4936 90.4343 14.6784C90.4343 15.8633 90.1656 16.9104 89.6283 17.8198C89.1047 18.7153 88.3814 19.4042 87.4583 19.8864C86.5489 20.3687 85.5294 20.6098 84.3996 20.6098ZM84.3996 17.5511C85.0747 17.5511 85.6465 17.3031 86.1149 16.8071C86.5972 16.3111 86.8383 15.6016 86.8383 14.6784C86.8383 13.7553 86.6041 13.0458 86.1356 12.5498C85.6809 12.0538 85.1161 11.8058 84.4409 11.8058C83.7521 11.8058 83.1803 12.0538 82.7256 12.5498C82.2709 13.032 82.0436 13.7416 82.0436 14.6784C82.0436 15.6016 82.2641 16.3111 82.7049 16.8071C83.1596 17.3031 83.7245 17.5511 84.3996 17.5511Z" fill="#3A3B7B"/>
<path d="M93.4665 7.71396C92.8465 7.71396 92.3367 7.53484 91.9371 7.17662C91.5514 6.80462 91.3585 6.34996 91.3585 5.81262C91.3585 5.26151 91.5514 4.80685 91.9371 4.44863C92.3367 4.07663 92.8465 3.89062 93.4665 3.89062C94.0727 3.89062 94.5687 4.07663 94.9545 4.44863C95.354 4.80685 95.5538 5.26151 95.5538 5.81262C95.5538 6.34996 95.354 6.80462 94.9545 7.17662C94.5687 7.53484 94.0727 7.71396 93.4665 7.71396ZM95.2231 8.91263V20.4446H91.6891V8.91263H95.2231Z" fill="#3A3B7B"/>
<path d="M100.698 10.5451C101.043 10.0078 101.518 9.57374 102.124 9.24307C102.73 8.9124 103.44 8.74707 104.253 8.74707C105.204 8.74707 106.065 8.98818 106.836 9.4704C107.608 9.95262 108.214 10.6416 108.655 11.5371C109.11 12.4327 109.337 13.4729 109.337 14.6578C109.337 15.8427 109.11 16.8898 108.655 17.7991C108.214 18.6947 107.608 19.3904 106.836 19.8864C106.065 20.3687 105.204 20.6098 104.253 20.6098C103.454 20.6098 102.744 20.4444 102.124 20.1138C101.518 19.7831 101.043 19.356 100.698 18.8324V25.9418H97.1642V8.9124H100.698V10.5451ZM105.741 14.6578C105.741 13.776 105.493 13.0871 104.997 12.5911C104.515 12.0813 103.915 11.8264 103.199 11.8264C102.496 11.8264 101.897 12.0813 101.401 12.5911C100.919 13.1009 100.678 13.7967 100.678 14.6784C100.678 15.5602 100.919 16.256 101.401 16.7658C101.897 17.2756 102.496 17.5304 103.199 17.5304C103.902 17.5304 104.501 17.2756 104.997 16.7658C105.493 16.2422 105.741 15.5396 105.741 14.6578Z" fill="#3A3B7B"/>
<path d="M115.262 20.6098C114.256 20.6098 113.361 20.4376 112.576 20.0931C111.79 19.7487 111.17 19.2802 110.716 18.6878C110.261 18.0816 110.006 17.4064 109.951 16.6624H113.444C113.485 17.062 113.671 17.3858 114.002 17.6338C114.332 17.8818 114.739 18.0058 115.221 18.0058C115.662 18.0058 115.999 17.9231 116.234 17.7578C116.482 17.5787 116.606 17.3513 116.606 17.0758C116.606 16.7451 116.433 16.504 116.089 16.3524C115.744 16.1871 115.186 16.008 114.415 15.8151C113.588 15.6222 112.899 15.4224 112.348 15.2158C111.797 14.9953 111.322 14.6578 110.922 14.2031C110.523 13.7347 110.323 13.1078 110.323 12.3224C110.323 11.6611 110.502 11.0618 110.86 10.5244C111.232 9.97329 111.77 9.53929 112.472 9.2224C113.189 8.90551 114.036 8.74707 115.014 8.74707C116.461 8.74707 117.598 9.10529 118.424 9.82174C119.265 10.5382 119.747 11.4889 119.871 12.6738H116.606C116.55 12.2742 116.371 11.9573 116.068 11.7231C115.779 11.4889 115.393 11.3718 114.911 11.3718C114.498 11.3718 114.181 11.4544 113.96 11.6198C113.74 11.7713 113.63 11.9849 113.63 12.2604C113.63 12.5911 113.802 12.8391 114.146 13.0044C114.504 13.1698 115.056 13.3351 115.8 13.5004C116.654 13.7209 117.35 13.9413 117.887 14.1618C118.424 14.3684 118.893 14.7129 119.292 15.1951C119.706 15.6636 119.919 16.2973 119.933 17.0964C119.933 17.7716 119.74 18.3778 119.354 18.9151C118.982 19.4387 118.438 19.852 117.722 20.1551C117.019 20.4582 116.199 20.6098 115.262 20.6098Z" fill="#3A3B7B"/>
<path d="M132.862 8.9126V20.4446H129.328V18.874C128.97 19.3838 128.481 19.7971 127.861 20.114C127.255 20.4171 126.58 20.5686 125.836 20.5686C124.954 20.5686 124.175 20.3758 123.5 19.99C122.825 19.5904 122.302 19.0186 121.93 18.2746C121.558 17.5306 121.372 16.6558 121.372 15.65V8.9126H124.885V15.1746C124.885 15.9462 125.085 16.5455 125.484 16.9726C125.884 17.3998 126.421 17.6133 127.096 17.6133C127.785 17.6133 128.329 17.3998 128.729 16.9726C129.129 16.5455 129.328 15.9462 129.328 15.1746V8.9126H132.862Z" fill="#3A3B7B"/>
<path d="M149.495 8.78857C150.928 8.78857 152.065 9.22257 152.905 10.0905C153.76 10.9585 154.187 12.1641 154.187 13.7072V20.4445H150.673V14.1825C150.673 13.4385 150.474 12.8668 150.074 12.4672C149.688 12.0539 149.151 11.8472 148.462 11.8472C147.773 11.8472 147.229 12.0539 146.829 12.4672C146.444 12.8668 146.251 13.4385 146.251 14.1825V20.4445H142.737V14.1825C142.737 13.4385 142.538 12.8668 142.138 12.4672C141.752 12.0539 141.215 11.8472 140.526 11.8472C139.837 11.8472 139.293 12.0539 138.893 12.4672C138.508 12.8668 138.315 13.4385 138.315 14.1825V20.4445H134.781V8.91257H138.315V10.3592C138.673 9.87702 139.141 9.49813 139.72 9.22257C140.299 8.93324 140.953 8.78857 141.683 8.78857C142.551 8.78857 143.323 8.97457 143.998 9.34657C144.687 9.71857 145.224 10.249 145.61 10.9379C146.01 10.3041 146.554 9.78746 147.243 9.38791C147.932 8.98835 148.683 8.78857 149.495 8.78857Z" fill="#3A3B7B"/>
</g>
<defs>
<clipPath id="clip0_357_2242">
<rect width="154" height="27" fill="white" transform="translate(0.5)"/>
</clipPath>
</defs>
</svg>
