<svg width="150" height="57" viewBox="0 0 150 57" fill="none" xmlns="http://www.w3.org/2000/svg">
<path d="M30.5702 28.9045C30.5702 26.8236 31.8126 25.374 33.7113 25.374C35.61 25.374 36.8523 26.8236 36.8523 28.9045C36.8523 30.9621 35.61 32.435 33.7113 32.435C31.8126 32.435 30.5702 30.9621 30.5702 28.9045Z" fill="#152C4F"/>
<path d="M46.6278 25.2808C44.8229 25.2808 43.604 26.6836 43.604 28.6009C43.604 30.5415 44.8463 31.9911 46.6278 31.9911C48.5968 31.9911 49.9095 30.5181 49.9095 28.6009C49.9095 26.707 48.5968 25.2808 46.6278 25.2808Z" fill="#152C4F"/>
<path d="M57.0911 28.9045C57.0911 26.8236 58.3335 25.374 60.2322 25.374C62.1309 25.374 63.3732 26.8236 63.3732 28.9045C63.3732 30.9621 62.1309 32.435 60.2322 32.435C58.3335 32.435 57.0911 30.9621 57.0911 28.9045Z" fill="#152C4F"/>
<path d="M76.1933 28.928C76.1933 26.8471 77.4591 25.3975 79.4515 25.3975C81.444 25.3975 82.6394 26.8705 82.6394 28.928C82.6394 30.9855 81.444 32.4351 79.4515 32.4351C77.4591 32.4351 76.1933 31.0089 76.1933 28.928Z" fill="#152C4F"/>
<path fill-rule="evenodd" clip-rule="evenodd" d="M75 53.3655C114.828 53.3655 147.115 42.065 147.115 28.1251C147.115 14.1852 114.828 2.88477 75 2.88477C35.1718 2.88477 2.88461 14.1852 2.88461 28.1251C2.88461 42.065 35.1718 53.3655 75 53.3655ZM25.9367 34.7032V17.3078H23.0769V34.7032H25.9367ZM27.687 28.9047C27.687 32.4586 30.078 34.9838 33.7113 34.9838C37.3446 34.9838 39.7355 32.4586 39.7355 28.9047C39.7355 25.3508 37.3446 22.8257 33.7113 22.8257C30.078 22.8257 27.687 25.3508 27.687 28.9047ZM46.1356 34.4694C42.8773 34.4694 40.6973 32.0378 40.6973 28.6709C40.6973 25.2807 42.9242 22.7789 46.2293 22.7789C47.9405 22.7789 49.3938 23.5038 50.097 24.7196L50.2611 23.153H52.7927V34.1187C52.7927 37.9298 50.4018 40.3847 46.6513 40.3847C43.4633 40.3847 41.1427 38.4208 40.7677 35.4046H43.6509C43.8149 36.9244 45.0339 37.7895 46.8153 37.7895C48.8078 37.7895 50.0033 36.5269 50.0033 34.633V32.6691C49.2766 33.7913 47.8233 34.4694 46.1356 34.4694ZM54.2079 28.9047C54.2079 32.4586 56.5989 34.9838 60.2322 34.9838C63.8655 34.9838 66.2564 32.4586 66.2564 28.9047C66.2564 25.3508 63.8655 22.8257 60.2322 22.8257C56.5989 22.8257 54.2079 25.3508 54.2079 28.9047ZM71.0625 19.0848C71.0625 20.0434 70.289 20.7916 69.3513 20.7916C68.3903 20.7916 67.6636 20.0434 67.6636 19.0848C67.6636 18.1495 68.3903 17.4013 69.3513 17.4013C70.289 17.4013 71.0625 18.1495 71.0625 19.0848ZM70.7812 23.153V34.7032H67.9215V23.153H70.7812ZM73.2866 40.0574H76.0761V33.1133C76.8027 34.3057 78.3732 35.0071 80.1079 35.0071C83.5302 35.0071 85.5695 32.3885 85.5226 28.7878C85.4523 25.1638 83.3661 22.8023 80.0844 22.8023C78.3264 22.8023 76.7324 23.5739 76.0292 24.9066L75.8651 23.153H73.2866V40.0574ZM90.89 35.0071C88.124 35.0071 86.3425 33.5341 86.2488 31.2428H88.8507C88.8507 32.2482 89.5773 32.8327 90.8431 32.8327C91.898 32.8327 92.7653 32.4119 92.7653 31.5C92.7653 30.8453 92.2964 30.4946 91.5463 30.2842L89.5305 29.7698C87.3036 29.1853 86.4363 27.9461 86.4363 26.4497C86.4363 24.2519 88.2881 22.8023 90.7728 22.8023C93.2809 22.8023 94.9921 24.2519 95.0859 26.5433H92.484C92.484 25.5379 91.7807 24.93 90.7025 24.93C89.6711 24.93 89.0382 25.4911 89.0382 26.2861C89.0382 27.0343 89.6242 27.3382 90.4915 27.572L92.5309 28.063C94.4296 28.5306 95.4609 29.6529 95.4609 31.313C95.4609 33.5575 93.6091 35.0071 90.89 35.0071ZM101.393 35.0071C102.963 35.0071 104.463 34.2823 105.143 33.2068L105.331 34.7032H108.003V23.153H105.143V29.2087C105.143 31.2896 104.346 32.4586 102.471 32.4586C101.018 32.4586 100.01 31.7572 100.01 29.3724V23.153H97.1499V30.3777C97.1499 33.1367 98.6501 35.0071 101.393 35.0071ZM113.387 28.063V34.7032H110.527V23.153H113.152L113.293 24.4624C113.973 23.4336 115.192 22.8023 116.551 22.8023C118.473 22.8023 119.739 23.644 120.372 25.0001C120.935 23.644 122.318 22.8023 124.076 22.8023C126.889 22.8023 128.365 24.4858 128.365 27.1512V34.7032H125.599V27.8058C125.599 26.1692 124.709 25.3041 123.326 25.3041C121.966 25.3041 120.888 26.1926 120.888 28.0864V34.7032H118.098V27.8058C118.098 26.1692 117.208 25.3041 115.848 25.3041C114.489 25.3041 113.387 26.1926 113.387 28.063Z" fill="#152C4F"/>
</svg>
