<svg width="153" height="39" viewBox="0 0 153 39" fill="none" xmlns="http://www.w3.org/2000/svg">
<g clip-path="url(#clip0_357_2230)">
<path d="M0.878784 28.6819L0.878787 9.89404L10.2727 15.1129V23.5152L17.7879 27.7425L25.303 23.5152V15.1129L34.697 9.89404V28.6819L17.7879 38.0758L0.878784 28.6819Z" fill="#192657"/>
<path fill-rule="evenodd" clip-rule="evenodd" d="M5.57576 12.5034L0.878784 9.89394L17.7879 0.5L34.697 9.89394L30 12.5034V26.3333L17.7879 33.3788L5.57575 26.3333L5.57576 12.5034ZM29.4912 12.7861L25.303 15.1128V15.0606L17.7879 10.8333L10.2727 15.0606V15.1128L6.08459 12.7861V26.0443L17.7879 32.7962L29.4912 26.0443V12.7861Z" fill="url(#paint0_linear_357_2230)"/>
<path d="M43.7001 27.1968V11.415H46.6761V24.4913H53.8907V27.1968H43.7001Z" fill="#192657"/>
<path d="M60.3159 27.5125C59.2037 27.5125 58.2042 27.2871 57.3174 26.8361C56.4306 26.3852 55.7317 25.7314 55.2207 24.8747C54.7096 24.018 54.4541 22.9884 54.4541 21.786V21.4252C54.4541 20.2228 54.7096 19.1932 55.2207 18.3365C55.7317 17.4798 56.4306 16.826 57.3174 16.3751C58.2042 15.9241 59.2037 15.6987 60.3159 15.6987C61.4282 15.6987 62.4277 15.9241 63.3145 16.3751C64.2013 16.826 64.9002 17.4798 65.4112 18.3365C65.9222 19.1932 66.1778 20.2228 66.1778 21.4252V21.786C66.1778 22.9884 65.9222 24.018 65.4112 24.8747C64.9002 25.7314 64.2013 26.3852 63.3145 26.8361C62.4277 27.2871 61.4282 27.5125 60.3159 27.5125ZM60.3159 24.9874C61.1877 24.9874 61.9092 24.7094 62.4803 24.1532C63.0515 23.5821 63.337 22.7704 63.337 21.7183V21.4929C63.337 20.4408 63.0515 19.6366 62.4803 19.0805C61.9242 18.5094 61.2027 18.2238 60.3159 18.2238C59.4442 18.2238 58.7227 18.5094 58.1516 19.0805C57.5804 19.6366 57.2949 20.4408 57.2949 21.4929V21.7183C57.2949 22.7704 57.5804 23.5821 58.1516 24.1532C58.7227 24.7094 59.4442 24.9874 60.3159 24.9874Z" fill="#192657"/>
<path d="M67.2443 21.6507V21.29C67.2443 20.1176 67.4772 19.1181 67.9432 18.2914C68.4091 17.4497 69.0254 16.8109 69.7919 16.3751C70.5735 15.9241 71.4227 15.6987 72.3395 15.6987C73.3616 15.6987 74.1357 15.8791 74.6617 16.2398C75.1878 16.6005 75.5711 16.9763 75.8115 17.3671H76.2174V16.0143H79.013V29.1809C79.013 29.9474 78.7875 30.5561 78.3366 31.0071C77.8857 31.473 77.2845 31.706 76.533 31.706H69.0479V29.226H75.541C75.9618 29.226 76.1723 29.0005 76.1723 28.5496V25.6412H75.7664C75.6161 25.8817 75.4057 26.1297 75.1352 26.3852C74.8646 26.6257 74.5039 26.8286 74.053 26.994C73.6021 27.1593 73.0309 27.242 72.3395 27.242C71.4227 27.242 70.5735 27.024 69.7919 26.5881C69.0254 26.1372 68.4091 25.4984 67.9432 24.6718C67.4772 23.8301 67.2443 22.8231 67.2443 21.6507ZM73.1512 24.762C74.0229 24.762 74.7519 24.4839 75.3381 23.9278C75.9243 23.3717 76.2174 22.5901 76.2174 21.5831V21.3576C76.2174 20.3355 75.9243 19.554 75.3381 19.0129C74.7669 18.4568 74.038 18.1787 73.1512 18.1787C72.2794 18.1787 71.5504 18.4568 70.9643 19.0129C70.3781 19.554 70.085 20.3355 70.085 21.3576V21.5831C70.085 22.5901 70.3781 23.3717 70.9643 23.9278C71.5504 24.4839 72.2794 24.762 73.1512 24.762Z" fill="#192657"/>
<path d="M86.4687 27.5125C85.3564 27.5125 84.3569 27.2871 83.4701 26.8361C82.5833 26.3852 81.8844 25.7314 81.3734 24.8747C80.8624 24.018 80.6069 22.9884 80.6069 21.786V21.4252C80.6069 20.2228 80.8624 19.1932 81.3734 18.3365C81.8844 17.4798 82.5833 16.826 83.4701 16.3751C84.3569 15.9241 85.3564 15.6987 86.4687 15.6987C87.5809 15.6987 88.5804 15.9241 89.4672 16.3751C90.354 16.826 91.0529 17.4798 91.5639 18.3365C92.075 19.1932 92.3305 20.2228 92.3305 21.4252V21.786C92.3305 22.9884 92.075 24.018 91.5639 24.8747C91.0529 25.7314 90.354 26.3852 89.4672 26.8361C88.5804 27.2871 87.5809 27.5125 86.4687 27.5125ZM86.4687 24.9874C87.3404 24.9874 88.0619 24.7094 88.633 24.1532C89.2042 23.5821 89.4898 22.7704 89.4898 21.7183V21.4929C89.4898 20.4408 89.2042 19.6366 88.633 19.0805C88.0769 18.5094 87.3555 18.2238 86.4687 18.2238C85.5969 18.2238 84.8755 18.5094 84.3043 19.0805C83.7332 19.6366 83.4476 20.4408 83.4476 21.4929V21.7183C83.4476 22.7704 83.7332 23.5821 84.3043 24.1532C84.8755 24.7094 85.5969 24.9874 86.4687 24.9874Z" fill="#192657"/>
<path d="M93.9381 27.1971V16.0145H96.7788V27.1971H93.9381ZM95.3584 14.7069C94.8474 14.7069 94.4115 14.5416 94.0508 14.2109C93.7051 13.8802 93.5323 13.4443 93.5323 12.9033C93.5323 12.3622 93.7051 11.9263 94.0508 11.5956C94.4115 11.265 94.8474 11.0996 95.3584 11.0996C95.8845 11.0996 96.3204 11.265 96.6661 11.5956C97.0118 11.9263 97.1846 12.3622 97.1846 12.9033C97.1846 13.4443 97.0118 13.8802 96.6661 14.2109C96.3204 14.5416 95.8845 14.7069 95.3584 14.7069Z" fill="#192657"/>
<path d="M98.9122 31.706V16.0143H101.708V17.3671H102.114C102.369 16.9312 102.767 16.5479 103.309 16.2172C103.85 15.8715 104.624 15.6987 105.631 15.6987C106.533 15.6987 107.367 15.9241 108.133 16.3751C108.9 16.8109 109.516 17.4572 109.982 18.314C110.448 19.1707 110.681 20.2078 110.681 21.4252V21.786C110.681 23.0034 110.448 24.0405 109.982 24.8972C109.516 25.754 108.9 26.4078 108.133 26.8587C107.367 27.2946 106.533 27.5125 105.631 27.5125C104.954 27.5125 104.383 27.4298 103.917 27.2645C103.466 27.1142 103.098 26.9188 102.813 26.6783C102.542 26.4228 102.324 26.1673 102.159 25.9118H101.753V31.706H98.9122ZM104.774 25.0325C105.661 25.0325 106.39 24.7544 106.961 24.1983C107.547 23.6272 107.84 22.8005 107.84 21.7183V21.4929C107.84 20.4107 107.547 19.5915 106.961 19.0354C106.375 18.4643 105.646 18.1787 104.774 18.1787C103.902 18.1787 103.173 18.4643 102.587 19.0354C102.001 19.5915 101.708 20.4107 101.708 21.4929V21.7183C101.708 22.8005 102.001 23.6272 102.587 24.1983C103.173 24.7544 103.902 25.0325 104.774 25.0325Z" fill="#192657"/>
<path d="M116.919 27.5125C115.461 27.5125 114.266 27.1969 113.334 26.5656C112.403 25.9343 111.839 25.0325 111.643 23.8601L114.259 23.1838C114.364 23.7098 114.537 24.1232 114.777 24.4238C115.033 24.7244 115.341 24.9423 115.702 25.0776C116.077 25.1978 116.483 25.258 116.919 25.258C117.58 25.258 118.069 25.1452 118.385 24.9198C118.7 24.6793 118.858 24.3862 118.858 24.0405C118.858 23.6948 118.708 23.4318 118.407 23.2514C118.107 23.056 117.626 22.8982 116.964 22.778L116.333 22.6652C115.551 22.5149 114.837 22.312 114.191 22.0565C113.545 21.786 113.026 21.4177 112.635 20.9518C112.245 20.4858 112.049 19.8846 112.049 19.1481C112.049 18.0359 112.455 17.1867 113.267 16.6005C114.078 15.9993 115.146 15.6987 116.468 15.6987C117.716 15.6987 118.753 15.9768 119.579 16.5329C120.406 17.089 120.947 17.818 121.203 18.7198L118.565 19.5314C118.445 18.9603 118.197 18.5544 117.821 18.314C117.46 18.0735 117.009 17.9532 116.468 17.9532C115.927 17.9532 115.514 18.0509 115.228 18.2463C114.943 18.4267 114.8 18.6822 114.8 19.0129C114.8 19.3736 114.95 19.6441 115.251 19.8245C115.551 19.9898 115.957 20.1176 116.468 20.2078L117.099 20.3205C117.941 20.4708 118.7 20.6737 119.377 20.9292C120.068 21.1697 120.609 21.5229 121 21.9889C121.406 22.4398 121.609 23.056 121.609 23.8376C121.609 25.01 121.18 25.9193 120.323 26.5656C119.482 27.1969 118.347 27.5125 116.919 27.5125Z" fill="#192657"/>
<path d="M127.344 27.3771C126.473 27.3771 125.706 27.1817 125.045 26.791C124.399 26.3851 123.895 25.829 123.534 25.1226C123.174 24.4162 122.993 23.6045 122.993 22.6877V16.0142H125.834V22.4622C125.834 23.3039 126.037 23.9352 126.443 24.356C126.863 24.7769 127.457 24.9873 128.224 24.9873C129.095 24.9873 129.772 24.7017 130.253 24.1306C130.734 23.5444 130.974 22.7328 130.974 21.6957V16.0142H133.815V27.1968H131.019V25.7313H130.614C130.433 26.1071 130.095 26.4753 129.599 26.836C129.103 27.1968 128.351 27.3771 127.344 27.3771Z" fill="#192657"/>
<path d="M135.962 27.1969V16.0143H138.757V17.2318H139.163C139.358 16.856 139.682 16.5329 140.132 16.2623C140.583 15.9768 141.177 15.834 141.914 15.834C142.71 15.834 143.349 15.9918 143.83 16.3074C144.311 16.608 144.679 17.0063 144.935 17.5023H145.34C145.596 17.0214 145.957 16.6231 146.423 16.3074C146.889 15.9918 147.55 15.834 148.407 15.834C149.098 15.834 149.722 15.9843 150.278 16.2849C150.849 16.5704 151.3 17.0138 151.631 17.6151C151.976 18.2012 152.149 18.9452 152.149 19.8471V27.1969H149.308V20.05C149.308 19.4337 149.151 18.9753 148.835 18.6747C148.519 18.3591 148.076 18.2012 147.505 18.2012C146.859 18.2012 146.355 18.4117 145.994 18.8325C145.649 19.2383 145.476 19.8245 145.476 20.5911V27.1969H142.635V20.05C142.635 19.4337 142.477 18.9753 142.162 18.6747C141.846 18.3591 141.403 18.2012 140.831 18.2012C140.185 18.2012 139.682 18.4117 139.321 18.8325C138.975 19.2383 138.802 19.8245 138.802 20.5911V27.1969H135.962Z" fill="#192657"/>
</g>
<defs>
<linearGradient id="paint0_linear_357_2230" x1="5.57575" y1="7.80638" x2="30.9394" y2="7.80639" gradientUnits="userSpaceOnUse">
<stop stop-color="#64C2DB"/>
<stop offset="0.307292" stop-color="#7476ED"/>
<stop offset="0.604167" stop-color="#C994DF"/>
<stop offset="1" stop-color="#E56F8C"/>
</linearGradient>
<clipPath id="clip0_357_2230">
<rect width="153" height="38" fill="white" transform="translate(0 0.5)"/>
</clipPath>
</defs>
</svg>
