<svg width="68" height="68" viewBox="0 0 68 68" fill="none" xmlns="http://www.w3.org/2000/svg">
<path d="M1 26L34 13L67 26" stroke="#66748E" stroke-width="3"/>
<path d="M5 24V59H63V24.8537" stroke="#66748E" stroke-width="3"/>
<path d="M49 18V12" stroke="#66748E" stroke-width="3"/>
<path d="M19 18V12" stroke="#66748E" stroke-width="3"/>
<path d="M53 20V14" stroke="#66748E" stroke-width="3"/>
<path d="M15 20V14" stroke="#66748E" stroke-width="3"/>
<rect x="12" y="27" width="5" height="7" stroke="#66748E" stroke-width="2"/>
<rect x="-1" y="1" width="5" height="7" transform="matrix(-1 0 0 1 55 26)" stroke="#66748E" stroke-width="2"/>
<rect x="12" y="43" width="5" height="9" stroke="#66748E" stroke-width="2"/>
<rect x="-1" y="1" width="5" height="9" transform="matrix(-1 0 0 1 55 42)" stroke="#66748E" stroke-width="2"/>
<rect x="24" y="25" width="5" height="9" stroke="#66748E" stroke-width="2"/>
<rect x="-1" y="1" width="5" height="9" transform="matrix(-1 0 0 1 43 24)" stroke="#66748E" stroke-width="2"/>
<rect x="21" y="43" width="8" height="15" stroke="#66748E" stroke-width="2"/>
<rect x="-1" y="1" width="8" height="15" transform="matrix(-1 0 0 1 46 42)" stroke="#66748E" stroke-width="2"/>
<path d="M9 34H34" stroke="#66748E" stroke-width="2"/>
<path d="M59 34H34" stroke="#66748E" stroke-width="2"/>
<path d="M9 52H21" stroke="#66748E" stroke-width="2"/>
<path d="M59 52H47" stroke="#66748E" stroke-width="2"/>
<path d="M34 16V58.5" stroke="#66748E" stroke-width="2" stroke-dasharray="6 3"/>
</svg>
