<svg width="68" height="68" viewBox="0 0 68 68" fill="none" xmlns="http://www.w3.org/2000/svg">
<mask id="path-1-inside-1_1525_5024" fill="white">
<path fill-rule="evenodd" clip-rule="evenodd" d="M24 24.9286L6 18.5V60H24H27H42H45H63V26L42 18.5V24.9286L24 18.5V24.9286Z"/>
</mask>
<path d="M6 18.5L7.00901 15.6748L3 14.243V18.5H6ZM24 24.9286L22.991 27.7538L27 29.1856V24.9286H24ZM6 60H3V63H6V60ZM63 60V63H66V60H63ZM63 26H66V23.8858L64.009 23.1748L63 26ZM42 18.5L43.009 15.6748L39 14.243V18.5H42ZM42 24.9286L40.991 27.7538L45 29.1856V24.9286H42ZM24 18.5L25.009 15.6748L21 14.243V18.5H24ZM4.99099 21.3252L22.991 27.7538L25.009 22.1033L7.00901 15.6748L4.99099 21.3252ZM9 60V18.5H3V60H9ZM24 57H6V63H24V57ZM24 63H27V57H24V63ZM27 63H42V57H27V63ZM42 63H45V57H42V63ZM45 63H63V57H45V63ZM66 60V26H60V60H66ZM64.009 23.1748L43.009 15.6748L40.991 21.3252L61.991 28.8252L64.009 23.1748ZM39 18.5V24.9286H45V18.5H39ZM43.009 22.1033L25.009 15.6748L22.991 21.3252L40.991 27.7538L43.009 22.1033ZM21 18.5V24.9286H27V18.5H21Z" fill="#66748E" mask="url(#path-1-inside-1_1525_5024)"/>
<rect x="49" y="49" width="5" height="10" stroke="#66748E" stroke-width="2"/>
<rect x="31" y="49" width="5" height="10" stroke="#66748E" stroke-width="2"/>
<rect x="13" y="49" width="5" height="10" stroke="#66748E" stroke-width="2"/>
<path d="M44 28V58" stroke="#66748E" stroke-width="2"/>
<path d="M26 28V58" stroke="#66748E" stroke-width="2"/>
<path d="M12 44H22" stroke="#66748E" stroke-width="2"/>
<path d="M12 39H22" stroke="#66748E" stroke-width="2"/>
<path d="M12 34H22" stroke="#66748E" stroke-width="2"/>
<path d="M30 44H40" stroke="#66748E" stroke-width="2"/>
<path d="M30 39H40" stroke="#66748E" stroke-width="2"/>
<path d="M30 34H40" stroke="#66748E" stroke-width="2"/>
<path d="M48 44H57" stroke="#66748E" stroke-width="2"/>
<path d="M48 39H57" stroke="#66748E" stroke-width="2"/>
<path d="M48 34H57" stroke="#66748E" stroke-width="2"/>
</svg>
