<svg width="68" height="68" viewBox="0 0 68 68" fill="none" xmlns="http://www.w3.org/2000/svg">
<path d="M62 62H3" stroke="#66748E" stroke-width="3"/>
<path d="M38.3604 34.5498L49 31.9165V33.0938V35.0995L50.9239 34.5326L59.5 32.0057V61.5H25.5V34.2985L36.5 31.8677V33.0938V35.0103L38.3604 34.5498Z" stroke="#66748E" stroke-width="3"/>
<path d="M15 61.5L20 19H28L29.5 32.5" stroke="#66748E" stroke-width="3"/>
<rect x="30" y="50" width="5" height="6" stroke="#66748E" stroke-width="2"/>
<rect x="30" y="40" width="5" height="6" stroke="#66748E" stroke-width="2"/>
<rect x="40" y="50" width="5" height="6" stroke="#66748E" stroke-width="2"/>
<rect x="40" y="40" width="5" height="6" stroke="#66748E" stroke-width="2"/>
<rect x="50" y="50" width="5" height="6" stroke="#66748E" stroke-width="2"/>
<rect x="50" y="40" width="5" height="6" stroke="#66748E" stroke-width="2"/>
<path d="M20 25H28.5" stroke="#66748E" stroke-width="2"/>
<path d="M29.185 15.3792C29.9102 16.3602 31.0998 17 32.4444 17C34.5152 17 36.2184 15.4827 36.4237 13.5381C36.5755 13.5601 36.7308 13.5714 36.8889 13.5714C38.6071 13.5714 40 12.2283 40 10.5714C40 8.91457 38.6071 7.57143 36.8889 7.57143C36.7287 7.57143 36.5714 7.5831 36.4178 7.6056C36.2175 6.13514 34.9129 5 33.3333 5C32.5408 5 31.8175 5.28575 31.2682 5.75624C30.6032 5.28104 29.7801 5 28.8889 5C26.6797 5 24.8889 6.7269 24.8889 8.85714C24.8889 9.51084 25.0575 10.1266 25.3551 10.666C24.5369 11.2065 24 12.1142 24 13.1429" stroke="#66748E" stroke-width="2"/>
</svg>
