<svg width="68" height="68" viewBox="0 0 68 68" fill="none" xmlns="http://www.w3.org/2000/svg">
<path d="M7 20L34 7L61 20" stroke="#66748E" stroke-width="3"/>
<path d="M11 18V59H57V19" stroke="#66748E" stroke-width="3"/>
<path d="M49 14V8" stroke="#66748E" stroke-width="3"/>
<path d="M54.5 17V11" stroke="#66748E" stroke-width="3"/>
<rect x="29.5" y="50.5" width="9" height="4" stroke="#66748E"/>
<rect x="34.5" y="46.5" width="9" height="4" stroke="#66748E"/>
<rect x="43.5" y="46.5" width="9" height="4" stroke="#66748E"/>
<rect x="29.5" y="42.5" width="9" height="4" stroke="#66748E"/>
<rect x="38.5" y="42.5" width="9" height="4" stroke="#66748E"/>
<rect x="47.5" y="42.5" width="9" height="4" stroke="#66748E"/>
<rect x="38.5" y="50.5" width="9" height="4" stroke="#66748E"/>
<rect x="34.5" y="54.5" width="9" height="4" stroke="#66748E"/>
<rect x="43.5" y="54.5" width="9" height="4" stroke="#66748E"/>
<rect x="47.5" y="50.5" width="9" height="4" stroke="#66748E"/>
<rect x="34.5" y="38.5" width="9" height="4" stroke="#66748E"/>
<rect x="43.5" y="38.5" width="9" height="4" stroke="#66748E"/>
</svg>
