<svg width="68" height="68" viewBox="0 0 68 68" fill="none" xmlns="http://www.w3.org/2000/svg">
<path d="M7 20L34 7L61 20" stroke="#66748E" stroke-width="3"/>
<path d="M11 18V59H57V19" stroke="#66748E" stroke-width="3"/>
<path d="M49 14V8" stroke="#66748E" stroke-width="3"/>
<path d="M54.5 17V11" stroke="#66748E" stroke-width="3"/>
<path d="M40.0312 27.3033L31.8995 35.4351" stroke="#66748E" stroke-width="2"/>
<path d="M29.7782 34.7279L32.6066 37.5564L27.6569 42.5061C26.8758 43.2872 25.6095 43.2872 24.8285 42.5061C24.0474 41.7251 24.0474 40.4587 24.8285 39.6777L29.7782 34.7279Z" stroke="#66748E" stroke-width="2"/>
<path d="M37.6646 27.0579L41.7052 24.0275L43.3071 25.6294L40.2766 29.67L37.6646 27.0579Z" stroke="#66748E" stroke-width="2"/>
<path d="M29.8109 29.1444L38.8109 38.1444" stroke="#66748E" stroke-width="2"/>
<path d="M24 27.116L26.1166 29.2325C27.161 30.277 28.8544 30.277 29.8988 29.2325V29.2325C30.9432 28.1881 30.9432 26.4947 29.8988 25.4503L27.7822 23.3337" stroke="#66748E" stroke-width="2"/>
<path d="M44.7809 39.9995L42.6643 37.8829C41.6199 36.8385 39.9265 36.8385 38.8821 37.8829V37.8829C37.8376 38.9274 37.8376 40.6207 38.8821 41.6652L40.9987 43.7817" stroke="#66748E" stroke-width="2"/>
</svg>
