<svg width="68" height="68" viewBox="0 0 68 68" fill="none" xmlns="http://www.w3.org/2000/svg">
<path d="M31.3195 53.2672L31 53.5639V54V63H24V51.4361L30.6805 45.2328L31 44.9361V44.5V39H38V47.0639L31.3195 53.2672Z" stroke="#66748E" stroke-width="2"/>
<path d="M28 33H41V36C41 37.6569 39.6569 39 38 39H31C29.3431 39 28 37.6569 28 36V33Z" stroke="#66748E" stroke-width="2"/>
<path d="M23 23L63 23C63 24.3132 62.7413 25.6136 62.2388 26.8268C61.7362 28.0401 60.9997 29.1425 60.0711 30.0711C59.1425 30.9997 58.0401 31.7362 56.8268 32.2388C55.6136 32.7413 54.3132 33 53 33C51.6868 33 50.3864 32.7413 49.1732 32.2388C47.9599 31.7362 46.8575 30.9997 45.9289 30.0711C45.0003 29.1425 44.2638 28.0401 43.7612 26.8268C43.3867 25.9227 43.1476 24.9702 43.0501 24" stroke="#66748E" stroke-width="3"/>
<path d="M53.5 33H17C15.6868 33 14.3864 32.7413 13.1732 32.2388C11.9599 31.7362 10.8575 30.9997 9.92893 30.0711C9.00035 29.1425 8.26375 28.0401 7.7612 26.8268C7.25866 25.6136 7 24.3132 7 23H25.5" stroke="#66748E" stroke-width="3"/>
</svg>
