<svg width="68" height="68" viewBox="0 0 68 68" fill="none" xmlns="http://www.w3.org/2000/svg">
<rect x="11" y="7" width="46" height="31" stroke="#66748E" stroke-width="2"/>
<rect x="4.5" y="38.5" width="59" height="24" stroke="#66748E" stroke-width="3"/>
<path d="M21 39L16 62" stroke="#66748E" stroke-width="2"/>
<path d="M16 39L11 62" stroke="#66748E" stroke-width="2"/>
<path d="M47 39L52 62" stroke="#66748E" stroke-width="2"/>
<path d="M52 39L57 62" stroke="#66748E" stroke-width="2"/>
<path d="M3 6L65 6.00001" stroke="#66748E" stroke-width="3"/>
<path d="M40.0312 18.3033L31.8995 26.4351" stroke="#66748E" stroke-width="2"/>
<path d="M29.7782 25.7279L32.6066 28.5564L27.6569 33.5061C26.8758 34.2872 25.6095 34.2872 24.8284 33.5061C24.0474 32.7251 24.0474 31.4587 24.8284 30.6777L29.7782 25.7279Z" stroke="#66748E" stroke-width="2"/>
<path d="M37.6645 18.0579L41.7052 15.0275L43.307 16.6294L40.2766 20.67L37.6645 18.0579Z" stroke="#66748E" stroke-width="2"/>
<path d="M29.8109 20.1444L38.8109 29.1444" stroke="#66748E" stroke-width="2"/>
<path d="M24 18.116L26.1166 20.2325C27.161 21.277 28.8544 21.277 29.8988 20.2325V20.2325C30.9432 19.1881 30.9432 17.4947 29.8988 16.4503L27.7822 14.3337" stroke="#66748E" stroke-width="2"/>
<path d="M44.7809 30.9995L42.6643 28.8829C41.6199 27.8385 39.9265 27.8385 38.8821 28.8829V28.8829C37.8376 29.9274 37.8376 31.6207 38.8821 32.6652L40.9987 34.7817" stroke="#66748E" stroke-width="2"/>
</svg>
