<svg width="68" height="68" viewBox="0 0 68 68" fill="none" xmlns="http://www.w3.org/2000/svg">
<path d="M54.5 32.7368V37.6579L41.8191 37.6579H41.6116L41.4119 37.7142L27.2311 41.7142L26.1383 42.0225V43.1579V56.5H14.5V23.5H26.1383V30.7368V32.7185L28.0455 32.1805L42.0267 28.2368L50 28.2368C52.4853 28.2368 54.5 30.2516 54.5 32.7368Z" stroke="#66748E" stroke-width="3"/>
<path d="M27.6885 15.3913H27.7875L27.8856 15.3783L48.3046 12.6716L48.7576 14.9368L27.2775 21.0575L26.1885 21.3677V22.5V23.5H14.5V22.5V17.8913C14.5 16.5106 15.6193 15.3913 17 15.3913H27.6885Z" stroke="#66748E" stroke-width="3"/>
<rect x="44" y="38" width="9" height="4" stroke="#66748E" stroke-width="2"/>
<rect x="9.5" y="56.5" width="22" height="5" stroke="#66748E" stroke-width="3"/>
</svg>
