<svg width="68" height="68" viewBox="0 0 68 68" fill="none" xmlns="http://www.w3.org/2000/svg">
<rect x="1" y="48.0726" width="18" height="4" rx="2" stroke="#66748E" stroke-width="2"/>
<rect x="50" y="15" width="17" height="4" rx="2" stroke="#66748E" stroke-width="2"/>
<rect x="46" y="24.0726" width="18" height="4" rx="2" transform="rotate(90 46 24.0726)" stroke="#66748E" stroke-width="2"/>
<rect x="29" y="25.0726" width="17" height="4" rx="2" transform="rotate(90 29 25.0726)" stroke="#66748E" stroke-width="2"/>
<path fill-rule="evenodd" clip-rule="evenodd" d="M50.8421 4H52.3421H64.4948H65.9948V5.5V15.0726H62.9948V7H53.8421V15.0726H50.8421V5.5V4ZM50.8421 19.0726V21.1233C50.8421 23.7363 48.7681 25.8088 46.2658 25.8088H46.0001V28.8088H46.2658C50.4751 28.8088 53.8421 25.3426 53.8421 21.1233V19.0726H50.8421ZM42.0001 28.8088V25.8088H29.0001V28.8088H42.0001ZM42.0001 38.1798V41.1798H29.0001V38.1798H42.0001ZM46.0001 41.1798V38.1798H46.2658C55.4799 38.1798 62.9948 30.5686 62.9948 21.1233V19.0726H65.9948V21.1233C65.9948 32.1749 57.1869 41.1798 46.2658 41.1798H46.0001ZM21.9604 25.8088H25.0001V28.8088H21.9604C12.7463 28.8088 5.23145 36.4199 5.23145 45.8653V48.0726H2.23145V45.8653C2.23145 34.8137 11.0393 25.8088 21.9604 25.8088ZM21.9604 38.1798H25.0001V41.1798H21.9604C19.4581 41.1798 17.3841 43.2522 17.3841 45.8653V48.0726H14.3841V45.8653C14.3841 41.646 17.7511 38.1798 21.9604 38.1798ZM14.3841 52.0726H17.3841V61.6452V63.1452H15.8841H3.73145H2.23145V61.6452V52.0726H5.23145V60.1452H14.3841V52.0726Z" fill="#66748E"/>
</svg>
