<svg width="68" height="68" viewBox="0 0 68 68" fill="none" xmlns="http://www.w3.org/2000/svg">
<rect x="1" y="48.0726" width="18" height="4" rx="2" stroke="#66748E" stroke-width="2"/>
<rect x="50" y="15" width="17" height="4" rx="2" stroke="#66748E" stroke-width="2"/>
<rect x="46" y="24.0726" width="18" height="4" rx="2" transform="rotate(90 46 24.0726)" stroke="#66748E" stroke-width="2"/>
<rect x="29" y="25.0726" width="17" height="4" rx="2" transform="rotate(90 29 25.0726)" stroke="#66748E" stroke-width="2"/>
<path fill-rule="evenodd" clip-rule="evenodd" d="M50.8421 4H52.3421H64.4948H65.9948V5.5V15.0726H62.9948V7H53.8421V15.0726H50.8421V5.5V4ZM50.8421 19.0726V21.1233C50.8421 23.7363 48.7681 25.8088 46.2658 25.8088H46.0703L46.0001 25.8274V28.931L46.4717 28.806C50.5844 28.6952 53.8421 25.2736 53.8421 21.1233V19.0726H50.8421ZM42.0001 29.9914V26.8878L38.0064 27.9465L30.3963 25.8621L30.2017 25.8088H30H29.0001V28.8088H29.7983L37.6037 30.9467L37.9936 31.0535L38.3844 30.9499L42.0001 29.9914ZM21.9604 25.8088H25.0001V28.8088H21.9604C12.7463 28.8088 5.23145 36.4199 5.23145 45.8653V48.0726H2.23145V45.8653C2.23145 34.8137 11.0393 25.8088 21.9604 25.8088ZM21.9604 38.1798H25.0001V41.1798H21.9604C19.4581 41.1798 17.3841 43.2522 17.3841 45.8653V48.0726H14.3841V45.8653C14.3841 41.646 17.7511 38.1798 21.9604 38.1798ZM29.4065 41.1798H29.0001V37.9419L36.2426 33.7053L37.7574 36.2947L29.7574 40.9745L29.4065 41.1798ZM62.9948 19.0726V21.1233C62.9948 30.5686 55.4799 38.1798 46.2658 38.1798V41.1798C57.1869 41.1798 65.9948 32.1749 65.9948 21.1233V19.0726H62.9948ZM5.23145 60.1452V52.0726H2.23145V61.6452V63.1452H3.73145H15.8841H17.3841V61.6452V52.0726H14.3841V60.1452H5.23145Z" fill="#66748E"/>
<path d="M42.5 54.9516C42.5 58.0257 40.0278 60.5 37 60.5C33.9722 60.5 31.5 58.0257 31.5 54.9516C31.5 54.348 31.7975 53.3792 32.4334 52.1167C33.0445 50.9035 33.8749 49.5968 34.7291 48.3759C35.5466 47.2074 36.367 46.1442 37 45.3537C37.633 46.1442 38.4534 47.2074 39.2709 48.3759C40.1251 49.5968 40.9555 50.9035 41.5666 52.1167C42.2025 53.3792 42.5 54.348 42.5 54.9516Z" stroke="#66748E" stroke-width="3"/>
</svg>
