<svg width="68" height="68" viewBox="0 0 68 68" fill="none" xmlns="http://www.w3.org/2000/svg">
<rect x="2" y="21" width="6" height="27" stroke="#66748E" stroke-width="2"/>
<path d="M7 25H19.8414C21.3904 22.5024 23.5024 20.3904 26 18.8414V13H46V18.8414C48.4976 20.3904 50.6096 22.5024 52.1586 25H65V44H52.7374C49.5292 49.9537 43.2371 54 36 54C28.7629 54 22.4708 49.9537 19.2626 44H7" stroke="#66748E" stroke-width="3"/>
<path d="M21.5 60.9516C21.5 64.0257 19.0278 66.5 16 66.5C12.9722 66.5 10.5 64.0257 10.5 60.9516C10.5 60.348 10.7975 59.3792 11.4334 58.1167C12.0445 56.9035 12.8749 55.5968 13.7291 54.3759C14.5466 53.2074 15.367 52.1442 16 51.3537C16.633 52.1442 17.4534 53.2074 18.2709 54.3759C19.1251 55.5968 19.9555 56.9035 20.5666 58.1167C21.2025 59.3792 21.5 60.348 21.5 60.9516Z" stroke="#66748E" stroke-width="3"/>
<path d="M21 7H51" stroke="#66748E" stroke-width="3"/>
<path d="M36 7V13.5" stroke="#66748E" stroke-width="4"/>
<path d="M19.5 44L24 34.5L19.5 30.5" stroke="#66748E" stroke-width="3"/>
<path d="M24 34.5L38.5 31.5" stroke="#66748E" stroke-width="2"/>
</svg>
