<svg width="68" height="68" viewBox="0 0 68 68" fill="none" xmlns="http://www.w3.org/2000/svg">
<path d="M56 35V35C56 43.2843 49.2843 50 41 50H28C19.7157 50 13 43.2843 13 35V35V13C13 10.5147 15.0147 8.5 17.5 8.5V8.5C19.9853 8.5 22 10.5147 22 13V15" stroke="#66748E" stroke-width="2"/>
<rect x="36" y="33" width="12" height="11" stroke="#66748E" stroke-width="2"/>
<path d="M19.1707 16C19.5825 14.8348 20.6938 14 22 14C23.3062 14 24.4175 14.8348 24.8293 16H19.1707Z" stroke="#66748E" stroke-width="2"/>
<path d="M36 35H10" stroke="#66748E" stroke-width="3"/>
<path d="M59 35H48" stroke="#66748E" stroke-width="3"/>
<path d="M19 47L16 53" stroke="#66748E" stroke-width="2"/>
<path d="M50 47L53 53" stroke="#66748E" stroke-width="2"/>
<path d="M36.5 40H47.5" stroke="#66748E"/>
</svg>
