<svg width="68" height="68" viewBox="0 0 68 68" fill="none" xmlns="http://www.w3.org/2000/svg">
<g clip-path="url(#clip0_1571_1530)">
<path d="M34 55.5V56H33.5H30.5H30V55.5V27.5C30 22.5294 34.0294 18.5 39 18.5C43.9706 18.5 48 22.5294 48 27.5V35.3077V35.8077H47.5H44.5H44V35.3077V27.5C44 24.7386 41.7614 22.5 39 22.5C36.2386 22.5 34 24.7386 34 27.5V55.5Z" fill="#66748E" stroke="#66748E"/>
<path d="M42 48.5H42.5V48V45V44.5H42L22 44.5H21.5V45V48V48.5H22L42 48.5Z" fill="#66748E" stroke="#66748E"/>
<path d="M1 56V59C1 61.2091 2.79086 63 5 63H63C65.2091 63 67 61.2091 67 59V56" stroke="#66748E" stroke-width="2"/>
<path d="M0 56L68 56" stroke="#66748E" stroke-width="3"/>
<path d="M-6 56L48 2" stroke="#66748E" stroke-width="2"/>
<path d="M-6 36L48 -18" stroke="#66748E" stroke-width="2"/>
<path d="M-6 16L48 -38" stroke="#66748E" stroke-width="2"/>
<path d="M14 56L68 2" stroke="#66748E" stroke-width="2"/>
<path d="M34 56L88 2" stroke="#66748E" stroke-width="2"/>
<path d="M54 56L108 2" stroke="#66748E" stroke-width="2"/>
<path d="M75 56L21 2" stroke="#66748E" stroke-width="2"/>
<path d="M75 36L21 -18" stroke="#66748E" stroke-width="2"/>
<path d="M75 16L21 -38" stroke="#66748E" stroke-width="2"/>
<path d="M55 56L1 2" stroke="#66748E" stroke-width="2"/>
<path d="M35 56L-19 2" stroke="#66748E" stroke-width="2"/>
<path d="M15 56L-39 2" stroke="#66748E" stroke-width="2"/>
</g>
<defs>
<clipPath id="clip0_1571_1530">
<rect width="68" height="68" fill="white"/>
</clipPath>
</defs>
</svg>
