<svg width="68" height="68" viewBox="0 0 68 68" fill="none" xmlns="http://www.w3.org/2000/svg">
<path d="M22.5019 22.368L23.8182 23.338C26.0017 24.947 25.9847 28.2166 23.7846 29.8028L22.3941 30.8053C20.194 32.3915 20.1769 35.661 22.3604 37.2701L23.7863 38.3208" stroke="#66748E" stroke-width="2"/>
<path d="M31.5815 22.368L32.8979 23.338C35.0814 24.947 35.0643 28.2166 32.8642 29.8028L31.4737 30.8053C29.2736 32.3915 29.2566 35.661 31.4401 37.2701L32.866 38.3208" stroke="#66748E" stroke-width="2"/>
<path d="M40.5815 22.368L41.8979 23.338C44.0814 24.947 44.0643 28.2166 41.8642 29.8028L40.4737 30.8053C38.2736 32.3915 38.2566 35.661 40.4401 37.2701L41.866 38.3208" stroke="#66748E" stroke-width="2"/>
<path d="M3.59964 55.5L15.4979 43.5H49.5021L61.4004 55.5H3.59964Z" stroke="#66748E" stroke-width="3"/>
</svg>
