<svg width="68" height="68" viewBox="0 0 68 68" fill="none" xmlns="http://www.w3.org/2000/svg">
<path d="M40.5 39.2742C40.5 46.0499 35.1041 51.5 28.5 51.5C21.8959 51.5 16.5 46.0499 16.5 39.2742C16.5 37.7452 17.2063 35.6057 18.4517 33.1091C19.6727 30.6612 21.3162 28.0543 22.983 25.6487C24.6461 23.2484 26.3122 21.0774 27.5641 19.5048C27.9114 19.0686 28.2264 18.6791 28.5 18.344C28.7736 18.6791 29.0886 19.0686 29.4359 19.5048C30.6878 21.0774 32.3539 23.2484 34.017 25.6487C35.6838 28.0543 37.3273 30.6612 38.5483 33.1091C39.7937 35.6057 40.5 37.7452 40.5 39.2742Z" stroke="#66748E" stroke-width="3"/>
<path d="M41.5 40C46.7467 40 51 35.5156 51 29.9839C51 24.4521 41.5 13 41.5 13C41.5 13 36.154 19.4446 33.4827 25" stroke="#66748E" stroke-width="3"/>
</svg>
