<svg width="68" height="68" viewBox="0 0 68 68" fill="none" xmlns="http://www.w3.org/2000/svg">
<path d="M13.8813 45.4861C17.335 37.2013 25.4309 31.8051 34.4068 31.8051C43.3827 31.8051 51.4785 37.2013 54.9323 45.4861L56.5631 49.3983H12.2504L13.8813 45.4861Z" stroke="#66748E" stroke-width="3"/>
<mask id="path-2-inside-1_1532_5762" fill="white">
<path fill-rule="evenodd" clip-rule="evenodd" d="M25.3809 49.3729C26.1071 53.7016 29.8718 57 34.4069 57C38.9419 57 42.7066 53.7016 43.4328 49.3729H25.3809Z"/>
</mask>
<path d="M25.3809 49.3729V47.3729H23.0174L23.4084 49.7038L25.3809 49.3729ZM43.4328 49.3729L45.4053 49.7038L45.7963 47.3729H43.4328V49.3729ZM34.4069 55C30.8648 55 27.9206 52.4232 27.3533 49.042L23.4084 49.7038C24.2936 54.9799 28.8788 59 34.4069 59V55ZM41.4604 49.042C40.8931 52.4232 37.9489 55 34.4069 55V59C39.9349 59 44.5201 54.9799 45.4053 49.7038L41.4604 49.042ZM43.4328 47.3729H25.3809V51.3729H43.4328V47.3729Z" fill="#66748E" mask="url(#path-2-inside-1_1532_5762)"/>
<path d="M34.4067 12L34.4067 32.5932" stroke="#66748E" stroke-width="3"/>
</svg>
