<svg width="68" height="68" viewBox="0 0 68 68" fill="none" xmlns="http://www.w3.org/2000/svg">
<path d="M13.5385 57.6471V59.5H6.5V43.5H61.5V59.5H54.4615V57.6471V56.1471H52.9615H15.0385H13.5385V57.6471Z" stroke="#66748E" stroke-width="3"/>
<path d="M56 44V25C56 23.8954 55.1046 23 54 23H14C12.8954 23 12 23.8954 12 25V44" stroke="#66748E" stroke-width="3"/>
<path d="M32 42V36C32 34.3431 30.6569 33 29 33H19C17.3431 33 16 34.3431 16 36V42" stroke="#66748E" stroke-width="2"/>
<path d="M52 42V36C52 34.3431 50.6569 33 49 33H39C37.3431 33 36 34.3431 36 36V42" stroke="#66748E" stroke-width="2"/>
</svg>
