<svg width="68" height="68" viewBox="0 0 68 68" fill="none" xmlns="http://www.w3.org/2000/svg">
<path d="M64 13V66M4 13V66" stroke="#66748E" stroke-width="3"/>
<path d="M3 44H64" stroke="#66748E" stroke-width="3"/>
<rect x="8" y="50" width="14" height="13" rx="1" stroke="#66748E" stroke-width="2"/>
<rect x="11.5" y="49.5" width="7" height="5" rx="1.5" stroke="#66748E"/>
<path d="M11 58L19 58" stroke="#66748E" stroke-width="3"/>
<rect x="8" y="26" width="14" height="13" rx="1" stroke="#66748E" stroke-width="2"/>
<rect x="11.5" y="25.5" width="7" height="5" rx="1.5" stroke="#66748E"/>
<path d="M11 34L19 34" stroke="#66748E" stroke-width="3"/>
<rect x="27" y="50" width="14" height="13" rx="1" stroke="#66748E" stroke-width="2"/>
<rect x="30.5" y="49.5" width="7" height="5" rx="1.5" stroke="#66748E"/>
<path d="M30 58L38 58" stroke="#66748E" stroke-width="3"/>
<rect x="27" y="26" width="14" height="13" rx="1" stroke="#66748E" stroke-width="2"/>
<rect x="30.5" y="25.5" width="7" height="5" rx="1.5" stroke="#66748E"/>
<path d="M30 34L38 34" stroke="#66748E" stroke-width="3"/>
<rect x="46" y="50" width="14" height="13" rx="1" stroke="#66748E" stroke-width="2"/>
<rect x="49.5" y="49.5" width="7" height="5" rx="1.5" stroke="#66748E"/>
<path d="M49 58L57 58" stroke="#66748E" stroke-width="3"/>
</svg>
