<svg width="68" height="68" viewBox="0 0 68 68" fill="none" xmlns="http://www.w3.org/2000/svg">
<path d="M14 39H16" stroke="#66748E" stroke-width="2"/>
<path d="M22 39H24" stroke="#66748E" stroke-width="2"/>
<path d="M30 39H32" stroke="#66748E" stroke-width="2"/>
<path d="M38 39H40" stroke="#66748E" stroke-width="2"/>
<path d="M18 45H20" stroke="#66748E" stroke-width="2"/>
<path d="M26 45H28" stroke="#66748E" stroke-width="2"/>
<path d="M34 45H36" stroke="#66748E" stroke-width="2"/>
<path d="M3 60H8" stroke="#66748E" stroke-width="3"/>
<path d="M46 60H51" stroke="#66748E" stroke-width="3"/>
<path d="M8 40.5H9.5V39V33C9.5 32.7239 9.72386 32.5 10 32.5H44C44.2761 32.5 44.5 32.7239 44.5 33V39V40.5H46H49C49.8284 40.5 50.5 41.1716 50.5 42V55.5H3.5V42C3.5 41.1716 4.17157 40.5 5 40.5H8Z" stroke="#66748E" stroke-width="3"/>
<path d="M10 41V55" stroke="#66748E" stroke-width="2"/>
<path d="M44 50H10" stroke="#66748E" stroke-width="2"/>
<path d="M44 41V55" stroke="#66748E" stroke-width="2"/>
<path d="M59 61V28" stroke="#66748E" stroke-width="2"/>
<path d="M51.218 29L54.196 14H63.804L66.782 29H51.218Z" stroke="#66748E" stroke-width="2"/>
<path d="M54 61H64" stroke="#66748E" stroke-width="2"/>
</svg>
