<svg width="68" height="68" viewBox="0 0 68 68" fill="none" xmlns="http://www.w3.org/2000/svg">
<path d="M19.8333 41.3913C19.8333 37.8615 16.9605 35 13.4167 35C9.87284 35 7 37.8615 7 41.3913C7 43.8601 8.09067 46.5733 11.512 47.319C12.5913 47.5542 13.5 48.4134 13.5 49.5179V53.4348C13.5 55.9561 13.6354 58 16.1667 58H52.8333C55.3646 58 55.5 55.9561 55.5 53.4348V49.5179C55.5 48.4134 56.4087 47.5542 57.488 47.319C60.9093 46.5733 62 43.8601 62 41.3913C62 37.8615 59.1272 35 55.5833 35C52.0395 35 49.1667 37.8615 49.1667 41.3913V45.7536C49.1667 48.2749 47.1146 50.3188 44.5833 50.3188H24.4167C21.8854 50.3188 19.8333 48.2749 19.8333 45.7536V41.3913Z" stroke="#66748E" stroke-width="3"/>
<path d="M42 50V28C42 25.7909 40.2091 24 38 24H31C28.7909 24 27 25.7909 27 28V50" stroke="#66748E" stroke-width="3"/>
<path d="M27 28L18.9419 29.2397C16.0987 29.6771 14 32.1234 14 35V35" stroke="#66748E" stroke-width="2"/>
<path d="M42 28L50.0581 29.2397C52.9013 29.6771 55 32.1234 55 35V35" stroke="#66748E" stroke-width="2"/>
<path d="M14 62.5H23" stroke="#66748E" stroke-width="3"/>
<path d="M46 62.5H55" stroke="#66748E" stroke-width="3"/>
</svg>
