<svg width="68" height="68" viewBox="0 0 68 68" fill="none" xmlns="http://www.w3.org/2000/svg">
<rect x="12.5" y="16.5" width="45" height="35" rx="4.5" stroke="#66748E" stroke-width="3"/>
<circle cx="30" cy="34" r="13" stroke="#66748E" stroke-width="2"/>
<circle cx="30" cy="34" r="2" stroke="#66748E" stroke-width="2"/>
<path d="M31.5 33C34 31 38.5 30 42.5541 32.63" stroke="#66748E"/>
<path d="M28.0603 35C25.4954 36.9161 20.9647 37.7664 17 35.0034" stroke="#66748E"/>
<path d="M31.5732 34.4577C34.7552 34.8112 38.6443 37.2861 39.6513 42.0124" stroke="#66748E"/>
<path d="M27.7267 33.4396C24.5582 32.9808 20.7533 30.3784 19.9035 25.6212" stroke="#66748E"/>
<path d="M30.5943 35.5401C32.5943 38.0401 33.5943 42.5401 30.9643 46.5942" stroke="#66748E"/>
<path d="M28.5943 32.1004C26.6782 29.5355 25.8279 25.0048 28.5909 21.0401" stroke="#66748E"/>
<path d="M29.1367 35.6133C28.7831 38.7953 26.3083 42.6844 21.5819 43.6914" stroke="#66748E"/>
<path d="M30.1547 31.7669C30.6135 28.5983 33.216 24.7934 37.9731 23.9436" stroke="#66748E"/>
<path d="M47 29H54" stroke="#66748E" stroke-width="2"/>
<path d="M47 34H54" stroke="#66748E" stroke-width="2"/>
<path d="M47 39H54" stroke="#66748E" stroke-width="2"/>
</svg>
