<svg width="68" height="68" viewBox="0 0 68 68" fill="none" xmlns="http://www.w3.org/2000/svg">
<path d="M53.5 23H13.5C12.1193 23 11 21.8807 11 20.5C11 19.1193 12.1193 18 13.5 18H53.5C54.8807 18 56 19.1193 56 20.5C56 21.8807 54.8807 23 53.5 23Z" stroke="#66748E" stroke-width="3"/>
<path d="M29 23V43.5C29 45.9853 31.0147 48 33.5 48V48C35.9853 48 38 45.9853 38 43.5V23" stroke="#66748E" stroke-width="3"/>
<path d="M15 23V43.5C15 45.9853 17.0147 48 19.5 48V48C21.9853 48 24 45.9853 24 43.5V23" stroke="#66748E" stroke-width="3"/>
<path d="M43 23V43.5C43 45.9853 45.0147 48 47.5 48V48C49.9853 48 52 45.9853 52 43.5V23" stroke="#66748E" stroke-width="3"/>
<path d="M20 16.9286V16.9286C20 14.7589 21.7589 13 23.9286 13H42C44.7614 13 47 15.2386 47 18V18" stroke="#66748E" stroke-width="3"/>
<path d="M11.5 20.5V20.5C7.63401 20.5 4.5 23.634 4.5 27.5V46" stroke="#66748E" stroke-width="2"/>
<path d="M56 20.5V20.5C59.3137 20.5 62 17.8137 62 14.5V4" stroke="#66748E" stroke-width="2"/>
</svg>
