<svg width="68" height="68" viewBox="0 0 68 68" fill="none" xmlns="http://www.w3.org/2000/svg">
<path d="M6 36H50.5C56.299 36 61 31.299 61 25.5V25.5C61 19.701 56.2827 15 50.4837 15V15C44.6667 15 39.9348 19.7156 39.9348 25.5326V26.7353" stroke="#66748E" stroke-width="3"/>
<path d="M6 43H38C41.866 43 45 46.134 45 50V50C45 53.866 41.866 57 38 57H37.7935C33.8134 57 30.587 53.7735 30.587 49.7935V49.1765" stroke="#66748E" stroke-width="3"/>
<path d="M6 30H26.5C28.9853 30 31 27.9853 31 25.5V25.5C31 23.0147 28.9853 21 26.5 21H26.3804C23.8291 21 21.7609 23.0682 21.7609 25.6196V26.0294" stroke="#66748E" stroke-width="3"/>
</svg>
