<svg width="68" height="68" viewBox="0 0 68 68" fill="none" xmlns="http://www.w3.org/2000/svg">
<path d="M15.5962 14.182C16.182 13.5962 17.1317 13.5962 17.7175 14.182L54.4871 50.9515C55.0729 51.5373 55.0729 52.4871 54.4871 53.0729L52.0122 55.5477L13.1213 16.6569L15.5962 14.182Z" stroke="#66748E" stroke-width="3"/>
<path d="M46.3554 39.2842L48.4767 37.1629C49.2577 36.3819 49.2577 35.1155 48.4767 34.3345L34.3346 20.1924C33.5535 19.4113 32.2872 19.4113 31.5061 20.1924L29.3848 22.3137" stroke="#66748E" stroke-width="3"/>
<path d="M47.0624 45.6482L48.4767 44.234C49.2577 43.4529 49.2577 42.1866 48.4767 41.4056L27.2635 20.1924C26.4824 19.4113 25.2161 19.4113 24.435 20.1924L23.0208 21.6066" stroke="#66748E" stroke-width="3"/>
</svg>
