<svg width="68" height="68" viewBox="0 0 68 68" fill="none" xmlns="http://www.w3.org/2000/svg">
<path d="M35.3543 29.6147L30.457 24.6386C29.9173 24.0682 29.5067 23.3814 29.2549 22.6276C29.003 21.8739 28.9161 21.0719 29.0005 20.2794C29.1618 18.8974 29.0161 17.4957 28.5744 16.1804C28.1328 14.8652 27.4068 13.6709 26.4515 12.6883C25.4925 11.7123 24.3345 10.9697 23.0619 10.5146C21.7893 10.0595 20.4343 9.90339 19.0959 10.0577C18.8694 10.0795 18.6537 10.1676 18.4741 10.3115C18.2944 10.4555 18.1584 10.6494 18.0819 10.8704C18.0054 11.0915 17.9917 11.3305 18.0423 11.5593C18.0929 11.7881 18.2057 11.9973 18.3676 12.1622L21.0622 14.9431C21.322 15.2086 21.5283 15.5247 21.6691 15.873C21.8098 16.2213 21.8823 16.595 21.8823 16.9724C21.8823 17.3498 21.8098 17.7234 21.6691 18.0717C21.5283 18.42 21.322 18.7361 21.0622 19.0017L19.3872 20.7303C19.1298 20.9985 18.8236 21.2113 18.4861 21.3566C18.1486 21.5019 17.7865 21.5767 17.4208 21.5767C17.0551 21.5767 16.6931 21.5019 16.3556 21.3566C16.0181 21.2113 15.7118 20.9985 15.4545 20.7303L13.0511 18.2501C12.8867 18.0816 12.6787 17.9658 12.452 17.9166C12.2253 17.8674 11.9896 17.8868 11.7734 17.9726C11.5572 18.0583 11.3696 18.2068 11.2332 18.4C11.0968 18.5933 11.0174 18.8231 11.0047 19.0618C10.965 20.327 11.1779 21.587 11.6302 22.7636C12.0825 23.9402 12.7645 25.0083 13.6338 25.9013C14.5457 26.8402 15.6407 27.5684 16.8461 28.0374C18.0514 28.5065 19.3396 28.7058 20.6252 28.6221C21.3575 28.5707 22.0922 28.6778 22.782 28.9367C23.4718 29.1956 24.1015 29.6004 24.6308 30.1253L26.67 32.2297C26.7428 32.3049 29.7465 35.2517 29.8194 35.3269M38.0285 32.6079L43.2747 37.9268C43.8111 38.4409 44.442 38.8388 45.13 39.097C45.818 39.3552 46.5491 39.4684 47.2803 39.43C48.5594 39.3501 49.8407 39.5438 51.0438 39.9991C52.2469 40.4544 53.3459 41.1613 54.2717 42.0756C55.1397 42.9693 55.8203 44.0376 56.2713 45.2141C56.7224 46.3907 56.9341 47.6505 56.8935 48.9151C56.8821 49.1535 56.8043 49.3835 56.6693 49.5774C56.5344 49.7714 56.348 49.9209 56.1327 50.0082C55.9174 50.0955 55.6822 50.1168 55.4555 50.0696C55.2287 50.0223 55.02 49.9085 54.8544 49.7418L52.451 47.2616C52.1937 46.9934 51.8874 46.7806 51.5499 46.6353C51.2124 46.49 50.8504 46.4152 50.4847 46.4152C50.119 46.4152 49.7569 46.49 49.4194 46.6353C49.0819 46.7806 48.7756 46.9934 48.5183 47.2616L46.8433 48.9902C46.5835 49.2558 46.3772 49.5719 46.2364 49.9202C46.0957 50.2685 46.0232 50.6421 46.0232 51.0195C46.0232 51.3969 46.0957 51.7706 46.2364 52.1189C46.3772 52.4672 46.5835 52.7833 46.8433 53.0488L49.5379 55.8297C49.6913 55.9981 49.7967 56.2069 49.8425 56.4331C49.8883 56.6593 49.8726 56.8941 49.7973 57.1118C49.722 57.3294 49.5899 57.5214 49.4157 57.6665C49.2414 57.8116 49.0317 57.9042 48.8096 57.9342C47.4705 58.1007 46.1123 57.9503 44.8378 57.4945C43.5634 57.0388 42.4062 56.2895 41.454 55.3036C40.5083 54.314 39.7887 53.1189 39.3477 51.8055C38.9067 50.4922 38.7555 49.0939 38.905 47.7125C38.9833 46.9204 38.8936 46.1201 38.6421 45.3673C38.3905 44.6146 37.9832 43.9273 37.4485 43.3533L35.7006 41.5495L32.4936 38.32M29.7287 41.1586L32.569 44.0899L21.4263 55.5892C20.3157 56.7354 18.8094 57.3793 17.2387 57.3793C16.461 57.3793 15.6909 57.2212 14.9724 56.9141C14.2539 56.6069 13.6011 56.1567 13.0511 55.5892C12.5012 55.0217 12.065 54.3479 11.7674 53.6064C11.4698 52.8649 11.3166 52.0702 11.3166 51.2676C11.3166 49.6466 11.9405 48.0921 13.0511 46.9459L24.1137 35.4465L26.8884 38.3176M29.7287 41.1586L45.0954 25.3752H50.7032L56.3109 13.7405L53.4706 10.8093L42.2551 16.7469V22.5342L26.8884 38.3176M29.7287 41.1586L26.8884 38.3176" stroke="#66748E" stroke-width="3"/>
</svg>
