<svg width="68" height="68" viewBox="0 0 68 68" fill="none" xmlns="http://www.w3.org/2000/svg">
<g clip-path="url(#clip0_1527_5298)">
<path d="M38.2995 10.6474C37.8114 11.8096 37.5642 13.0524 37.5734 14.2986C37.5815 15.6075 37.8677 16.891 38.4128 18.0639C38.958 19.2368 39.7497 20.2724 40.7354 21.1019C41.2995 21.5717 41.7555 22.1576 42.0741 22.822C42.3927 23.4863 42.5669 24.2144 42.5855 24.9595L42.6004 27.8898C42.6009 27.9945 42.7287 32.2004 42.7292 32.3051L42.666 40.867L42.6787 43.3787C42.6672 44.1631 42.4854 44.941 42.1458 45.6584C41.8063 46.3757 41.317 47.0154 40.7122 47.5329C39.6481 48.4262 38.7892 49.5401 38.1983 50.7931C37.6074 52.0462 37.2995 53.4068 37.2968 54.7756C37.3015 56.1462 37.6179 57.488 38.2222 58.6991C38.8264 59.9103 39.7025 60.959 40.7842 61.7659C40.9651 61.898 41.1806 61.9763 41.4068 61.9922C41.633 62.0081 41.8612 61.961 42.0662 61.8561C42.2712 61.7512 42.4451 61.5925 42.5687 61.3976C42.6922 61.2026 42.7607 60.979 42.7665 60.7513L42.7469 56.8791C42.7433 56.5076 42.8132 56.1367 42.9528 55.7879C43.0923 55.4391 43.2986 55.1193 43.5599 54.8469C43.8211 54.5746 44.1321 54.3551 44.4748 54.2012C44.8175 54.0472 45.1851 53.9619 45.5565 53.9501L47.9619 53.8621C48.3333 53.8468 48.7016 53.9052 49.0458 54.034C49.3899 54.1628 49.703 54.3594 49.9669 54.6126C50.2308 54.8657 50.4403 55.1703 50.5833 55.5088C50.7263 55.8473 50.8 56.2129 50.8001 56.5845L50.8175 60.0381C50.8216 60.2731 50.8935 60.4997 51.0244 60.6908C51.1554 60.8819 51.3398 61.0293 51.5556 61.1153C51.7715 61.2014 52.0095 61.2224 52.2411 61.1759C52.4727 61.1294 52.6881 61.0173 52.8614 60.8531C53.7662 59.9686 54.4854 58.9129 54.9743 57.7515C55.4633 56.5902 55.7117 55.3481 55.7039 54.1023C55.6687 52.8016 55.365 51.5307 54.8119 50.3693C54.2588 49.2079 53.4682 48.1811 52.4898 47.3533C51.9356 46.8749 51.4863 46.2871 51.1685 45.6245C50.8508 44.9619 50.6709 44.2381 50.6397 43.4957L50.6777 32.0143L50.5882 25.0331C50.5936 24.2478 50.7727 23.468 51.1127 22.7497C51.4528 22.0314 51.9452 21.3925 52.5547 20.8789C53.6278 19.9933 54.493 18.8808 55.0847 17.6259C55.6765 16.371 55.9792 15.0066 55.97 13.6362C55.9536 12.268 55.632 10.9305 55.0286 9.7211C54.4253 8.51174 53.5555 7.46112 52.4827 6.64594C52.3042 6.5049 52.0876 6.41911 51.8583 6.39867C51.629 6.37823 51.3966 6.42398 51.1884 6.53055C50.9802 6.63711 50.8048 6.80006 50.6829 7.00023C50.561 7.2004 50.4977 7.42947 50.5004 7.66051L50.5199 11.5327C50.5236 11.9042 50.4537 12.2751 50.3141 12.6239C50.1746 12.9727 49.9682 13.2925 49.707 13.5649C49.4458 13.8372 49.1348 14.0567 48.7921 14.2107C48.4494 14.3646 48.0818 14.4499 47.7104 14.4617L45.3049 14.5497C44.9336 14.5651 44.5652 14.5067 44.2211 14.3779C43.877 14.2491 43.5639 14.0524 43.3 13.7993C43.0361 13.5461 42.8266 13.2415 42.6836 12.903C42.5406 12.5646 42.4669 12.1989 42.4668 11.8273L42.4494 8.3737C42.4473 8.13834 42.3773 7.91073 42.2478 7.71827C42.1183 7.52582 41.9348 7.37672 41.7194 7.28893C41.504 7.20114 41.2658 7.1784 41.0336 7.22345C40.8014 7.2685 40.5851 7.37941 40.4106 7.54284C39.5062 8.42841 38.7876 9.48515 38.2995 10.6474Z" stroke="#66748E" stroke-width="3"/>
<path d="M23.4796 43.0462L27.5606 43.1105L27.8129 59.1208C27.838 60.7166 27.2282 62.2371 26.1176 63.3477C25.5676 63.8976 24.9113 64.3304 24.1861 64.6213C23.4608 64.9121 22.6808 65.0554 21.8907 65.043C21.1005 65.0305 20.3157 64.8626 19.5809 64.5487C18.8461 64.2348 18.1758 63.7812 17.6083 63.2136C16.4621 62.0675 15.8041 60.527 15.7789 58.9312L15.4701 42.9776L19.4623 43.0457M23.4796 43.0462L23.1849 21.0197L27.1501 17.0544L22.8885 4.86223L18.8074 4.79794L15.0754 16.927L19.1676 21.0192L19.4623 43.0457M23.4796 43.0462L19.4623 43.0457" stroke="#66748E" stroke-width="3"/>
</g>
<defs>
<clipPath id="clip0_1527_5298">
<rect width="68" height="68" fill="white"/>
</clipPath>
</defs>
</svg>
