<svg width="68" height="68" viewBox="0 0 68 68" fill="none" xmlns="http://www.w3.org/2000/svg">
<rect x="10" y="9" width="42" height="15" rx="2" stroke="#66748E" stroke-width="3"/>
<path d="M51.5 16.5H54.5C56.1569 16.5 57.5 17.8431 57.5 19.5V26.75C57.5 28.0833 56.62 29.2567 55.34 29.63L35.66 35.37C34.38 35.7433 33.5 36.9167 33.5 38.25V42" stroke="#66748E" stroke-width="3"/>
<path d="M29.5 42.5H37.5V54.5C37.5 56.7091 35.7091 58.5 33.5 58.5C31.2909 58.5 29.5 56.7091 29.5 54.5V42.5Z" stroke="#66748E" stroke-width="3"/>
<path d="M10 22L14.5 17.5C16.9853 15.0147 21.0147 15.0147 23.5 17.5V17.5C25.9853 19.9853 30.0147 19.9853 32.5 17.5V17.5C34.9853 15.0147 39.0147 15.0147 41.5 17.5V17.5C43.9853 19.9853 48.0147 19.9853 50.5 17.5L52 16" stroke="#66748E" stroke-width="2"/>
</svg>
