<svg width="68" height="68" viewBox="0 0 68 68" fill="none" xmlns="http://www.w3.org/2000/svg">
<path d="M55.0537 32.729C56.0085 35.0342 56.5 37.5049 56.5 40C56.5 40.1509 56.5073 40.2835 56.5211 40.3995C56.6322 41.3378 58.5 41.9016 58.5 42.8464V46H10V43.6677C10 42.1465 11.1386 40.866 12.6495 40.6883L18.5 40C18.5 37.5049 18.9914 35.0342 19.9463 32.729C20.9011 30.4238 22.3007 28.3293 24.065 26.565C25.8293 24.8007 27.9238 23.4011 30.229 22.4463C32.5342 21.4914 35.0049 21 37.5 21C39.9951 21 42.4658 21.4914 44.771 22.4463C47.0762 23.4011 49.1707 24.8007 50.935 26.565C52.6993 28.3293 54.0989 30.4238 55.0537 32.729Z" stroke="#66748E" stroke-width="3"/>
<rect x="26.5" y="40" width="6" height="6" stroke="#66748E" stroke-width="2"/>
<rect x="40.5" y="40" width="6" height="6" stroke="#66748E" stroke-width="2"/>
<path d="M29.5 22.5L31.5 17C36.5 15.3333 43 15.7187 48.5 19.5C54 23.2812 57 27 57 39" stroke="#66748E" stroke-width="2"/>
</svg>
