<svg width="68" height="68" viewBox="0 0 68 68" fill="none" xmlns="http://www.w3.org/2000/svg">
<g clip-path="url(#clip0_1532_5574)">
<circle cx="57.2275" cy="51.174" r="7.81223" transform="rotate(45 57.2275 51.174)" stroke="#66748E" stroke-width="3"/>
<path d="M57.5138 58.981C59.4166 58.9117 61.2989 58.1507 62.7515 56.6981C65.8024 53.6472 65.8024 48.7008 62.7515 45.6499L40.1028 23.0012C37.0519 19.9503 32.1055 19.9503 29.0546 23.0012C26.3027 25.7532 26.033 30.0474 28.2457 33.1016M57.5138 58.981C55.4201 59.0573 53.3016 58.2964 51.7033 56.6981L29.0546 34.0494C28.7557 33.7504 28.4861 33.4333 28.2457 33.1016M57.5138 58.981L31.7334 58.981L5.99998 33.1016L28.2457 33.1016" stroke="#66748E" stroke-width="3"/>
</g>
<defs>
<clipPath id="clip0_1532_5574">
<rect width="68" height="68" fill="white"/>
</clipPath>
</defs>
</svg>
