<svg width="68" height="68" viewBox="0 0 68 68" fill="none" xmlns="http://www.w3.org/2000/svg">
<ellipse cx="23" cy="43.5" rx="5" ry="9.5" stroke="#66748E" stroke-width="3"/>
<ellipse cx="18" cy="24.5" rx="5" ry="9.5" stroke="#66748E" stroke-width="3"/>
<ellipse cx="13" cy="43.5" rx="5" ry="9.5" stroke="#66748E" stroke-width="3"/>
<path d="M13.5 34H55.625C58.3174 34 60.5 38.2533 60.5 43.5C60.5 48.7467 58.3174 53 55.625 53H13.5" stroke="#66748E" stroke-width="3"/>
<path d="M18.5 15L50.625 15C53.3174 15 55.5 19.2533 55.5 24.5C55.5 29.7467 53.3174 34 50.625 34H18.5" stroke="#66748E" stroke-width="3"/>
<path d="M23.5 24.5H32.5" stroke="#66748E" stroke-width="2"/>
<path d="M29 43.5H38" stroke="#66748E" stroke-width="2"/>
<path d="M35 20H49" stroke="#66748E" stroke-width="2"/>
<path d="M40.5 39H54.5" stroke="#66748E" stroke-width="2"/>
<path d="M39 29L55 29" stroke="#66748E" stroke-width="2"/>
<path d="M44.5 48L60.5 48" stroke="#66748E" stroke-width="2"/>
</svg>
