<svg width="68" height="68" viewBox="0 0 68 68" fill="none" xmlns="http://www.w3.org/2000/svg">
<rect x="59.2913" y="42.226" width="29.3789" height="12.3701" transform="rotate(135 59.2913 42.226)" stroke="#66748E" stroke-width="3"/>
<path d="M55.8958 38.552L48.2373 46.2104M48.2373 41.4976L40.8735 48.8614M40.2844 52.9852L35.277 57.9926" stroke="#66748E"/>
<rect x="29.7701" y="36.9445" width="29.3789" height="12.3701" transform="rotate(-45 29.7701 36.9445)" stroke="#66748E" stroke-width="3"/>
<path d="M33.1656 40.6185L40.8241 32.9601M40.8241 37.673L48.1879 30.3091M48.777 26.1854L53.7844 21.178" stroke="#66748E"/>
<rect x="17.7469" y="7.51631" width="29.3789" height="12.3701" transform="rotate(45 17.7469 7.51631)" stroke="#66748E" stroke-width="3"/>
<path d="M14.073 10.9117L21.7314 18.5701M17.0185 18.5701L24.3824 25.934M28.5061 26.5231L33.5136 31.5305" stroke="#66748E"/>
<rect x="29.774" y="54.3458" width="29.3789" height="12.3701" transform="rotate(-135 29.774 54.3458)" stroke="#66748E" stroke-width="3"/>
<path d="M33.4479 50.9504L25.7895 43.292M30.5023 43.292L23.1385 35.9281M19.0147 35.339L14.0073 30.3316" stroke="#66748E"/>
</svg>
