<svg width="68" height="68" viewBox="0 0 68 68" fill="none" xmlns="http://www.w3.org/2000/svg">
<path d="M56 47V10.5H18V47" stroke="#66748E" stroke-width="3"/>
<path d="M56 47C56 48.1819 55.8448 49.3522 55.5433 50.4442C55.2417 51.5361 54.7998 52.5282 54.2426 53.364C53.6855 54.1997 53.0241 54.8626 52.2961 55.3149C51.5681 55.7672 50.7879 56 50 56C49.2121 56 48.4319 55.7672 47.7039 55.3149C46.9759 54.8626 46.3145 54.1997 45.7574 53.364C45.2002 52.5282 44.7583 51.5361 44.4567 50.4442C44.1552 49.3522 44 48.1819 44 47" stroke="#66748E" stroke-width="3"/>
<path d="M6 47C6 48.1819 6.15519 49.3522 6.45672 50.4442C6.75825 51.5361 7.20021 52.5282 7.75736 53.364C8.31451 54.1997 8.97595 54.8626 9.7039 55.3149C10.4319 55.7672 11.2121 56 12 56H50.5" stroke="#66748E" stroke-width="3"/>
<path d="M6 48H44.5" stroke="#66748E" stroke-width="2"/>
<path d="M27 48V35M44.5 21V39.5" stroke="#66748E" stroke-width="2"/>
</svg>
