<svg width="68" height="68" viewBox="0 0 68 68" fill="none" xmlns="http://www.w3.org/2000/svg">
<path d="M17 34C17 30.1557 18.2916 26.4249 20.6641 23.4164C23.0366 20.408 26.3498 18.2996 30.0631 17.4352C33.7763 16.5709 37.6703 17.0018 41.1096 18.6574C44.5489 20.3131 47.3303 23.5443 49 27" stroke="#66748E" stroke-width="3"/>
<path d="M51 33C51 36.8443 49.7084 40.5751 47.3359 43.5836C44.9634 46.592 41.6502 48.7004 37.9369 49.5648C34.2237 50.4291 30.3297 49.9982 26.8904 48.3426C23.4511 46.6869 20.6697 43.4557 19 40" stroke="#66748E" stroke-width="3"/>
<path d="M51 20V28H43" stroke="#66748E" stroke-width="3"/>
<path d="M17 47L17 39L25 39" stroke="#66748E" stroke-width="3"/>
</svg>
