<svg width="68" height="68" viewBox="0 0 68 68" fill="none" xmlns="http://www.w3.org/2000/svg">
<path fill-rule="evenodd" clip-rule="evenodd" d="M28 13C37.3888 13 45 20.6112 45 30C45 39.3888 37.3888 47 28 47C25.278 47 22.7093 46.3614 20.4316 45.2269C19.5175 44.7716 18.4244 44.5963 17.3507 44.8835L13.2596 45.9782C12.5082 46.1792 11.8208 45.4917 12.0219 44.7404L13.1165 40.6494C13.4038 39.5757 13.2285 38.4825 12.7731 37.5684C11.6387 35.2908 11 32.722 11 30C11 20.6112 18.6112 13 28 13Z" stroke="#66748E" stroke-width="3"/>
<path d="M43.0132 21C50.7379 21 57 27.268 57 35C57 37.2417 56.4745 39.3571 55.5411 41.2328C55.1665 41.9856 55.0223 42.8859 55.2586 43.7701L56.1593 47.1391C56.3247 47.7579 55.7591 48.3241 55.1409 48.1585L51.7749 47.257C50.8916 47.0205 49.9922 47.1649 49.2401 47.5398C47.3662 48.4741 45.2528 49 43.0132 49C39.5792 49 36.4343 47.7613 34 45.7059" stroke="#66748E" stroke-width="2"/>
<circle cx="21.4107" cy="30.4107" r="1.4107" stroke="#66748E" stroke-width="2"/>
<circle cx="27.9999" cy="30.4107" r="1.4107" stroke="#66748E" stroke-width="2"/>
<circle cx="34.5893" cy="30.4107" r="1.4107" stroke="#66748E" stroke-width="2"/>
</svg>
