<svg width="68" height="68" viewBox="0 0 68 68" fill="none" xmlns="http://www.w3.org/2000/svg">
<path d="M59.25 46.25V46.25C55.7982 49.7018 50.2018 49.7018 46.75 46.25V46.25C43.2982 42.7982 37.7018 42.7982 34.25 46.25V46.25C30.7982 49.7018 25.2018 49.7018 21.75 46.25V46.25C18.2982 42.7982 12.7018 42.7982 9.25 46.25V46.25" stroke="#66748E" stroke-width="3"/>
<path d="M59.25 56.25V56.25C55.7982 59.7018 50.2018 59.7018 46.75 56.25V56.25C43.2982 52.7982 37.7018 52.7982 34.25 56.25V56.25C30.7982 59.7018 25.2018 59.7018 21.75 56.25V56.25C18.2982 52.7982 12.7018 52.7982 9.25 56.25V56.25" stroke="#66748E" stroke-width="3"/>
<path d="M21 46V22C21 19.2386 23.2386 17 26 17V17C28.7614 17 31 19.2386 31 22V24.5" stroke="#66748E" stroke-width="3"/>
<path d="M46 46V22C46 19.2386 48.2386 17 51 17V17C53.7614 17 56 19.2386 56 22V24.5" stroke="#66748E" stroke-width="3"/>
<path d="M21 29.5H45.5" stroke="#66748E" stroke-width="3"/>
<path d="M21 37H45.5" stroke="#66748E" stroke-width="3"/>
</svg>
