<svg width="68" height="68" viewBox="0 0 68 68" fill="none" xmlns="http://www.w3.org/2000/svg">
<path d="M32 41L38 47" stroke="#66748E" stroke-width="3"/>
<path d="M8 27L14 33" stroke="#66748E" stroke-width="3"/>
<path d="M32 27L38 33" stroke="#66748E" stroke-width="3"/>
<path d="M20 41L26 47" stroke="#66748E" stroke-width="3"/>
<path d="M44 41L50 47" stroke="#66748E" stroke-width="3"/>
<path d="M20 27L26 33" stroke="#66748E" stroke-width="3"/>
<path d="M44 27L50 33" stroke="#66748E" stroke-width="3"/>
<path d="M14 41L20 47" stroke="#66748E" stroke-width="3"/>
<path d="M38 41L44 47" stroke="#66748E" stroke-width="3"/>
<path d="M14 27L20 33" stroke="#66748E" stroke-width="3"/>
<path d="M38 27L44 33" stroke="#66748E" stroke-width="3"/>
<path d="M26 41L32 47" stroke="#66748E" stroke-width="3"/>
<path d="M50 41L56 47" stroke="#66748E" stroke-width="3"/>
<path d="M26 27L32 33" stroke="#66748E" stroke-width="3"/>
<path d="M50 27L56 33" stroke="#66748E" stroke-width="3"/>
<path d="M17 34L11 40" stroke="#66748E" stroke-width="3"/>
<path d="M41 34L35 40" stroke="#66748E" stroke-width="3"/>
<path d="M17 20L11 26" stroke="#66748E" stroke-width="3"/>
<path d="M41 20L35 26" stroke="#66748E" stroke-width="3"/>
<path d="M29 34L23 40" stroke="#66748E" stroke-width="3"/>
<path d="M53 34L47 40" stroke="#66748E" stroke-width="3"/>
<path d="M29 20L23 26" stroke="#66748E" stroke-width="3"/>
<path d="M53 20L47 26" stroke="#66748E" stroke-width="3"/>
<path d="M23 34L17 40" stroke="#66748E" stroke-width="3"/>
<path d="M47 34L41 40" stroke="#66748E" stroke-width="3"/>
<path d="M23 20L17 26" stroke="#66748E" stroke-width="3"/>
<path d="M47 20L41 26" stroke="#66748E" stroke-width="3"/>
<path d="M35 34L29 40" stroke="#66748E" stroke-width="3"/>
<path d="M59 34L53 40" stroke="#66748E" stroke-width="3"/>
<path d="M35 20L29 26" stroke="#66748E" stroke-width="3"/>
<path d="M59 20L53 26" stroke="#66748E" stroke-width="3"/>
<path d="M7 20H62" stroke="#66748E" stroke-width="3"/>
<path d="M7 47H62" stroke="#66748E" stroke-width="3"/>
</svg>
