<svg width="68" height="68" viewBox="0 0 68 68" fill="none" xmlns="http://www.w3.org/2000/svg">
<path d="M28 52.5C28 55.7 26 59.1667 25 60.5H36C38.5 60.5 41 61 44 58.5C47 56 48 47 44.5 43.5C41 40 33 40.5 30 43C27 45.5 28 48.5 28 52.5Z" stroke="#66748E" stroke-width="3"/>
<path d="M31 60.5C31.8333 59.6667 33.1 58.9 33.5 54.5M37 60C38.3333 59.6667 41 55 39 51" stroke="#66748E" stroke-width="2"/>
<path d="M41 41C41 38.5147 38.9853 36.5 36.5 36.5C34.0147 36.5 32 38.5147 32 41" stroke="#66748E" stroke-width="3"/>
<path d="M38.5 7C38.5 5.89543 37.6046 5 36.5 5C35.3954 5 34.5 5.89543 34.5 7H38.5ZM38.5 36V7H34.5V36H38.5Z" fill="#66748E"/>
</svg>
