<svg width="68" height="68" viewBox="0 0 68 68" fill="none" xmlns="http://www.w3.org/2000/svg">
<path d="M5 59L63 59" stroke="#66748E" stroke-width="3"/>
<path d="M22 58V54" stroke="#66748E" stroke-width="3"/>
<path d="M22 49V38" stroke="#66748E" stroke-width="3"/>
<path d="M17 41H51" stroke="#66748E" stroke-width="2"/>
<path d="M17 45H51" stroke="#66748E" stroke-width="2"/>
<path d="M46 58V54" stroke="#66748E" stroke-width="3"/>
<path d="M46 49V38" stroke="#66748E" stroke-width="3"/>
<rect x="18" y="49" width="32" height="4" stroke="#66748E" stroke-width="2"/>
<path d="M11 44L11 26" stroke="#66748E" stroke-width="2"/>
<path d="M11 20L11 18" stroke="#66748E" stroke-width="2"/>
<path d="M9 45C9 43.8954 9.89543 43 11 43C12.1046 43 13 43.8954 13 45V59H9V45Z" stroke="#66748E" stroke-width="2"/>
<path d="M10.986 26L7.05746 21H14.9425L11.014 26H10.986Z" stroke="#66748E" stroke-width="2"/>
<path d="M57 44L57 26" stroke="#66748E" stroke-width="2"/>
<path d="M57 20L57 18" stroke="#66748E" stroke-width="2"/>
<path d="M55 45C55 43.8954 55.8954 43 57 43C58.1046 43 59 43.8954 59 45V59H55V45Z" stroke="#66748E" stroke-width="2"/>
<path d="M56.986 26L53.0575 21H60.9425L57.014 26H56.986Z" stroke="#66748E" stroke-width="2"/>
</svg>
