<svg width="68" height="68" viewBox="0 0 68 68" fill="none" xmlns="http://www.w3.org/2000/svg">
<path d="M4 59H64" stroke="#66748E" stroke-width="3"/>
<path d="M17 21.6602C22.0805 28.4661 24.0624 38.5582 24.7188 47" stroke="#66748E" stroke-width="3"/>
<path d="M47.095 59C46.7315 52.3571 47.095 36.8571 54 28" stroke="#66748E" stroke-width="3"/>
<path d="M17 22.7989C13.7407 22.2473 6.77778 23.0472 5 30.6602" stroke="#66748E" stroke-width="3"/>
<path d="M54 29.1041C56.716 28.6903 62.5185 29.2903 64 35" stroke="#66748E" stroke-width="3"/>
<path d="M17.2974 21.0784C19.5193 18.7393 24.0747 15.8826 31 18.4797" stroke="#66748E" stroke-width="3"/>
<path d="M53.3401 27.5581C51.5013 25.6222 47.7313 23.2581 42 25.4073" stroke="#66748E" stroke-width="3"/>
<path d="M17 22.6602C15.2222 23.9935 13 25.8602 13 30.6602" stroke="#66748E" stroke-width="3"/>
<path d="M54 29C55.3333 30 57 31.4 57 35" stroke="#66748E" stroke-width="3"/>
<path d="M17.2973 21.0785C19.5465 21.2215 24.0745 21.0785 27.1044 25.405" stroke="#66748E" stroke-width="3"/>
<path d="M53.3402 27.5581C51.4788 27.6764 47.7315 27.5581 45.224 31.1387" stroke="#66748E" stroke-width="3"/>
<path d="M17 21.6602C14.5714 19.2775 8.17143 15.4652 2 19.2775" stroke="#66748E" stroke-width="3"/>
<path d="M54 28C55.9429 26.213 61.0629 23.3538 66 26.213" stroke="#66748E" stroke-width="3"/>
<path d="M16.6924 20.9845C17.1399 17.4405 18.4478 13.2856 22.7761 11.1215" stroke="#66748E" stroke-width="3"/>
<path d="M53.5 28C53.1297 25.067 52.388 21.1089 48.806 19.3179" stroke="#66748E" stroke-width="3"/>
<path d="M7 58V47H40V58" stroke="#66748E" stroke-width="3"/>
<path d="M51 58V47H61V58" stroke="#66748E" stroke-width="3"/>
<path d="M14.5 47V53.5M30.5 47.5V56M21 47.5V51M36 47.5V53" stroke="#66748E"/>
<path d="M55.8139 47.5V56M58.4651 47.5V51" stroke="#66748E"/>
</svg>
