<svg width="208" height="38" viewBox="0 0 208 38" fill="none" xmlns="http://www.w3.org/2000/svg">
<path d="M205.961 12.9386C205.133 12.4313 204.212 12.0308 203.197 11.7371C202.183 11.4434 201.195 11.2966 200.234 11.2966C199.059 11.2966 198.071 11.5369 197.27 12.0175C196.469 12.4714 196.068 13.219 196.068 14.2603C196.068 15.0613 196.349 15.7021 196.91 16.1827C197.497 16.6366 198.231 17.0237 199.112 17.3441C200.02 17.6378 200.968 17.9315 201.956 18.2252C202.944 18.5189 203.892 18.8927 204.799 19.3466C205.707 19.7738 206.441 20.3746 207.002 21.1489C207.563 21.9232 207.843 22.9378 207.843 24.1927C207.843 25.5544 207.469 26.6758 206.722 27.5569C206.001 28.4113 205.053 29.0521 203.878 29.4793C202.73 29.8798 201.475 30.08 200.114 30.08C198.618 30.08 197.15 29.8264 195.708 29.3191C194.266 28.8118 193.038 28.0909 192.023 27.1564L193.225 25.0337C194.133 25.8614 195.214 26.5156 196.469 26.9962C197.751 27.4501 199.005 27.677 200.234 27.677C201.061 27.677 201.809 27.5702 202.476 27.3566C203.171 27.1163 203.718 26.7692 204.119 26.3153C204.546 25.8347 204.759 25.234 204.759 24.5131C204.786 23.632 204.519 22.9511 203.958 22.4705C203.424 21.9632 202.703 21.5494 201.796 21.229C200.915 20.9086 199.967 20.6015 198.952 20.3078C197.964 20.0141 197.016 19.6537 196.109 19.2265C195.227 18.7726 194.507 18.1852 193.946 17.4643C193.385 16.7167 193.105 15.7154 193.105 14.4605C193.105 13.1522 193.452 12.0842 194.146 11.2565C194.84 10.4288 195.735 9.81473 196.829 9.41423C197.951 9.01373 199.152 8.81348 200.434 8.81348C201.689 8.81348 202.904 8.98703 204.078 9.33413C205.253 9.65453 206.281 10.1084 207.162 10.6958L205.961 12.9386Z" fill="#19191C"/>
<path d="M179.215 8.85391C181.217 8.85391 182.98 9.3078 184.502 10.2156C186.023 11.1234 187.212 12.3783 188.066 13.9803C188.92 15.5823 189.348 17.4246 189.348 19.5072C189.348 21.5631 188.92 23.3921 188.066 24.9941C187.212 26.5961 186.023 27.851 184.502 28.7588C183.006 29.6399 181.258 30.0804 179.255 30.0804C177.333 30.0804 175.651 29.6532 174.209 28.7988C172.794 27.9177 171.686 26.6895 170.885 25.1142C170.11 23.5122 169.723 21.6432 169.723 19.5072C169.723 17.3445 170.11 15.4622 170.885 13.8602C171.686 12.2582 172.794 11.03 174.209 10.1756C175.651 9.29445 177.319 8.85391 179.215 8.85391ZM178.654 11.3771C177.186 11.3771 175.877 11.7375 174.729 12.4584C173.581 13.1526 172.687 14.1005 172.046 15.302C171.405 16.5035 171.085 17.8919 171.085 19.4672C171.085 21.0158 171.405 22.4042 172.046 23.6324C172.687 24.8339 173.581 25.7817 174.729 26.4759C175.877 27.1701 177.186 27.5172 178.654 27.5172C180.123 27.5172 181.418 27.1701 182.539 26.4759C183.687 25.7817 184.582 24.8339 185.222 23.6324C185.863 22.4042 186.184 21.0158 186.184 19.4672C186.184 17.8919 185.863 16.5035 185.222 15.302C184.582 14.1005 183.687 13.1526 182.539 12.4584C181.418 11.7375 180.123 11.3771 178.654 11.3771ZM167.961 0.283203H171.085V30.0003H167.961V0.283203Z" fill="#19191C"/>
<path d="M151.134 20.1076C149.372 20.1076 148.037 20.4013 147.129 20.9887C146.221 21.5761 145.767 22.4705 145.767 23.672C145.767 24.8735 146.195 25.8481 147.049 26.5957C147.93 27.3166 149.118 27.677 150.613 27.677C151.842 27.677 152.95 27.4768 153.938 27.0763C154.925 26.6758 155.74 26.1017 156.381 25.3541C157.048 24.6065 157.502 23.6987 157.742 22.6307L158.543 25.1539C157.796 26.836 156.688 28.0909 155.219 28.9186C153.751 29.7196 152.015 30.1201 150.013 30.1201C148.571 30.1201 147.303 29.8397 146.208 29.279C145.14 28.7183 144.312 27.9574 143.725 26.9962C143.137 26.035 142.844 24.9536 142.844 23.7521C142.844 21.9365 143.538 20.4947 144.926 19.4267C146.315 18.3587 148.25 17.8114 150.734 17.7847H158.223V20.1076H151.134ZM157.662 16.3829C157.662 14.7809 157.182 13.5394 156.22 12.6583C155.286 11.7772 153.884 11.3366 152.015 11.3366C150.84 11.3366 149.706 11.5502 148.611 11.9774C147.516 12.4046 146.422 13.0054 145.327 13.7797L144.005 11.7371C144.913 11.123 145.794 10.6024 146.648 10.1752C147.503 9.74796 148.411 9.42756 149.372 9.21396C150.333 8.97366 151.414 8.85352 152.616 8.85352C155.233 8.85352 157.235 9.50766 158.623 10.816C160.012 12.0976 160.719 13.8598 160.746 16.1026L160.786 29.9999H157.742L157.662 16.3829Z" fill="#19191C"/>
<path d="M124.398 1.96484H127.602V27.2364H139.898V29.9998H124.398V1.96484Z" fill="#19191C"/>
<path d="M113.856 17.7847C113.856 15.8623 113.322 14.3671 112.254 13.2991C111.213 12.2044 109.758 11.657 107.889 11.657C105.646 11.6837 103.897 12.4447 102.642 13.9399C101.387 15.4084 100.76 17.3174 100.76 19.667H99.6783C99.6783 17.2106 100.052 15.1948 100.8 13.6195C101.547 12.0175 102.615 10.8293 104.004 10.055C105.419 9.25401 107.074 8.85352 108.97 8.85352C110.652 8.85352 112.094 9.18726 113.295 9.85476C114.497 10.5223 115.405 11.4701 116.019 12.6983C116.659 13.8998 116.98 15.355 116.98 17.0638V29.9999H113.856V17.7847ZM97.6758 8.93361H100.8V29.9999H97.6758V8.93361Z" fill="#19191C"/>
<path d="M81.4863 8.85352C83.5689 8.85352 85.4112 9.30741 87.0132 10.2152C88.6419 11.0963 89.9102 12.3379 90.818 13.9399C91.7258 15.5419 92.1797 17.3842 92.1797 19.4668C92.1797 21.5494 91.7258 23.3917 90.818 24.9937C89.9102 26.5957 88.6419 27.8506 87.0132 28.7584C85.4112 29.6395 83.5689 30.08 81.4863 30.08C79.4037 30.08 77.5481 29.6395 75.9194 28.7584C74.3174 27.8506 73.0625 26.5957 72.1547 24.9937C71.2469 23.3917 70.793 21.5494 70.793 19.4668C70.793 17.3842 71.2469 15.5419 72.1547 13.9399C73.0625 12.3379 74.3174 11.0963 75.9194 10.2152C77.5481 9.30741 79.4037 8.85352 81.4863 8.85352ZM81.4863 11.4568C80.0178 11.4568 78.7095 11.8039 77.5614 12.4981C76.4133 13.1656 75.5189 14.1001 74.8781 15.3016C74.2373 16.5031 73.9169 17.8915 73.9169 19.4668C73.9169 21.0688 74.2373 22.4839 74.8781 23.7121C75.5189 24.9136 76.4133 25.8614 77.5614 26.5556C78.7095 27.2231 80.0178 27.5569 81.4863 27.5569C82.9815 27.5569 84.2898 27.2231 85.4112 26.5556C86.5593 25.8614 87.4538 24.9136 88.0946 23.7121C88.7354 22.4839 89.0558 21.0688 89.0558 19.4668C89.0558 17.8915 88.7354 16.5031 88.0946 15.3016C87.4538 14.1001 86.5593 13.1656 85.4112 12.4981C84.2898 11.8039 82.9815 11.4568 81.4863 11.4568Z" fill="#19191C"/>
<path d="M65.8376 27.7974C65.8376 29.8533 65.3971 31.6289 64.516 33.1241C63.6349 34.6193 62.4067 35.7807 60.8314 36.6084C59.2561 37.4361 57.3871 37.85 55.2244 37.85C53.569 37.85 52.0337 37.5696 50.6186 37.0089C49.2035 36.4749 47.8552 35.7139 46.5736 34.726L48.0154 32.5634C49.0567 33.4445 50.1514 34.1253 51.2995 34.6059C52.4476 35.0865 53.7158 35.3268 55.1042 35.3268C56.6528 35.3268 57.9878 35.0197 59.1092 34.4056C60.2573 33.7915 61.1384 32.9238 61.7525 31.8024C62.3933 30.7077 62.7137 29.3994 62.7137 27.8775V8.93385H65.8376V27.7974ZM54.8639 8.85375C56.7329 8.82705 58.3483 9.2409 59.71 10.0953C61.0717 10.923 62.1263 12.0978 62.8739 13.6197C63.6482 15.1149 64.022 16.8905 63.9953 18.9464C64.022 21.0023 63.6616 22.7912 62.914 24.3131C62.1664 25.835 61.1117 27.0098 59.75 27.8375C58.3883 28.6651 56.7863 29.079 54.944 29.079C53.0483 29.079 51.3796 28.6518 49.9378 27.7974C48.496 26.943 47.3612 25.7549 46.5335 24.233C45.7325 22.6844 45.332 20.9222 45.332 18.9464C45.332 16.9706 45.7325 15.2351 46.5335 13.7399C47.3345 12.218 48.4559 11.0298 49.8977 10.1754C51.3395 9.2943 52.9949 8.85375 54.8639 8.85375ZM55.5047 11.2968C54.1163 11.2968 52.8748 11.6306 51.7801 12.2981C50.6854 12.9656 49.831 13.8867 49.2169 15.0615C48.6028 16.2096 48.2824 17.5312 48.2557 19.0265C48.2824 20.495 48.6028 21.8166 49.2169 22.9914C49.831 24.1395 50.672 25.0473 51.74 25.7148C52.8347 26.3556 54.0896 26.676 55.5047 26.676C56.9198 26.676 58.1614 26.3556 59.2294 25.7148C60.3241 25.0473 61.1785 24.1395 61.7926 22.9914C62.4067 21.8166 62.7137 20.495 62.7137 19.0265C62.7137 17.5045 62.4067 16.1695 61.7926 15.0215C61.1785 13.8734 60.3241 12.9656 59.2294 12.2981C58.1614 11.6306 56.9198 11.2968 55.5047 11.2968Z" fill="#19191C"/>
<path d="M43.248 11.6971C41.6727 11.6704 40.311 12.0041 39.1629 12.6983C38.0415 13.3658 37.1738 14.3137 36.5597 15.5419C35.9456 16.7434 35.6385 18.1585 35.6385 19.7872L34.5572 19.667C34.5572 17.3708 34.9043 15.4217 35.5985 13.8197C36.2927 12.2177 37.2939 10.9895 38.6022 10.1351C39.9105 9.28071 41.4591 8.85352 43.248 8.85352V11.6971ZM32.5547 8.93361H35.6786V29.9999H32.5547V8.93361Z" fill="#19191C"/>
<path d="M12.7388 1.96484H16.0229L28.5585 29.9998H25.1142L14.3007 5.24894L3.56733 29.9998H0.203125L12.7388 1.96484ZM5.73002 19.9473H22.7513V22.7107H5.73002V19.9473Z" fill="#19191C"/>
</svg>
