<svg width="208" height="48" viewBox="0 0 208 48" fill="none" xmlns="http://www.w3.org/2000/svg">
<g clip-path="url(#clip0_2179_563)">
<path d="M29.5068 37.5255H26.5317C26.3876 37.5255 26.2652 37.4463 26.2075 37.3166L15.258 12.8674C15.1355 12.5864 14.7321 12.5864 14.6096 12.8674L3.66006 37.3094C3.60243 37.4391 3.47277 37.5183 3.3359 37.5183H0.360784C0.101452 37.5183 -0.0714358 37.2518 0.0366192 37.0141L13.0464 7.94008L14.6096 4.46071C14.7393 4.17976 15.1355 4.17976 15.258 4.46071L16.814 7.94008L29.831 37.0213C29.939 37.259 29.7662 37.5255 29.5068 37.5255Z" fill="#7D7D7D"/>
<path d="M45.4836 17.1983C45.109 17.155 44.7416 17.1406 44.3814 17.1406C42.739 17.1406 41.2767 17.5224 40.0088 18.3004C38.8274 19.0208 37.8982 20.0077 37.2066 21.2683C37.1706 21.3332 37.0769 21.3115 37.0769 21.2395L36.9617 17.8826C36.9617 17.6881 36.796 17.5368 36.6015 17.5368H34.4188C34.2171 17.5368 34.0586 17.6953 34.0586 17.897V37.2172C34.0586 37.4189 34.2171 37.5774 34.4188 37.5774H36.9833C37.185 37.5774 37.3435 37.4189 37.3435 37.2172V27.5571C37.3435 26.102 37.6244 24.8125 38.1863 23.6888C38.7482 22.5722 39.5334 21.6861 40.5347 21.045C41.5504 20.4039 42.7102 20.0869 44.0213 20.0869C44.6192 20.0869 45.2171 20.1446 45.8222 20.267C46.0239 20.3102 46.2256 20.1734 46.2544 19.9645L46.557 17.7169C46.5858 17.5296 46.4561 17.3423 46.2616 17.3135C46.0023 17.2703 45.7357 17.2271 45.4764 17.1983H45.4836Z" fill="#7D7D7D"/>
<path d="M207.983 32.1963C207.983 33.3705 207.652 34.415 206.989 35.2939C206.348 36.1511 205.44 36.821 204.302 37.2893C203.2 37.7503 201.896 37.9808 200.441 37.9808C199.447 37.9808 198.467 37.844 197.524 37.5846C196.573 37.3253 195.672 36.9579 194.844 36.4969C194.195 36.1367 193.59 35.7261 193.065 35.2723C192.949 35.1786 192.913 35.0201 192.964 34.8761L193.77 32.5421C193.857 32.3043 194.152 32.2251 194.34 32.3908C194.808 32.7942 195.6 33.4497 196.213 33.7739C196.897 34.1413 197.61 34.4582 198.352 34.6816C199.072 34.8833 199.786 34.9913 200.47 34.9913C201.767 34.9913 202.804 34.732 203.531 34.2133C204.223 33.7379 204.554 33.104 204.554 32.2683C204.554 31.62 204.396 31.0941 204.079 30.7051C203.74 30.2801 203.272 29.9343 202.696 29.6678C202.047 29.3797 201.349 29.1203 200.614 28.9186C199.764 28.6665 198.979 28.4216 198.23 28.1694C197.416 27.8885 196.652 27.5355 195.975 27.1177C195.262 26.6855 194.678 26.0948 194.246 25.3744C193.814 24.654 193.59 23.732 193.59 22.6442C193.59 21.5565 193.907 20.5263 194.527 19.7051C195.139 18.8911 196.004 18.25 197.106 17.8034C198.186 17.3639 199.44 17.1406 200.83 17.1406C202.011 17.1406 203.186 17.3135 204.309 17.6665C205.131 17.9186 206.391 18.5381 206.939 18.8119C207.097 18.8911 207.169 19.0784 207.112 19.2441L206.334 21.4916C206.262 21.7078 206.002 21.7942 205.808 21.6717C205.383 21.4052 204.684 20.9946 204.079 20.7929C203.474 20.5912 202.869 20.4039 202.292 20.303C200.34 19.9356 198.871 20.1806 197.927 20.8073C197.315 21.2251 197.012 21.7654 197.012 22.4713C197.012 23.1053 197.178 23.6167 197.502 23.9985C197.848 24.4019 198.323 24.7477 198.914 25.0142C199.541 25.3024 200.247 25.5617 200.996 25.785C201.839 26.0444 202.631 26.2965 203.359 26.5414C204.187 26.8368 204.943 27.1969 205.613 27.6292C206.326 28.0902 206.903 28.6881 207.328 29.4085C207.76 30.136 207.983 31.0653 207.983 32.1819V32.1963Z" fill="#7D7D7D"/>
<path d="M189.025 22.2249C188.125 20.6473 186.907 19.4083 185.359 18.5007C183.803 17.593 182.045 17.1392 180.064 17.1392C178.558 17.1392 177.161 17.4129 175.879 17.9604C174.647 18.4862 173.581 19.1994 172.673 20.1143C172.623 20.1647 172.55 20.1359 172.55 20.0638V4.28781C172.55 4.0573 172.291 3.92763 172.097 4.0573L169.417 5.88703C169.323 5.95186 169.266 6.05992 169.266 6.17518V37.223C169.266 37.4175 169.424 37.576 169.619 37.576H171.852C172.039 37.576 172.198 37.4319 172.205 37.2374L172.334 34.8242C172.342 34.7593 172.421 34.7305 172.464 34.7809C173.372 35.7534 174.459 36.5242 175.713 37.0933C177.038 37.684 178.486 37.9794 180.064 37.9794C182.045 37.9794 183.803 37.5255 185.359 36.6179C186.907 35.7102 188.125 34.464 189.025 32.8864C189.933 31.3088 190.387 29.5367 190.387 27.5557C190.387 25.5747 189.933 23.7881 189.025 22.2249ZM186.057 31.388C185.431 32.5046 184.566 33.3978 183.471 34.0534C182.391 34.6945 181.159 35.0115 179.783 35.0115C178.407 35.0115 177.269 34.7089 176.196 34.111C175.144 33.5059 174.294 32.6847 173.653 31.6473C173.012 30.6028 172.644 29.4214 172.55 28.0959V26.9938C172.644 25.6755 173.012 24.4941 173.653 23.4496C174.308 22.405 175.165 21.5838 176.217 20.9859C177.283 20.3808 178.472 20.0855 179.783 20.0855C181.159 20.0855 182.391 20.4096 183.471 21.0652C184.566 21.7207 185.431 22.6139 186.057 23.7521C186.698 24.8687 187.015 26.1509 187.015 27.5773C187.015 29.0036 186.698 30.2642 186.057 31.388Z" fill="#7D7D7D"/>
<path d="M163.071 17.5368H160.859C160.672 17.5368 160.514 17.6881 160.506 17.8754L160.369 20.2526C160.362 20.3174 160.283 20.3463 160.24 20.2958C159.354 19.3305 158.295 18.5742 157.056 18.0195C155.759 17.4288 154.34 17.1406 152.791 17.1406C150.853 17.1406 149.117 17.5873 147.576 18.4805C146.056 19.3738 144.853 20.5912 143.974 22.1256C143.088 23.6671 142.648 25.4104 142.648 27.3554C142.648 29.3004 143.088 31.0365 143.974 32.5853C144.853 34.1269 146.056 35.3443 147.576 36.2375C149.117 37.1308 150.846 37.5774 152.77 37.5774C154.254 37.5774 155.622 37.3037 156.876 36.7562C158.079 36.2375 159.138 35.5316 160.016 34.6455C160.067 34.5951 160.146 34.6311 160.146 34.696V37.2244C160.146 37.4189 160.305 37.5774 160.499 37.5774H163.071C163.265 37.5774 163.431 37.4189 163.431 37.2244V17.897C163.431 17.7025 163.265 17.5368 163.071 17.5368ZM160.146 27.8165C160.146 29.1275 159.822 30.3017 159.181 31.3463C158.54 32.3764 157.682 33.1904 156.616 33.7883C155.55 34.379 154.362 34.6744 153.051 34.6744C151.739 34.6744 150.493 34.3574 149.42 33.7307C148.354 33.0895 147.504 32.2179 146.877 31.1085C146.265 29.9992 145.955 28.7457 145.955 27.3554C145.955 25.9651 146.265 24.7261 146.877 23.6311C147.504 22.5218 148.354 21.6501 149.42 21.009C150.493 20.3679 151.703 20.0437 153.051 20.0437C154.398 20.0437 155.55 20.3463 156.616 20.9442C157.682 21.5349 158.54 22.3417 159.181 23.3718C159.822 24.4019 160.146 25.5761 160.146 26.8944V27.8165Z" fill="#7D7D7D"/>
<path d="M125.581 34.3704V4.28787C125.581 4.05735 125.321 3.92048 125.134 4.05015L122.209 6.02396C122.108 6.08879 122.051 6.20405 122.051 6.32651V37.223C122.051 37.4175 122.209 37.5832 122.411 37.5832H140.132C140.326 37.5832 140.492 37.4247 140.492 37.223V34.8098C140.492 34.6153 140.334 34.4496 140.132 34.4496H125.66C125.617 34.4496 125.588 34.4136 125.588 34.3776L125.581 34.3704Z" fill="#7D7D7D"/>
<path d="M115.424 19.5394C113.882 17.9402 111.786 17.1406 109.128 17.1406C107.5 17.1406 106.081 17.4504 104.878 18.0771C103.739 18.675 102.817 19.5178 102.097 20.5984C102.061 20.656 101.967 20.6344 101.967 20.5624L101.866 17.8826C101.859 17.6881 101.701 17.5368 101.506 17.5368H99.3524C99.1507 17.5368 98.9922 17.7025 98.9922 17.897V37.21C98.9922 37.4117 99.1579 37.5702 99.3524 37.5702H101.917C102.119 37.5702 102.277 37.4045 102.277 37.21V26.7935C102.277 24.7981 102.846 23.1989 103.999 21.9815C105.159 20.7497 106.671 20.1374 108.53 20.1374C110.388 20.1374 111.757 20.7064 112.838 21.8374C113.918 22.9756 114.458 24.4956 114.458 26.3901V37.21C114.458 37.4117 114.624 37.5702 114.819 37.5702H117.376C117.578 37.5702 117.736 37.4045 117.736 37.21V26.1308C117.736 23.3358 116.965 21.1387 115.417 19.5322L115.424 19.5394Z" fill="#7D7D7D"/>
<path d="M93.0014 22.248C92.0938 20.6704 90.8475 19.4314 89.2699 18.5237C87.6923 17.6017 85.913 17.1406 83.9176 17.1406C81.9222 17.1406 80.1429 17.6017 78.5509 18.5237C76.9589 19.4314 75.7054 20.6704 74.7834 22.248C73.8757 23.8112 73.4219 25.5833 73.4219 27.5571C73.4219 29.5309 73.8757 31.3319 74.7834 32.9095C75.7054 34.4726 76.9589 35.7117 78.5509 36.6193C80.1429 37.527 81.9294 37.9808 83.9176 37.9808C85.9058 37.9808 87.6923 37.527 89.2699 36.6193C90.8475 35.7117 92.0938 34.4726 93.0014 32.9095C93.9091 31.3319 94.3629 29.5525 94.3629 27.5571C94.3629 25.5617 93.9091 23.8112 93.0014 22.248ZM90.0551 31.3679C89.4356 32.4916 88.6 33.3777 87.5267 34.0332C86.4605 34.6888 85.2503 35.0129 83.9032 35.0129C82.5561 35.0129 81.3387 34.6888 80.251 34.0332C79.1848 33.3777 78.3348 32.4916 77.7081 31.3679C77.0957 30.2441 76.786 28.969 76.786 27.5355C76.786 26.102 77.0957 24.8702 77.7081 23.7536C78.3348 22.6298 79.1848 21.7438 80.251 21.0882C81.3387 20.4327 82.5489 20.1013 83.9032 20.1013C85.2575 20.1013 86.4605 20.4327 87.5267 21.0882C88.6 21.7438 89.4356 22.6298 90.0551 23.7536C90.6819 24.8702 90.9916 26.138 90.9916 27.5355C90.9916 28.933 90.6819 30.2441 90.0551 31.3679Z" fill="#7D7D7D"/>
<path d="M68.6222 17.5368H66.4251C66.2306 17.5368 66.0721 17.6881 66.0649 17.8826L65.9281 20.2598C65.9208 20.3246 65.8488 20.3463 65.8056 20.303C64.9195 19.3305 63.8534 18.5742 62.6144 18.0195C61.3177 17.4288 59.8986 17.1406 58.3498 17.1406C56.412 17.1406 54.6759 17.5873 53.1343 18.4805C51.6144 19.3738 50.4114 20.5912 49.5325 22.1256C48.6465 23.6671 48.207 25.4104 48.207 27.3554C48.207 29.3004 48.6465 31.0365 49.5325 32.5853C50.4114 34.1269 51.6144 35.3443 53.1343 36.2375C54.6759 37.1308 56.4048 37.5774 58.3282 37.5774C59.8121 37.5774 61.1808 37.3037 62.4343 36.7562C63.6445 36.2375 64.6962 35.5244 65.5823 34.6383C65.6255 34.5951 65.7047 34.6239 65.7047 34.6888V36.9795C65.7047 37.1812 65.6975 37.3829 65.6903 37.5774C65.6183 38.9677 65.3013 40.1924 64.7395 41.2441C64.1127 42.4471 63.2195 43.3764 62.0525 44.0319C60.9071 44.7019 59.5384 45.0332 57.9464 45.0332C55.4611 45.0332 53.336 44.1976 51.5711 42.5263C51.3983 42.3607 51.1173 42.3967 51.0021 42.6128L49.9287 44.5722C49.8495 44.7235 49.8783 44.918 50.0079 45.026C52.3131 47.007 55.0001 48.0011 58.0905 48.0011C60.3308 48.0011 62.2686 47.5545 63.8966 46.6541C65.5319 45.7752 66.7853 44.5146 67.6641 42.8721C68.4782 41.3666 68.9176 39.6017 68.9752 37.5774C68.9896 37.4045 68.9896 37.2317 68.9896 37.0588V17.9042C68.9896 17.7025 68.8239 17.5368 68.6222 17.5368ZM65.7047 27.8165C65.7047 29.1275 65.3806 30.3017 64.7395 31.3463C64.0983 32.3764 63.2411 33.1904 62.1749 33.7883C61.1088 34.379 59.9202 34.6744 58.6091 34.6744C57.2981 34.6744 56.0518 34.3574 54.9785 33.7307C53.9123 33.0895 53.0623 32.2179 52.4356 31.1085C51.8233 29.9992 51.5135 28.7457 51.5135 27.3554C51.5135 25.9651 51.8233 24.7261 52.4356 23.6311C53.0623 22.5218 53.9123 21.6501 54.9785 21.009C56.0518 20.3679 57.262 20.0437 58.6091 20.0437C59.9562 20.0437 61.1088 20.3463 62.1749 20.9442C63.2411 21.5349 64.0983 22.3417 64.7395 23.3718C65.3806 24.4019 65.7047 25.5761 65.7047 26.8944V27.8165Z" fill="#7D7D7D"/>
<path d="M17.8673 30.0765H11.9819C11.7225 30.0765 11.5497 29.8099 11.6577 29.5722L14.604 22.9881C14.7265 22.7071 15.1299 22.7071 15.2523 22.9881L18.1986 29.5722C18.3067 29.8099 18.1338 30.0765 17.8745 30.0765H17.8673Z" fill="#7D7D7D"/>
</g>
<defs>
<clipPath id="clip0_2179_563">
<rect width="208" height="48" fill="white"/>
</clipPath>
</defs>
</svg>
