<svg width="28" height="30" viewBox="0 0 28 30" fill="none" xmlns="http://www.w3.org/2000/svg">
<g clip-path="url(#clip0_1443_927)">
<path d="M14.5817 20.2177C16.3565 19.0282 18.4671 18.9043 20.5095 18.7859C23.0256 18.6386 25.2153 18.5105 26.601 16.5487C27.0772 14.1985 26.9175 11.7623 26.1385 9.49586C25.3595 7.22938 23.9901 5.21609 22.1738 3.66719C20.3575 2.11828 18.1613 1.09086 15.8157 0.692719C13.4701 0.294574 11.0614 0.540378 8.8424 1.40434C13.1674 1.4897 15.0091 1.68657 15.0091 1.68657C15.0091 1.68657 12.8042 1.922 7.55501 1.98808C6.94428 2.30649 6.35911 2.67244 5.80481 3.08261C6.22802 3.08261 6.66216 3.08261 7.11268 3.08261C15.4323 3.08261 18.8316 3.40064 18.8316 3.40064C18.8316 3.40064 15.4323 3.72005 7.11268 3.72005C6.37547 3.72005 5.67921 3.72004 5.01845 3.71316C4.61488 4.06097 4.23239 4.4329 3.87304 4.82695C5.2519 4.80768 6.82325 4.79529 8.60212 4.79529C17.6576 4.79529 21.3573 5.1147 21.3573 5.1147C21.3573 5.1147 17.6576 5.43135 8.60212 5.43135C6.60891 5.43135 4.8751 5.41483 3.38429 5.39143C3.07852 5.76649 2.79322 6.15807 2.52967 6.56442C4.35359 6.52863 6.57752 6.50385 9.24104 6.50385C18.8071 6.50385 22.7198 6.82463 22.7198 6.82463C22.7198 6.82463 18.8071 7.14266 9.24104 7.14266C6.42189 7.14266 4.09557 7.11513 2.21431 7.07658C1.9839 7.46989 1.77339 7.87472 1.58358 8.2895C3.57679 8.24682 6.08058 8.21653 9.1482 8.21653C19.0091 8.21653 23.0365 8.53594 23.0365 8.53594C23.0365 8.53594 19.0091 8.85672 9.1482 8.85672C5.97 8.85672 3.39931 8.8223 1.36651 8.77687C1.20269 9.17613 1.05889 9.58365 0.935109 9.99943C2.92149 9.9595 5.39798 9.92922 8.41645 9.93059C18.3825 9.93059 22.4508 10.2486 22.4508 10.2486C22.4508 10.2486 18.3784 10.568 8.41645 10.568C5.32835 10.568 2.80681 10.5377 0.795855 10.4951C0.694829 10.8888 0.611101 11.2895 0.544661 11.697C2.37268 11.6639 4.57202 11.6419 7.17821 11.6419C17.0678 11.6419 21.1129 11.9613 21.1129 11.9613C21.1129 11.9613 17.0678 12.2807 7.17821 12.2807C4.53653 12.2807 2.31124 12.2587 0.469576 12.2243C0.423159 12.6084 0.39312 12.9953 0.379468 13.389C1.8812 13.3684 3.5959 13.3546 5.54542 13.3546C15.207 13.3546 19.1538 13.674 19.1538 13.674C19.1538 13.674 15.207 13.9934 5.54542 13.9934C3.59181 13.9934 1.87301 13.981 0.371277 13.9604C0.371277 14.3376 0.389483 14.7107 0.425889 15.0797C1.40338 15.0714 2.46096 15.0673 3.59863 15.0673C12.9148 15.0673 16.7238 15.3867 16.7238 15.3867C16.7238 15.3867 12.9148 15.7061 3.59863 15.7061C2.48644 15.7061 1.45162 15.702 0.494149 15.6937C0.545117 16.0608 0.609734 16.4229 0.688006 16.78H1.49621C10.3701 16.78 14.007 17.098 14.007 17.098C14.007 17.098 10.3837 17.4091 1.50303 17.4091H0.851833C0.951038 17.7763 1.06571 18.1365 1.19586 18.4899C8.11884 18.5339 10.994 18.8024 10.994 18.8024C10.994 18.8024 8.18983 19.0654 1.4375 19.1149C1.59996 19.4991 1.78154 19.8749 1.98359 20.2397C6.36454 20.3279 8.23761 20.5151 8.23761 20.5151C8.23761 20.5151 6.45465 20.6941 2.29349 20.7904C2.57863 21.2616 2.89184 21.715 3.23139 22.1479C4.58568 22.2209 5.20275 22.2856 5.20275 22.2856C5.20275 22.2856 4.65667 22.3462 3.44846 22.4136C5.303 24.6589 7.83664 26.2288 10.6609 26.8826C11.2192 24.3039 12.1872 21.8216 14.5817 20.2177Z" fill="white"/>
<path d="M21.7605 21.1721C20.8721 21.2108 19.9915 21.3574 19.1379 21.6085C17.4206 22.1156 15.8248 22.9732 14.4498 24.128C13.0545 25.2955 11.9583 26.4685 11.2811 28.2087C11.7822 25.3657 12.5699 22.608 15.0573 20.9408C18.828 18.4131 24.7912 21.2588 27.5503 16.6729C28.1305 18.3084 28.0049 19.8298 27.6227 21.5094C26.921 24.5988 25.1093 26.9269 22.0595 27.7502C18.8048 28.63 15.6129 26.8664 12.3801 28.4097L12.391 28.4317C12.0939 28.6401 11.8124 28.8701 11.5487 29.1201C11.7757 28.2551 12.1892 27.4512 12.7597 26.7658C14.1931 25.0545 15.8996 23.4534 17.9188 22.4594C19.1278 21.8464 20.4245 21.4283 21.7618 21.2203L21.7605 21.1721Z" fill="white"/>
</g>
<defs>
<clipPath id="clip0_1443_927">
<rect width="28" height="29" fill="white" transform="translate(0 0.5)"/>
</clipPath>
</defs>
</svg>
